
<svg width="65px" height="64px" viewBox="0 0 65 64" version="1.1" xmlns="http://www.w3.org/2000/svg" xmlns:xlink="http://www.w3.org/1999/xlink">
    <g id="Page-1" stroke="none" stroke-width="1" fill="none" fill-rule="evenodd">
        <g id="HP-V6-Copy" transform="translate(-148.000000, -284.000000)">
            <g id="Group-2" transform="translate(148.000000, 284.000000)">
                <g id="bil-logomark-lg">
                    <circle id="Oval" fill="#8C1515" cx="33" cy="3" r="3"></circle>
                    <circle id="Oval-Copy" fill="#8C1515" cx="33" cy="61" r="3"></circle>
                    <circle id="Oval" fill="#8C1515" transform="translate(62.000000, 32.000000) rotate(-270.000000) translate(-62.000000, -32.000000) " cx="62" cy="32" r="3"></circle>
                    <circle id="Oval-Copy" fill="#8C1515" transform="translate(3.000000, 32.000000) rotate(-270.000000) translate(-3.000000, -32.000000) " cx="3" cy="32" r="3"></circle>
                    <ellipse id="Oval" fill="#8C1515" transform="translate(47.361144, 6.650905) rotate(-330.000000) translate(-47.361144, -6.650905) " cx="47.3611437" cy="6.65090523" rx="2.73694153" ry="2.7474563"></ellipse>
                    <ellipse id="Oval-Copy" fill="#8C1515" transform="translate(17.995921, 57.174945) rotate(-330.000000) translate(-17.995921, -57.174945) " cx="17.9959214" cy="57.1749451" rx="2.73694153" ry="2.7474563"></ellipse>
                    <ellipse id="Oval" fill="#8C1515" transform="translate(58.109561, 46.497959) rotate(-240.000000) translate(-58.109561, -46.497959) " cx="58.1095611" cy="46.4979592" rx="2.72783194" ry="2.75663142"></ellipse>
                    <ellipse id="Oval-Copy" fill="#8C1515" transform="translate(7.247504, 17.327891) rotate(-240.000000) translate(-7.247504, -17.327891) " cx="7.24750404" cy="17.3278912" rx="2.72783194" ry="2.75663142"></ellipse>
                    <ellipse id="Oval" fill="#8C1515" transform="translate(58.109561, 17.327891) rotate(-300.000000) translate(-58.109561, -17.327891) " cx="58.1095611" cy="17.3278912" rx="2.72783194" ry="2.75663142"></ellipse>
                    <ellipse id="Oval-Copy" fill="#8C1515" transform="translate(7.247504, 46.497959) rotate(-300.000000) translate(-7.247504, -46.497959) " cx="7.24750404" cy="46.4979592" rx="2.72783194" ry="2.75663142"></ellipse>
                    <ellipse id="Oval" fill="#8C1515" transform="translate(47.361144, 57.174945) rotate(-210.000000) translate(-47.361144, -57.174945) " cx="47.3611437" cy="57.1749451" rx="2.73694153" ry="2.7474563"></ellipse>
                    <ellipse id="Oval-Copy" fill="#8C1515" transform="translate(17.995921, 6.650905) rotate(-210.000000) translate(-17.995921, -6.650905) " cx="17.9959214" cy="6.65090523" rx="2.73694153" ry="2.7474563"></ellipse>
                    <ellipse id="Oval" fill="#AB2222" transform="translate(35.426038, 8.854573) rotate(7.000000) translate(-35.426038, -8.854573) " cx="35.4260378" cy="8.8545725" rx="2.19121892" ry="2.17708778"></ellipse>
                    <ellipse id="Oval-Copy" fill="#AB2222" transform="translate(29.710768, 55.092369) rotate(7.000000) translate(-29.710768, -55.092369) " cx="29.7107679" cy="55.0923687" rx="2.19121892" ry="2.17708778"></ellipse>
                    <ellipse id="Oval" fill="#AB2222" transform="translate(56.086188, 34.622579) rotate(-263.000000) translate(-56.086188, -34.622579) " cx="56.0861884" cy="34.6225793" rx="2.17708778" ry="2.19121892"></ellipse>
                    <ellipse id="Oval-Copy" fill="#AB2222" transform="translate(9.539051, 28.945292) rotate(-263.000000) translate(-9.539051, -28.945292) " cx="9.53905099" cy="28.9452918" rx="2.17708778" ry="2.19121892"></ellipse>
                    <ellipse id="Oval" fill="#AB2222" transform="translate(46.797681, 13.312062) rotate(-323.000000) translate(-46.797681, -13.312062) " cx="46.797681" cy="13.3120616" rx="2.18617123" ry="2.18215694"></ellipse>
                    <ellipse id="Oval-Copy" fill="#AB2222" transform="translate(18.339125, 50.634880) rotate(-323.000000) translate(-18.339125, -50.634880) " cx="18.3391247" cy="50.6348796" rx="2.18617123" ry="2.18215694"></ellipse>
                    <ellipse id="Oval" fill="#AB2222" transform="translate(51.598878, 45.918649) rotate(-233.000000) translate(-51.598878, -45.918649) " cx="51.5988777" cy="45.9186492" rx="2.18215694" ry="2.18617123"></ellipse>
                    <ellipse id="Oval-Copy" fill="#AB2222" transform="translate(14.026362, 17.649222) rotate(-233.000000) translate(-14.026362, -17.649222) " cx="14.0263617" cy="17.6492218" rx="2.18215694" ry="2.18617123"></ellipse>
                    <ellipse id="Oval" fill="#AB2222" transform="translate(54.483219, 22.583687) rotate(-293.000000) translate(-54.483219, -22.583687) " cx="54.4832195" cy="22.5836867" rx="2.17910064" ry="2.18921744"></ellipse>
                    <ellipse id="Oval-Copy" fill="#AB2222" transform="translate(11.142020, 40.984184) rotate(-293.000000) translate(-11.142020, -40.984184) " cx="11.1420199" cy="40.9841844" rx="2.17910064" ry="2.18921744"></ellipse>
                    <ellipse id="Oval" fill="#AB2222" transform="translate(41.830203, 53.500053) rotate(-203.000000) translate(-41.830203, -53.500053) " cx="41.8302034" cy="53.5000527" rx="2.18921744" ry="2.17910064"></ellipse>
                    <ellipse id="Oval-Copy" fill="#AB2222" transform="translate(23.306602, 10.446888) rotate(-203.000000) translate(-23.306602, -10.446888) " cx="23.3066023" cy="10.4468885" rx="2.18921744" ry="2.17910064"></ellipse>
                    <ellipse id="Oval" fill="#E14444" transform="translate(37.647857, 14.030890) rotate(16.000000) translate(-37.647857, -14.030890) " cx="37.6478567" cy="14.0308901" rx="1.75226518" ry="1.74238459"></ellipse>
                    <ellipse id="Oval-Copy" fill="#E14444" transform="translate(27.491078, 49.901002) rotate(16.000000) translate(-27.491078, -49.901002) " cx="27.4910781" cy="49.9010024" rx="1.75226518" ry="1.74238459"></ellipse>
                    <ellipse id="Oval" fill="#E14444" transform="translate(50.875240, 36.829633) rotate(-254.000000) translate(-50.875240, -36.829633) " cx="50.8752401" cy="36.8296326" rx="1.74238459" ry="1.75226518"></ellipse>
                    <ellipse id="Oval-Copy" fill="#E14444" transform="translate(14.765149, 26.740353) rotate(-254.000000) translate(-14.765149, -26.740353) " cx="14.7651487" cy="26.7403535" rx="1.74238459" ry="1.75226518"></ellipse>
                    <ellipse id="Oval" fill="#E14444" transform="translate(46.190059, 18.901260) rotate(-314.000000) translate(-46.190059, -18.901260) " cx="46.1900594" cy="18.9012598" rx="1.7471287" ry="1.74753531"></ellipse>
                    <ellipse id="Oval-Copy" fill="#E14444" transform="translate(18.948875, 45.030633) rotate(-314.000000) translate(-18.948875, -45.030633) " cx="18.9488754" cy="45.0306327" rx="1.7471287" ry="1.74753531"></ellipse>
                    <ellipse id="Oval" fill="#E14444" transform="translate(45.972287, 45.315066) rotate(-224.000000) translate(-45.972287, -45.315066) " cx="45.9722865" cy="45.3150658" rx="1.74753531" ry="1.7471287"></ellipse>
                    <ellipse id="Oval-Copy" fill="#E14444" transform="translate(19.668102, 18.254920) rotate(-224.000000) translate(-19.668102, -18.254920) " cx="19.6681023" cy="18.2549202" rx="1.74753531" ry="1.7471287"></ellipse>
                    <ellipse id="Oval" fill="#E14444" transform="translate(51.084957, 27.165003) rotate(-284.000000) translate(-51.084957, -27.165003) " cx="51.0849574" cy="27.1650026" rx="1.74218068" ry="1.75246789"></ellipse>
                    <ellipse id="Oval-Copy" fill="#E14444" transform="translate(14.555431, 36.404983) rotate(-284.000000) translate(-14.555431, -36.404983) " cx="14.5554314" cy="36.4049834" rx="1.74218068" ry="1.75246789"></ellipse>
                    <ellipse id="Oval" fill="#E14444" transform="translate(37.220367, 50.109326) rotate(-194.000000) translate(-37.220367, -50.109326) " cx="37.2203666" cy="50.109326" rx="1.75246789" ry="1.74218068"></ellipse>
                    <ellipse id="Oval-Copy" fill="#E14444" transform="translate(27.918568, 13.822566) rotate(-194.000000) translate(-27.918568, -13.822566) " cx="27.9185683" cy="13.8225665" rx="1.75246789" ry="1.74218068"></ellipse>
                </g>
            </g>
        </g>
    </g>
</svg>