
<svg width="234px" height="32px" viewBox="0 0 234 32" version="1.1" xmlns="http://www.w3.org/2000/svg" xmlns:xlink="http://www.w3.org/1999/xlink">
    <g id="Page-1" stroke="none" stroke-width="1" fill="none" fill-rule="evenodd">
        <g id="Artboard" transform="translate(-148.000000, -142.000000)">
            <g id="Full-header-logo" transform="translate(148.000000, 142.000000)">
                <path d="M130.181288,13.7378069 C130.181288,14.7200903 129.796339,15.3572471 129.026441,15.6492773 C129.517583,15.742196 129.902532,16.0209521 130.207836,16.4722715 C130.513141,16.9235909 130.67243,17.3881844 130.67243,17.8793261 C130.67243,18.6226757 130.433496,19.2465584 129.942354,19.7642483 C129.451213,20.2686641 128.800782,20.520872 127.991062,20.520872 L124.247765,20.520872 L124.247765,11.3750171 L127.699031,11.3750171 C129.225553,11.3750171 130.181288,12.29093 130.181288,13.7378069 Z M125.495531,12.5165897 L125.495531,15.1714097 L127.699031,15.1714097 C128.482203,15.1714097 128.920249,14.5740752 128.920249,13.7776292 C128.920249,12.9811832 128.402559,12.5165897 127.56629,12.5165897 L125.495531,12.5165897 Z M127.898143,16.2598859 L125.495531,16.2598859 L125.495531,19.3660253 L127.937965,19.3660253 C128.800782,19.3660253 129.398116,18.6757721 129.398116,17.866052 C129.398116,17.467829 129.252101,17.0961542 128.973345,16.7643017 C128.694589,16.4324492 128.336188,16.2598859 127.898143,16.2598859 Z M138.451052,20.520872 L137.256383,20.520872 L137.256383,19.5651368 C136.844886,20.25539 135.98207,20.653613 135.079431,20.653613 C134.20334,20.653613 133.459991,20.3483087 132.849382,19.7509742 C132.238774,19.1536397 131.933469,18.3704678 131.933469,17.4147326 C131.933469,16.4457233 132.238774,15.6758255 132.849382,15.078491 C133.459991,14.4811565 134.20334,14.1891263 135.079431,14.1891263 C135.98207,14.1891263 136.871434,14.5740752 137.256383,15.2510543 L137.256383,14.3218673 L138.451052,14.3218673 L138.451052,20.520872 Z M137.243109,17.4014585 C137.243109,16.7775758 137.030724,16.27316 136.619227,15.9147593 C136.207729,15.5563586 135.729862,15.3705212 135.185624,15.3705212 C134.614837,15.3705212 134.123696,15.5563586 133.738747,15.9413075 C133.353798,16.3129823 133.167961,16.804124 133.167961,17.4014585 C133.167961,17.998793 133.367072,18.5032088 133.752021,18.8881577 C134.13697,19.2731066 134.614837,19.4722181 135.185624,19.4722181 C135.75641,19.4722181 136.247552,19.2863807 136.645775,18.9147059 C137.043998,18.5430311 137.243109,18.0386153 137.243109,17.4014585 Z M142.725313,17.9855189 L141.87577,17.7864074 C140.694375,17.467829 140.110315,16.8704945 140.216508,15.7687442 C140.25633,15.3174248 140.495264,14.94575 140.906761,14.6404457 C141.318258,14.3351414 141.8094,14.1891263 142.366912,14.1891263 C143.521759,14.1891263 144.411123,14.7599126 144.517316,15.9413075 L143.362469,15.9413075 C143.296099,15.5032622 142.884602,15.2377802 142.39346,15.2377802 C141.928867,15.2377802 141.557192,15.4634399 141.464273,15.7952924 C141.411177,15.9944039 141.411177,16.1536931 141.477547,16.2864341 C141.570466,16.4855456 141.822674,16.6448348 142.207623,16.7643017 L143.123536,16.9899614 C144.198738,17.2554434 144.729702,17.8527779 144.729702,18.795239 C144.729702,19.3527512 144.490768,19.8040706 144.026174,20.1491972 C143.561581,20.4810497 143.004069,20.653613 142.32709,20.653613 C141.729755,20.653613 141.198791,20.4677756 140.734198,20.1093749 C140.269604,19.7509742 140.03067,19.2598325 140.017396,18.662498 L141.119146,18.662498 C141.172243,18.9943505 141.344806,19.2200102 141.623562,19.3660253 C141.902318,19.5385886 142.220897,19.6049591 142.605846,19.5784109 C143.176632,19.5385886 143.535033,19.2067361 143.548307,18.7686908 C143.561581,18.3439196 143.243002,18.1049858 142.725313,17.9855189 Z M147.490714,20.520872 L146.296045,20.520872 L146.296045,14.3218673 L147.490714,14.3218673 L147.490714,20.520872 Z M146.296045,12.5962343 C145.977467,12.29093 145.977467,11.7865142 146.296045,11.4812099 C146.627898,11.1759056 147.158862,11.1759056 147.47744,11.4812099 C147.809293,11.7865142 147.809293,12.29093 147.47744,12.5962343 C147.158862,12.9015386 146.627898,12.9015386 146.296045,12.5962343 Z M152.375583,14.1891263 C153.357867,14.1891263 154.154313,14.5209788 154.764921,15.1846838 L153.849008,15.9545816 C153.46406,15.5696327 152.972918,15.3705212 152.375583,15.3705212 C151.804797,15.3705212 151.313655,15.5563586 150.902158,15.9413075 C150.490661,16.3129823 150.29155,16.804124 150.29155,17.4014585 C150.29155,18.0120671 150.490661,18.5164829 150.902158,18.9014318 C151.313655,19.2863807 151.804797,19.4854922 152.375583,19.4854922 C152.972918,19.4854922 153.46406,19.2863807 153.849008,18.8748836 L154.778195,19.6447814 C154.154313,20.3217605 153.357867,20.653613 152.375583,20.653613 C151.45967,20.653613 150.689773,20.3483087 150.052616,19.7509742 C149.415459,19.1403656 149.096881,18.3571937 149.096881,17.4014585 C149.096881,16.4457233 149.415459,15.6758255 150.052616,15.078491 C150.689773,14.4811565 151.45967,14.1891263 152.375583,14.1891263 Z M159.994917,20.520872 L159.994917,11.3750171 L161.229408,11.3750171 L161.229408,20.520872 L159.994917,20.520872 Z M164.693948,17.1757988 L164.693948,20.520872 L163.486005,20.520872 L163.486005,14.3218673 L164.693948,14.3218673 L164.693948,15.2510543 C165.052349,14.5608011 165.875343,14.1891263 166.631967,14.1891263 C168.171762,14.1891263 169.021305,15.1846838 169.021305,16.936865 L169.021305,20.520872 L167.813362,20.520872 L167.813362,17.0165096 C167.813362,15.9944039 167.295672,15.3705212 166.446129,15.3705212 C165.47712,15.3705212 164.693948,15.9545816 164.693948,17.1757988 Z M173.826529,14.1891263 C174.808812,14.1891263 175.605258,14.5209788 176.215867,15.1846838 L175.299954,15.9545816 C174.915005,15.5696327 174.423863,15.3705212 173.826529,15.3705212 C173.255743,15.3705212 172.764601,15.5563586 172.353104,15.9413075 C171.941607,16.3129823 171.742495,16.804124 171.742495,17.4014585 C171.742495,18.0120671 171.941607,18.5164829 172.353104,18.9014318 C172.764601,19.2863807 173.255743,19.4854922 173.826529,19.4854922 C174.423863,19.4854922 174.915005,19.2863807 175.299954,18.8748836 L176.229141,19.6447814 C175.605258,20.3217605 174.808812,20.653613 173.826529,20.653613 C172.910616,20.653613 172.140718,20.3483087 171.503561,19.7509742 C170.866405,19.1403656 170.547826,18.3571937 170.547826,17.4014585 C170.547826,16.4457233 170.866405,15.6758255 171.503561,15.078491 C172.140718,14.4811565 172.910616,14.1891263 173.826529,14.1891263 Z M177.184876,17.4014585 C177.184876,16.4457233 177.490181,15.6758255 178.114063,15.078491 C178.737946,14.4811565 179.507844,14.1891263 180.423757,14.1891263 C181.33967,14.1891263 182.109567,14.4811565 182.73345,15.078491 C183.357333,15.6758255 183.675911,16.4457233 183.675911,17.4014585 C183.675911,18.3571937 183.357333,19.1403656 182.720176,19.7509742 C182.096293,20.3483087 181.326395,20.653613 180.423757,20.653613 C179.521118,20.653613 178.75122,20.3483087 178.127337,19.7509742 C177.503455,19.1536397 177.184876,18.3704678 177.184876,17.4014585 Z M182.467968,17.4014585 C182.467968,16.7908499 182.268856,16.2997082 181.870633,15.9280334 C181.485685,15.5563586 180.994543,15.3705212 180.423757,15.3705212 C179.85297,15.3705212 179.361829,15.5563586 178.963606,15.9280334 C178.578657,16.2997082 178.379545,16.7908499 178.379545,17.4014585 C178.379545,18.0253412 178.578657,18.529757 178.963606,18.9147059 C179.361829,19.2996548 179.85297,19.4854922 180.423757,19.4854922 C180.994543,19.4854922 181.485685,19.2996548 181.870633,18.9147059 C182.268856,18.529757 182.467968,18.0253412 182.467968,17.4014585 Z M192.410269,15.3705212 C191.401437,15.3572471 190.76428,16.1138708 190.76428,17.1757988 L190.76428,20.520872 L189.556337,20.520872 L189.556337,17.0032355 C189.556337,15.9944039 189.025373,15.3705212 188.215653,15.3705212 C187.259918,15.3705212 186.49002,15.9678557 186.49002,17.1757988 L186.49002,20.520872 L185.282077,20.520872 L185.282077,14.3218673 L186.49002,14.3218673 L186.49002,15.2510543 C186.795325,14.6271716 187.578496,14.2687709 188.202379,14.2156745 C188.441313,14.2024004 188.666973,14.2156745 188.879358,14.2554968 C189.66253,14.3749637 190.206768,14.7864608 190.498799,15.4634399 C190.936844,14.6138975 191.653645,14.1891263 192.649203,14.1891263 C194.188998,14.1891263 195.038541,15.1846838 195.038541,16.936865 L195.038541,20.520872 L193.830598,20.520872 L193.830598,17.0165096 C193.830598,15.9944039 193.299634,15.3705212 192.410269,15.3705212 Z M197.773005,16.936865 L201.622494,16.936865 C201.476479,15.9147593 200.746404,15.2776025 199.737572,15.2776025 C198.688918,15.2776025 197.91902,15.9147593 197.773005,16.936865 Z M202.817163,17.4014585 C202.817163,17.6271182 202.817163,17.7864074 202.803889,17.8793261 L197.773005,17.8793261 C197.91902,18.9014318 198.715466,19.5651368 199.777394,19.5651368 C200.534018,19.5651368 201.224271,19.2067361 201.556124,18.6094016 C201.675591,18.6492239 201.848154,18.7288685 202.087088,18.8217872 L202.591504,19.0076246 C202.073814,20.0695526 200.972063,20.653613 199.737572,20.653613 C198.834933,20.653613 198.07831,20.3483087 197.467701,19.7509742 C196.870366,19.1536397 196.565062,18.3704678 196.565062,17.4014585 C196.565062,16.4324492 196.870366,15.6625514 197.467701,15.078491 C198.07831,14.4811565 198.834933,14.1891263 199.737572,14.1891263 C200.626937,14.1891263 201.370286,14.4811565 201.941073,15.078491 C202.525133,15.6625514 202.817163,16.4324492 202.817163,17.4014585 Z M208.047159,20.520872 L208.047159,11.3750171 L209.28165,11.3750171 L209.28165,19.3660253 L213.011672,19.3660253 L213.011672,20.520872 L208.047159,20.520872 Z M220.352249,20.520872 L219.15758,20.520872 L219.15758,19.5651368 C218.746083,20.25539 217.883267,20.653613 216.980628,20.653613 C216.104537,20.653613 215.361188,20.3483087 214.750579,19.7509742 C214.139971,19.1536397 213.834666,18.3704678 213.834666,17.4147326 C213.834666,16.4457233 214.139971,15.6758255 214.750579,15.078491 C215.361188,14.4811565 216.104537,14.1891263 216.980628,14.1891263 C217.883267,14.1891263 218.772631,14.5740752 219.15758,15.2510543 L219.15758,14.3218673 L220.352249,14.3218673 L220.352249,20.520872 Z M219.144306,17.4014585 C219.144306,16.7775758 218.931921,16.27316 218.520424,15.9147593 C218.108926,15.5563586 217.631059,15.3705212 217.086821,15.3705212 C216.516034,15.3705212 216.024893,15.5563586 215.639944,15.9413075 C215.254995,16.3129823 215.069158,16.804124 215.069158,17.4014585 C215.069158,17.998793 215.268269,18.5032088 215.653218,18.8881577 C216.038167,19.2731066 216.516034,19.4722181 217.086821,19.4722181 C217.657607,19.4722181 218.148749,19.2863807 218.546972,18.9147059 C218.945195,18.5430311 219.144306,18.0386153 219.144306,17.4014585 Z M223.577856,19.5651368 L223.577856,20.520872 L222.369913,20.520872 L222.369913,10.9502459 L223.577856,10.9502459 L223.577856,15.2510543 C223.989353,14.5608011 224.812347,14.1891263 225.754808,14.1891263 C226.644173,14.1891263 227.387522,14.4811565 227.984857,15.078491 C228.582191,15.6758255 228.887496,16.4457233 228.887496,17.4147326 C228.887496,18.3704678 228.582191,19.1536397 227.971583,19.7509742 C227.360974,20.3483087 226.617625,20.653613 225.741534,20.653613 C224.852169,20.653613 223.989353,20.25539 223.577856,19.5651368 Z M223.59113,17.4014585 C223.59113,18.0386153 223.790241,18.5430311 224.188464,18.9147059 C224.586687,19.2863807 225.077829,19.4722181 225.648615,19.4722181 C226.219402,19.4722181 226.683995,19.2731066 227.068944,18.8881577 C227.453893,18.5032088 227.653004,17.998793 227.653004,17.4014585 C227.653004,16.804124 227.453893,16.3129823 227.068944,15.9413075 C226.683995,15.5563586 226.219402,15.3705212 225.648615,15.3705212 C225.104377,15.3705212 224.62651,15.5563586 224.215013,15.9147593 C223.803515,16.27316 223.59113,16.7775758 223.59113,17.4014585 Z" id="BasicIncomeLab" fill="#535353" fill-rule="nonzero"></path>
                <path d="M116,9 L116,24.8297872" id="Line-3" stroke="#3F3C2F" stroke-width="0.5" stroke-linecap="square"></path>
                <g id="Stanford_wordmark_(2012)" transform="translate(41.000000, 8.000000)" fill="#414141" fill-rule="nonzero">
                    <path d="M36.3189623,1.49250444 C36.8488196,0.529718254 37.9159492,0.0221437375 38.9497623,0.0124985142 C39.8931653,-0.051428954 40.9602949,0.113232154 41.6212121,0.895861647 C41.2852075,1.36078284 40.9639615,1.83540285 40.6279569,2.30031333 C40.2531818,1.84894903 39.9448661,1.213511 39.3393164,1.08565821 C38.7429895,0.891939256 37.9934801,1.21739052 37.8383366,1.88765852 C37.5872575,2.95117299 37.7386414,4.06308505 37.7017205,5.14795833 L39.6384093,5.14795833 L39.6384093,6.35875536 L37.6998821,6.35875536 C37.6998821,8.18363161 37.6998821,10.0084007 37.6980334,11.8332769 C37.690649,12.3505074 37.7700347,12.8619293 37.8623486,13.3694395 C38.3054318,13.5844637 38.7835984,13.6948908 39.2728366,13.7045788 C39.2709879,13.8304919 39.2691393,14.0842684 39.2673008,14.2121212 C37.6832851,14.1036339 36.0973288,14.0707008 34.5151515,14.2101815 C34.5151515,14.103636 34.5188386,13.8905495 34.5188386,13.7840019 C35.0191584,13.6910166 35.6394667,13.4469335 35.6597916,12.8154071 C35.8536443,10.6709525 35.7225629,8.51095833 35.7613324,6.35878751 C35.3754756,6.35878751 34.9896188,6.35878751 34.6037314,6.35684989 C34.60558,6.17475879 34.6092671,5.99071722 34.6111158,5.80862612 C35.0025083,5.61877597 35.384678,5.40763132 35.7612609,5.19065666 C35.7612609,3.94695871 35.6911052,2.60252175 36.3188173,1.49257089 L36.3189623,1.49250444 Z" id="Path"></path>
                    <path d="M65.8339378,0 C64.7202125,0.245364226 63.592499,0.452328319 62.448577,0.500251599 C62.4365361,0.59993181 62.4143792,0.79924451 62.4043433,0.898930023 C62.8297726,1.02161744 63.5241745,0.98918359 63.5542602,1.5565999 C63.7248383,2.70680104 63.6044478,3.87396993 63.6385634,5.03180657 C61.9990603,4.76344044 60.1668312,4.78069452 58.7722321,5.7564142 C57.2450785,6.77813769 56.721299,8.68366869 56.8738367,10.3821402 C56.960126,11.6990494 57.6503915,13.0505305 58.9005681,13.6926536 C60.3895318,14.4747607 62.2940332,14.3137474 63.6887432,13.4127813 C63.6987792,13.6792385 63.7047741,13.945664 63.7067835,14.2121212 C64.7864154,13.9495029 65.8902713,13.8018835 67,13.7405345 L67,13.2803798 C65.4272183,13.0245274 65.8620729,12.3292315 65.7517217,11.1470038 C65.7537312,7.43202163 65.693471,3.71502456 65.8339445,0.000254516204 L65.8339378,0 Z M61.7538309,5.99088725 C62.4179362,5.98416909 63.0933653,6.18684352 63.6385712,6.540515 C63.6405806,8.53984583 63.6345191,10.5391767 63.6425567,12.5385075 C62.474655,13.050329 60.8953232,13.0138907 59.9802078,12.0669208 C59.195571,11.2656401 59.0631163,10.0925113 59.1333569,9.04581344 C59.2116219,8.09309566 59.4204809,7.00427533 60.2913781,6.41379774 C60.7277204,6.12781697 61.2373341,5.99598818 61.7538087,5.99075999 L61.7538309,5.99088725 Z" id="Shape"></path>
                    <path d="M3.33345782,1.04444087 C4.5292487,0.966193447 5.72865346,1.05030964 6.91179578,1.23027633 C6.84102708,2.13795033 6.84828595,3.0515115 6.91361275,3.95915302 C6.79929386,3.95915302 6.57065607,3.96110964 6.45633718,3.96110964 C6.36560886,3.39382016 6.27124658,2.705216 5.71054393,2.45284686 C4.87947328,2.07529958 3.90681907,2.03813682 3.04491002,2.30809172 C1.91808391,2.6680316 1.73297323,4.45593498 2.57131178,5.23652618 C3.62013844,6.22636083 4.90487079,6.87389548 5.97909495,7.83434839 C7.66115271,9.27800381 7.44160984,12.6387774 5.44560678,13.6500937 C3.76535596,14.4873381 1.79288324,14.2760709 0.0581231465,13.7498596 C0.0689647697,12.850551 0.0381464519,11.9512424 0,11.053016 C0.125200671,11.0510572 0.377429026,11.0451917 0.504446672,11.0432329 C0.593361033,11.6085745 0.675011505,12.3030225 1.2066827,12.5944591 C2.15751313,13.1695837 3.3841424,13.2165296 4.37133243,12.7216068 C5.60346282,11.9880372 5.37659182,9.86751953 4.22434812,9.15348366 C3.22450954,8.32343591 2.0758998,7.70982824 1.15225373,6.77264264 C0.128824584,5.74758236 0.00183705282,3.95177891 0.660566046,2.67045356 C1.19943487,1.6492892 2.28640798,1.13881524 3.3334277,1.04488024 L3.33345782,1.04444087 Z" id="Path"></path>
                    <path d="M10.8516337,3.04545455 C10.9482845,3.05124462 11.1434391,3.06089439 11.2400941,3.06668447 C11.238233,3.74023581 11.238233,4.41186532 11.238233,5.08547006 L14.2121212,5.08547006 L14.2121212,6.24348511 L11.238233,6.24348511 C11.2493843,7.86466347 11.2140703,9.48776367 11.2549605,11.1108639 C11.2958517,11.728447 11.3125792,12.4985387 11.8683185,12.8768208 C12.5690361,13.3091279 13.4072918,13.0389386 14.1080403,12.7552324 C14.3236425,13.303341 13.7753415,13.6102054 13.3943153,13.8379754 C12.500298,14.2876538 11.4092897,14.3359027 10.485515,13.9614963 C9.69558682,13.6546319 9.31455032,12.7572504 9.2736262,11.9350234 C9.17883544,10.0397693 9.2736262,8.14077842 9.28849564,6.24360255 L8.12678521,6.24360255 C8.12492408,6.1162273 8.12307324,5.99077389 8.12121212,5.86533116 C9.3832792,5.37125826 10.2344599,4.24223096 10.8516121,3.04567235 L10.8516337,3.04545455 Z" id="Path"></path>
                    <path d="M19.1496444,5.07596916 C17.7738165,5.06205234 16.38627,5.73467201 15.9442357,7.09444228 C16.0644623,7.16206139 16.3087266,7.29536478 16.4308641,7.36299013 C16.9594683,6.44449913 18.194145,5.97307525 19.1673173,6.50280365 C19.9306526,6.84465039 19.9956645,7.76303747 19.9803987,8.48251793 C18.7800332,8.86193892 17.5376496,9.16064177 16.4041119,9.71667007 C15.0453868,10.4229123 14.8698189,12.4251129 15.8430862,13.5089057 C16.9900317,14.5438498 18.9040709,14.3766049 20.0376087,13.3980118 C20.3830226,14.0704413 21.1997567,14.3278083 21.9115302,14.130585 C22.5317401,14.0122511 22.941997,13.5032529 23.3484848,13.0730817 C23.2778744,12.9941935 23.1348684,12.8344811 23.0642611,12.7537214 C22.8085421,12.8175841 22.5203066,13.0166788 22.2703202,12.8232119 C21.9459048,12.6034503 21.9859064,12.1620671 21.9630076,11.8220908 C21.9859127,10.3645298 22.0679725,8.90333191 21.9897302,7.44390051 C21.9515635,6.68882011 21.6080943,5.91671907 20.9287212,5.52040213 C20.3979633,5.2304382 19.775019,5.0823441 19.1496043,5.07601592 L19.1496444,5.07596916 Z M19.9592629,9.62072895 C19.9668959,10.6030837 19.9593474,11.5853761 19.967012,12.5677517 C19.3277144,12.8476154 18.5681692,13.1068321 17.8945076,12.7856429 C17.0701089,12.3536325 17.1045257,11.061446 17.7857991,10.5186144 C18.4403625,10.07534 19.2169472,9.86681122 19.9593368,9.62076013 L19.9592629,9.62072895 Z" id="Shape"></path>
                    <path d="M44.6786874,5.07685819 C43.7602512,5.08810717 42.8121391,5.33370958 42.0940579,5.97675593 C41.0257097,6.90663782 40.5622542,8.44393979 40.6093036,9.88745185 C40.604078,11.1229107 40.961335,12.440927 41.8658492,13.2621462 C42.9341975,14.2632702 44.4869227,14.3625674 45.8166456,14.0644788 C47.2195456,13.7326411 48.273914,12.4109428 48.5719254,10.9298858 C48.8925938,9.39261492 48.7583778,7.60601205 47.7754704,6.3649526 C47.0191134,5.41257483 45.8079781,5.05253691 44.678697,5.07691005 L44.6786874,5.07685819 Z M44.6908904,6.12614771 C45.1844555,6.13647362 45.6728529,6.3545292 45.9891827,6.77728387 C46.5625485,7.53280966 46.715941,8.54895172 46.7577744,9.4975335 C46.7647451,10.5305293 46.6427349,11.645896 46.0379964,12.4895177 C45.4437186,13.3162857 44.1628674,13.4081672 43.4779521,12.6638842 C42.9533807,12.1408263 42.7581259,11.3628772 42.6396155,10.631683 C42.5158795,9.6605535 42.5473168,8.64999134 42.8313898,7.7144777 C43.0300673,7.08830585 43.4169229,6.45464575 44.0303771,6.24088815 C44.2411448,6.15945283 44.4666057,6.12129383 44.6909578,6.12599214 L44.6908904,6.12614771 Z" id="Shape"></path>
                    <path d="M23.3965568,5.66991138 C24.4723802,5.65273975 25.5635346,5.54207415 26.5565287,5.1013202 C26.5911691,5.35508411 26.618111,5.60884802 26.6392804,5.86643301 C27.7804731,5.12612554 29.2545801,4.83801415 30.5613251,5.29594184 C31.4966154,5.60694804 32.1509461,6.5152035 32.233669,7.47680627 C32.4261142,9.30659596 32.1470687,11.161191 32.3933976,12.9871807 C32.4203406,13.561493 33.0438636,13.6912407 33.4961566,13.7847305 C33.4980836,13.8915834 33.4980836,14.1052788 33.5,14.2121212 C31.9720219,14.0919156 28.9121265,14.2064002 28.9121265,14.2064002 L28.9063455,13.7737633 C28.9063455,13.7737633 30.0100627,13.4660927 30.0802228,13.1512654 C30.3323306,11.7927772 30.2726679,10.3884783 30.2592002,9.00898465 C30.2091651,8.18472958 30.2303334,7.15438962 29.4355378,6.65258286 C28.5830022,6.1660393 27.5380215,6.39118735 26.6662904,6.70600723 C26.6720608,8.49188619 26.6662904,10.2796651 26.6662904,12.0656497 C26.6913085,12.5426511 26.656666,13.0864369 26.9703529,13.4832485 C27.2340016,13.6645069 27.5650103,13.6969438 27.8671458,13.780902 C27.8690728,13.887755 27.8709891,14.1033503 27.8709891,14.2121138 C26.364091,14.1148051 24.8534666,14.0518397 23.3484848,14.2102033 C23.3484848,14.1033503 23.3523389,13.8915655 23.3523389,13.7866231 C23.8103597,13.6816828 24.4146414,13.5385802 24.501197,12.9890733 C24.7109639,11.6725958 24.5493083,10.3274075 24.5993434,8.99942457 C24.5800989,8.24194336 24.6647754,7.4748989 24.5300638,6.72693872 C24.4242178,6.21558982 23.7949266,6.24421623 23.3984529,6.14308433 C23.3984529,6.02478925 23.3965259,5.78819908 23.3965259,5.66989344 L23.3965568,5.66991138 Z" id="Path"></path>
                    <path d="M49.84705,5.58067751 C50.9395413,5.56531855 52.0319246,5.41940901 53.0698076,5.07575758 L53.0990694,5.86673153 C54.1485971,5.03544045 55.7307399,4.8242535 56.8484848,5.64786563 L55.6829306,7.39862292 C55.1386599,6.57308839 54.0345347,6.37342516 53.1625274,6.79386606 C53.1625274,6.79386606 53.156678,10.4281425 53.1683768,12.2443248 C53.2132441,12.6494078 53.1488688,13.1754528 53.535127,13.4403499 C53.9077267,13.655371 54.3603179,13.6438579 54.7757948,13.7091237 C54.7757948,13.8339092 54.7738414,14.0873357 54.7738414,14.2121212 C53.0981413,14.1007712 51.4184481,14.0777343 49.742748,14.2082764 L49.7424242,13.7091343 C50.2825939,13.6184834 50.8449522,13.4345828 50.9268648,13.1178023 C51.1590044,12.3364297 51.0458593,11.5089409 51.0692783,10.7045102 C51.0458679,9.42394236 51.1160969,8.14146273 51.0380652,6.86291285 C51.0322158,6.24088634 50.3162741,6.18521132 49.8520058,6.09497573 C49.8527612,5.91865735 49.8488652,5.73760203 49.8481422,5.58046509 L49.84705,5.58067751 Z" id="Path"></path>
                </g>
                <g id="logomark">
                    <circle id="Oval" fill="#8C1515" cx="15.5" cy="1.5" r="1.5"></circle>
                    <circle id="Oval-Copy" fill="#8C1515" cx="15.5" cy="30.5" r="1.5"></circle>
                    <circle id="Oval" fill="#8C1515" transform="translate(29.500000, 16.500000) rotate(-270.000000) translate(-29.500000, -16.500000) " cx="29.5" cy="16.5" r="1.5"></circle>
                    <circle id="Oval-Copy" fill="#8C1515" transform="translate(1.500000, 16.500000) rotate(-270.000000) translate(-1.500000, -16.500000) " cx="1.5" cy="16.5" r="1.5"></circle>
                    <ellipse id="Oval" fill="#8C1515" transform="translate(22.246070, 3.746287) rotate(-330.000000) translate(-22.246070, -3.746287) " cx="22.2460702" cy="3.7462872" rx="1.29901727" ry="1.32007514"></ellipse>
                    <ellipse id="Oval-Copy" fill="#8C1515" transform="translate(8.394458, 28.169529) rotate(-330.000000) translate(-8.394458, -28.169529) " cx="8.39445819" cy="28.1695291" rx="1.29901727" ry="1.32007514"></ellipse>
                    <ellipse id="Oval" fill="#8C1515" transform="translate(27.316112, 23.008291) rotate(-240.000000) translate(-27.316112, -23.008291) " cx="27.3161121" cy="23.0082908" rx="1.31064717" ry="1.30836157"></ellipse>
                    <ellipse id="Oval-Copy" fill="#8C1515" transform="translate(3.324416, 8.907526) rotate(-240.000000) translate(-3.324416, -8.907526) " cx="3.3244163" cy="8.90752551" rx="1.31064717" ry="1.30836157"></ellipse>
                    <ellipse id="Oval" fill="#8C1515" transform="translate(27.316112, 8.907526) rotate(-300.000000) translate(-27.316112, -8.907526) " cx="27.3161121" cy="8.90752551" rx="1.31064717" ry="1.30836157"></ellipse>
                    <ellipse id="Oval-Copy" fill="#8C1515" transform="translate(3.324416, 23.008291) rotate(-300.000000) translate(-3.324416, -23.008291) " cx="3.3244163" cy="23.0082908" rx="1.31064717" ry="1.30836157"></ellipse>
                    <ellipse id="Oval" fill="#8C1515" transform="translate(22.246070, 28.169529) rotate(-210.000000) translate(-22.246070, -28.169529) " cx="22.2460702" cy="28.1695291" rx="1.29901727" ry="1.32007514"></ellipse>
                    <ellipse id="Oval-Copy" fill="#8C1515" transform="translate(8.394458, 3.746287) rotate(-210.000000) translate(-8.394458, -3.746287) " cx="8.39445819" cy="3.7462872" rx="1.29901727" ry="1.32007514"></ellipse>
                    <ellipse id="Oval" fill="#AB2222" transform="translate(16.616266, 4.811537) rotate(7.000000) translate(-16.616266, -4.811537) " cx="16.6162659" cy="4.81153651" rx="1.03398104" ry="1.05202222"></ellipse>
                    <ellipse id="Oval-Copy" fill="#AB2222" transform="translate(13.920366, 27.162815) rotate(7.000000) translate(-13.920366, -27.162815) " cx="13.9203659" cy="27.162815" rx="1.03398104" ry="1.05202222"></ellipse>
                    <ellipse id="Oval" fill="#AB2222" transform="translate(26.361685, 17.267751) rotate(-263.000000) translate(-26.361685, -17.267751) " cx="26.3616847" cy="17.2677507" rx="1.05202222" ry="1.03398104"></ellipse>
                    <ellipse id="Oval-Copy" fill="#AB2222" transform="translate(4.405342, 14.523359) rotate(-263.000000) translate(-4.405342, -14.523359) " cx="4.40534186" cy="14.5233588" rx="1.05202222" ry="1.03398104"></ellipse>
                    <ellipse id="Oval" fill="#AB2222" transform="translate(21.980284, 6.966280) rotate(-323.000000) translate(-21.980284, -6.966280) " cx="21.9802842" cy="6.96627979" rx="1.04047581" ry="1.04560069"></ellipse>
                    <ellipse id="Oval-Copy" fill="#AB2222" transform="translate(8.556348, 25.008072) rotate(-323.000000) translate(-8.556348, -25.008072) " cx="8.55634764" cy="25.0080717" rx="1.04047581" ry="1.04560069"></ellipse>
                    <ellipse id="Oval" fill="#AB2222" transform="translate(24.245015, 22.728253) rotate(-233.000000) translate(-24.245015, -22.728253) " cx="24.2450147" cy="22.7282533" rx="1.04560069" ry="1.04047581"></ellipse>
                    <ellipse id="Oval-Copy" fill="#AB2222" transform="translate(6.522012, 9.062856) rotate(-233.000000) translate(-6.522012, -9.062856) " cx="6.52201193" cy="9.06285625" rx="1.04560069" ry="1.04047581"></ellipse>
                    <ellipse id="Oval" fill="#AB2222" transform="translate(25.605562, 11.448169) rotate(-293.000000) translate(-25.605562, -11.448169) " cx="25.6055623" cy="11.4481688" rx="1.04947899" ry="1.03656312"></ellipse>
                    <ellipse id="Oval-Copy" fill="#AB2222" transform="translate(5.161464, 20.342941) rotate(-293.000000) translate(-5.161464, -20.342941) " cx="5.16146431" cy="20.3429407" rx="1.04947899" ry="1.03656312"></ellipse>
                    <ellipse id="Oval" fill="#AB2222" transform="translate(19.637119, 26.393092) rotate(-203.000000) translate(-19.637119, -26.393092) " cx="19.6371188" cy="26.3930919" rx="1.03656312" ry="1.04947899"></ellipse>
                    <ellipse id="Oval-Copy" fill="#AB2222" transform="translate(10.899513, 5.581260) rotate(-203.000000) translate(-10.899513, -5.581260) " cx="10.899513" cy="5.58125957" rx="1.03656312" ry="1.04947899"></ellipse>
                    <ellipse id="Oval" fill="#E14444" transform="translate(17.664301, 7.313760) rotate(16.000000) translate(-17.664301, -7.313760) " cx="17.6643006" cy="7.31376033" rx="1" ry="1"></ellipse>
                    <ellipse id="Oval-Copy" fill="#E14444" transform="translate(12.873335, 24.653317) rotate(16.000000) translate(-12.873335, -24.653317) " cx="12.8733355" cy="24.6533166" rx="1" ry="1"></ellipse>
                    <ellipse id="Oval" fill="#E14444" transform="translate(23.903674, 18.334637) rotate(-254.000000) translate(-23.903674, -18.334637) " cx="23.9036739" cy="18.3346368" rx="1" ry="1"></ellipse>
                    <ellipse id="Oval-Copy" fill="#E14444" transform="translate(6.870499, 13.457495) rotate(-254.000000) translate(-6.870499, -13.457495) " cx="6.87049868" cy="13.4574951" rx="1" ry="1"></ellipse>
                    <ellipse id="Oval" fill="#E14444" transform="translate(21.693668, 9.668089) rotate(-314.000000) translate(-21.693668, -9.668089) " cx="21.6936683" cy="9.66808946" rx="1" ry="1"></ellipse>
                    <ellipse id="Oval-Copy" fill="#E14444" transform="translate(8.843968, 22.298987) rotate(-314.000000) translate(-8.843968, -22.298987) " cx="8.8439678" cy="22.2989875" rx="1" ry="1"></ellipse>
                    <ellipse id="Oval" fill="#E14444" transform="translate(21.590945, 22.436482) rotate(-224.000000) translate(-21.590945, -22.436482) " cx="21.5909446" cy="22.436482" rx="1" ry="1"></ellipse>
                    <ellipse id="Oval-Copy" fill="#E14444" transform="translate(9.183228, 9.355650) rotate(-224.000000) translate(-9.183228, -9.355650) " cx="9.18322802" cy="9.35564992" rx="1" ry="1"></ellipse>
                    <ellipse id="Oval" fill="#E14444" transform="translate(24.002598, 13.662770) rotate(-284.000000) translate(-24.002598, -13.662770) " cx="24.0025978" cy="13.6627698" rx="1" ry="1"></ellipse>
                    <ellipse id="Oval-Copy" fill="#E14444" transform="translate(6.771575, 18.129362) rotate(-284.000000) translate(-6.771575, -18.129362) " cx="6.77157477" cy="18.1293621" rx="1" ry="1"></ellipse>
                    <ellipse id="Oval" fill="#E14444" transform="translate(17.462653, 24.754020) rotate(-194.000000) translate(-17.462653, -24.754020) " cx="17.462653" cy="24.7540199" rx="1" ry="1"></ellipse>
                    <ellipse id="Oval-Copy" fill="#E14444" transform="translate(13.074983, 7.213057) rotate(-194.000000) translate(-13.074983, -7.213057) " cx="13.0749831" cy="7.21305704" rx="1" ry="1"></ellipse>
                </g>
            </g>
        </g>
    </g>
</svg>