
<svg width="144px" height="31px" viewBox="0 0 144 31" version="1.1" xmlns="http://www.w3.org/2000/svg" xmlns:xlink="http://www.w3.org/1999/xlink">
    <g id="Page-1" stroke="none" stroke-width="1" fill="none" fill-rule="evenodd">
        <g id="HP-V6-Copy" transform="translate(-222.000000, -262.000000)" fill="#FFFFFF" fill-rule="nonzero">
            <g id="Stanford_wordmark_(2012)-Copy" transform="translate(222.000000, 262.000000)">
                <path d="M78.4275515,4.08619342 C79.5962303,2.09534883 81.9499427,1.04578871 84.2301706,1.02584437 C86.3109856,0.893655459 88.6646981,1.2341409 90.122449,2.85245836 C89.3813411,3.81382014 88.6727854,4.79523708 87.9316775,5.7565767 C87.1050555,4.8232478 86.4250195,3.50929214 85.0893899,3.24491876 C83.7741025,2.84434765 82.1209486,3.5173142 81.7787567,4.90329111 C81.2249645,7.10242116 81.558864,9.4016275 81.4774296,11.6449232 L85.7490836,11.6449232 L85.7490836,14.1486034 L81.4733746,14.1486034 C81.4733746,17.9220736 81.4733746,21.6953222 81.4692972,25.4687925 C81.4530098,26.5383191 81.6281066,27.5958348 81.8317187,28.6452619 C82.8090043,29.0898879 83.8636717,29.3182285 84.9427588,29.3382615 C84.9386813,29.5986238 84.9346038,30.1233817 84.9305489,30.3877551 C81.4367675,30.1634255 77.938706,30.0953267 74.4489796,30.3837441 C74.4489796,30.16343 74.457112,29.7228106 74.457112,29.5024921 C75.5606414,29.3102175 76.9288232,28.8055037 76.9736528,27.4996365 C77.4012237,23.0653437 77.1121042,18.5989182 77.1976162,14.1486699 C76.3465518,14.1486699 75.4954875,14.1486699 74.6443556,14.1446633 C74.6484331,13.7681362 74.6565655,13.3875759 74.660643,13.0110488 C75.5239171,12.6184776 76.3668491,12.1818737 77.1974585,11.7332146 C77.1974585,9.16150201 77.0427197,6.38148181 78.4272316,4.08633082 L78.4275515,4.08619342 Z" id="Path"></path>
                <path d="M141.637046,0 C139.380149,0.524275051 137.094906,0.966499707 134.776818,1.06889842 C134.752418,1.28188728 134.707518,1.70776304 134.687181,1.92076323 C135.549288,2.18291209 136.956451,2.11360998 137.017418,3.32602068 C137.363084,5.78368036 137.11912,8.27759539 137.188253,10.75157 C133.8659,10.1781463 130.152999,10.2150134 127.326928,12.2998548 C124.232244,14.4829935 123.170837,18.5545828 123.479945,22.1837435 C123.654805,24.9976121 125.053586,27.8853509 127.586993,29.2573893 C130.604288,30.9285345 134.463644,30.5844938 137.289939,28.65938 C137.310277,29.2287249 137.322425,29.798002 137.326497,30.3673469 C139.514305,29.8062047 141.751202,29.4907832 144,29.3596974 L144,28.3764749 C140.812853,27.8297895 141.69406,26.3441358 141.47044,23.8180442 C141.474512,15.8801614 141.352398,7.93797338 141.637059,0.000543830281 L141.637046,0 Z M133.368957,12.8008584 C134.714726,12.7865036 136.083442,13.2195624 137.188269,13.9752599 C137.192341,18.2472734 137.180057,22.5192868 137.196345,26.7913003 C134.829663,27.8849203 131.629243,27.807062 129.774818,25.7836508 C128.184799,24.0715371 127.916387,21.5648873 128.058726,19.3283853 C128.217325,17.2926926 128.640565,14.9661867 130.405385,13.7045004 C131.289607,13.0934391 132.322308,12.8117577 133.368912,12.8005865 L133.368957,12.8008584 Z" id="Shape"></path>
                <path d="M7.35243505,2.99965048 C9.98992899,2.8370211 12.6353939,3.01184813 15.2449895,3.38589076 C15.0888987,5.27239968 15.1049092,7.17114449 15.2489971,9.05758593 C14.9968499,9.05758593 14.4925554,9.06165256 14.2404081,9.06165256 C14.0402934,7.88259855 13.8321634,6.45140421 12.5954506,5.92688037 C10.7624012,5.14218641 8.61706822,5.06494735 6.71600014,5.62602142 C4.23061822,6.37412017 3.8223292,10.0900972 5.67140907,11.7124773 C7.98475163,13.7697489 10.8184192,15.1155844 13.1877797,17.1117889 C16.8978073,20.1122812 16.4135729,27.0973103 12.0110925,29.1992294 C8.30505039,30.9393575 3.95446959,30.5002599 0.12819921,29.4065827 C0.152112016,27.5374605 0.0841376509,25.6683382 0,23.8014652 C0.276148627,23.7973941 0.832475631,23.7852032 1.11263187,23.781132 C1.30874566,24.9561374 1.48883787,26.3994777 2.66151745,27.0051992 C4.75871483,28.2005378 7.46422741,28.29811 9.64162125,27.269463 C12.3592674,25.7448125 11.8588698,21.3375302 9.3174256,19.8534786 C7.11213349,18.128308 4.57870454,16.8529864 2.54146631,14.9051405 C0.284141704,12.7746561 0.00405189213,9.04225958 1.45697627,6.37915398 C2.6455313,4.25676678 5.04301152,3.19579811 7.35236862,3.00056367 L7.35243505,2.99965048 Z" id="Path"></path>
                <path d="M23.7804679,6.85714286 C23.9980869,6.86933323 24.4374968,6.88964977 24.6551251,6.90184015 C24.6509346,8.31992937 24.6509346,9.73397237 24.6509346,11.152174 L31.3469388,11.152174 L31.3469388,13.5902489 L24.6509346,13.5902489 C24.6760429,17.0034639 24.5965298,20.4207251 24.6885982,23.8379864 C24.7806688,25.1382405 24.8183324,26.7595851 26.0696346,27.5560169 C27.6473698,28.4661926 29.5347855,27.8973384 31.1125902,27.3000258 C31.5980401,28.454009 30.363486,29.1000786 29.5055677,29.5796236 C27.4925991,30.5263727 25.0360856,30.6279554 22.9561153,29.8396834 C21.1775138,29.1936138 20.3195723,27.3042743 20.2274276,25.5731647 C20.0139968,21.5829132 20.2274276,17.584794 20.2609076,13.5904962 L17.6452014,13.5904962 C17.6410109,13.3223214 17.6368436,13.0581929 17.6326531,12.7940869 C20.4743222,11.75387 22.3908398,9.37682564 23.7804193,6.85760143 L23.7804679,6.85714286 Z" id="Path"></path>
                <path d="M40.8427247,10.7759639 C37.855548,10.746121 34.842928,12.1884732 33.8831898,15.1043376 C34.1442239,15.2493387 34.674567,15.5351918 34.93975,15.6802063 C36.0874475,13.7106124 38.7681589,12.6997004 40.8810959,13.8356395 C42.538438,14.5686888 42.6795908,16.5380598 42.6464458,18.0808995 C40.0402304,18.8945223 37.342786,19.5350548 34.881666,20.7273908 C31.9316227,22.2418425 31.5504322,26.5353218 33.6635755,28.8593855 C36.1538063,31.0786992 40.3095393,30.7200626 42.7706594,28.6215868 C43.5206168,30.0635313 45.2938977,30.615424 46.8392894,30.1925023 C48.1858799,29.9387493 49.0766233,28.8472638 49.9591837,27.9248133 C49.8058754,27.7556469 49.4953828,27.4131628 49.3420814,27.2399833 C48.7868681,27.3769292 48.1610555,27.803864 47.6182888,27.3889974 C46.913923,26.917745 47.0007739,25.9712517 46.9510564,25.2422132 C47.0007877,22.1166483 47.1789547,18.9832846 47.0090762,15.8537089 C46.9262091,14.2345295 46.1804739,12.5788513 44.7054293,11.7289972 C43.5530558,11.1072043 42.2005286,10.7896342 40.8426376,10.7760642 L40.8427247,10.7759639 Z M42.6005563,20.5216566 C42.6171288,22.6281986 42.6007396,24.7346069 42.6173809,26.8411936 C41.2293477,27.4413279 39.5802346,27.9971868 38.1175907,27.3084351 C36.3276686,26.3820406 36.4023938,23.6111015 37.8815643,22.4470642 C39.3027425,21.4965155 40.9888516,21.0493505 42.6007167,20.5217234 L42.6005563,20.5216566 Z" id="Shape"></path>
                <path d="M96.5173451,10.7778703 C94.4124672,10.8019924 92.239578,11.3286574 90.593875,12.7075932 C88.1454278,14.7016134 87.0832777,17.9981733 87.1911057,21.0936119 C87.1791297,23.7429052 87.9978935,26.5692332 90.070865,28.3302393 C92.5193121,30.4770299 96.0778576,30.6899608 99.1253247,30.0507454 C102.3405,29.3391593 104.756908,26.5049358 105.439892,23.3289865 C106.174802,20.0324934 105.867205,16.2013376 103.614572,13.5400344 C101.881148,11.4977744 99.1054605,10.7257163 96.5173672,10.7779815 L96.5173451,10.7778703 Z M96.5453119,13.0279459 C97.6764676,13.0500886 98.7957798,13.5176827 99.5207464,14.4242294 C100.83479,16.0443639 101.186336,18.2233587 101.28221,20.2574787 C101.298185,22.4726144 101.018562,24.8643845 99.632618,26.6734302 C98.2706485,28.446335 95.3351855,28.6433639 93.7654924,27.0473382 C92.5632764,25.9257032 92.1157901,24.2574846 91.8441872,22.6895264 C91.5606084,20.6070555 91.6326565,18.4400261 92.2836969,16.4339292 C92.7390272,15.0911788 93.6256254,13.7323706 95.0315436,13.2739931 C95.5145822,13.0993648 96.0312949,13.0175374 96.5454666,13.0276123 L96.5453119,13.0279459 Z" id="Shape"></path>
                <path d="M51.0408291,12.0496018 C53.3247339,12.0127793 55.6411851,11.7754702 57.7492485,10.8303262 C57.8227877,11.3744925 57.8799837,11.9186588 57.9249249,12.4710189 C60.3476043,10.8835183 63.4770398,10.2656979 66.2511761,11.247669 C68.236738,11.9145845 69.6258404,13.8622294 69.8014558,15.9242713 C70.2100047,19.848036 69.6176088,23.8249928 70.1405495,27.7406089 C70.1977477,28.9721526 71.5214474,29.2503812 72.4816367,29.4508587 C72.4857276,29.6799921 72.4857276,30.1382362 72.4897959,30.3673469 C69.2459957,30.1095804 62.7500326,30.3550788 62.7500326,30.3550788 L62.7377598,29.427341 C62.7377598,29.427341 65.0808811,28.7675782 65.2298265,28.0924688 C65.7650355,25.1793537 65.6383754,22.1680029 65.6097842,19.2098442 C65.5035629,17.442328 65.5485019,15.2328875 63.8612014,14.156823 C62.0513227,13.1134887 59.8328951,13.5962917 57.9822655,14.2713852 C57.9945157,18.1009886 57.9822655,21.9346662 57.9822655,25.764496 C58.0353773,26.7873683 57.9618336,27.9534519 58.6277709,28.8043667 C59.1874801,29.1930537 59.8901905,29.2626108 60.531605,29.442649 C60.5356959,29.6717824 60.5397642,30.1341008 60.5397642,30.3673311 C57.3407154,30.1586642 54.133756,30.0236424 50.9387755,30.3632342 C50.9387755,30.1341008 50.9469573,29.6799536 50.9469573,29.4549172 C51.9193063,29.2298852 53.2021579,28.923019 53.38591,27.7446673 C53.8312319,24.9216392 53.4880472,22.037044 53.5942685,19.1893438 C53.5534137,17.5650161 53.7331765,15.9201812 53.4471923,14.3162702 C53.2224882,13.2197438 51.8865429,13.2811297 51.0448545,13.0642645 C51.0448545,12.8105949 51.0407636,12.3032556 51.0407636,12.0495633 L51.0408291,12.0496018 Z" id="Path"></path>
                <path d="M107.971447,11.8582505 C110.230495,11.825315 112.48932,11.5124295 114.635449,10.7755102 L114.695957,12.4716591 C116.866165,10.689055 120.137712,10.2361899 122.44898,12.0023274 L120.038852,15.7566165 C118.913412,13.9863567 116.630307,13.5582028 114.827175,14.4597879 C114.827175,14.4597879 114.815079,22.2530581 114.83927,26.1476435 C114.932046,27.0162954 114.798932,28.1443359 115.597634,28.7123759 C116.368094,29.1734629 117.30396,29.1487745 118.163081,29.288729 C118.163081,29.5563166 118.159042,30.0997593 118.159042,30.3673469 C114.694037,30.1285701 111.220776,30.0791704 107.755772,30.3591023 L107.755102,29.2887518 C108.872062,29.0943619 110.034904,28.7000089 110.204282,28.0207112 C110.6843,26.3451513 110.450339,24.5707008 110.498764,22.8456956 C110.450356,20.0996713 110.595576,17.3495475 110.434222,14.6078505 C110.422127,13.2739892 108.941706,13.1546008 107.981694,12.9611014 C107.983256,12.5830078 107.9752,12.1947563 107.973705,11.857795 L107.971447,11.8582505 Z" id="Path"></path>
            </g>
        </g>
    </g>
</svg>