<svg width="511" height="434" viewBox="0 0 511 434" fill="none" xmlns="http://www.w3.org/2000/svg">
<path d="M217.782 101.088C188.606 145.356 236.898 213.267 271.045 225.247" stroke="#DED8C7" stroke-width="0.636458"/>
<path d="M113.652 132.277C126.731 240.935 223.819 242.947 271.106 223.328" stroke="#DED8C7" stroke-width="0.636458"/>
<path d="M375.236 143.344C319.901 136.301 279.657 167.993 271.928 226.13" stroke="#DED8C7" stroke-width="0.636458"/>
<path d="M271.045 224.363C304.611 205.813 386.76 189.03 435.343 234.521" stroke="#DED8C7" stroke-width="0.636458"/>
<path d="M272.812 224.363C333.986 229.365 361.151 290.233 340.023 339.029" stroke="#DED8C7" stroke-width="0.636458"/>
<path d="M169.993 359.151C224.322 356.636 284.185 289.73 271.045 225.247" stroke="#DED8C7" stroke-width="0.636458"/>
<path d="M95.0391 266.087C158.926 302.81 256.014 275.645 270.602 223.328" stroke="#DED8C7" stroke-width="0.636458"/>
<g filter="url(#filter0_d)">
<path d="M270.602 255.523C288.939 255.523 303.803 240.658 303.803 222.322C303.803 203.986 288.939 189.121 270.602 189.121C252.266 189.121 237.401 203.986 237.401 222.322C237.401 240.658 252.266 255.523 270.602 255.523Z" fill="#00505C" stroke="white" stroke-width="0.417951"/>
</g>
<path d="M253.499 49.7772C235.389 56.8198 219.292 73.4204 219.292 102.094" stroke="#DED8C7" stroke-width="0.636458"/>
<path d="M217.783 101.088C211.243 70.4022 208.728 39.2133 232.371 11.5458" stroke="#DED8C7" stroke-width="0.636458"/>
<path d="M112.143 131.774C92.5241 94.5485 97.0515 59.8383 115.708 25.9493" stroke="#DED8C7" stroke-width="0.636458"/>
<path d="M377.427 140.475C401.898 114.167 433.59 103.1 474.336 119.198" stroke="#DED8C7" stroke-width="0.636458"/>
<path d="M375.236 143.344C370.709 119.198 372.721 92.5363 388.818 74.4266" stroke="#DED8C7" stroke-width="0.636458"/>
<path d="M192.63 33.1768C184.079 54.8078 196.655 85.4936 217.28 101.088" stroke="#DED8C7" stroke-width="0.636458"/>
<path d="M71.8991 61.3472C71.8991 90.0208 85.4814 114.67 111.64 131.774" stroke="#DED8C7" stroke-width="0.636458"/>
<path d="M452.705 93.5422C414.474 89.0148 389.824 104.609 375.739 144.35" stroke="#DED8C7" stroke-width="0.636458"/>
<path d="M364.618 82.6131C355.878 101.624 361.178 132.961 374.733 143.847" stroke="#DED8C7" stroke-width="0.636458"/>
<path d="M169.49 68.39C177.036 93.0392 195.649 105.615 217.782 101.088" stroke="#DED8C7" stroke-width="0.636458"/>
<path d="M56.3046 104.106C61.8381 126.24 85.4813 138.313 113.652 131.271" stroke="#DED8C7" stroke-width="0.636458"/>
<path d="M423.529 72.4142C401.898 81.469 378.462 97.5665 378.462 141.357" stroke="#DED8C7" stroke-width="0.636458"/>
<path d="M343.298 103.95C346.563 126.24 351.168 133.806 373.224 142.841" stroke="#DED8C7" stroke-width="0.636458"/>
<path d="M15.9933 229.062C23.0721 242.595 48.3478 268.662 92.8196 264.665" stroke="#DED8C7" stroke-width="0.636458"/>
<path d="M13.8073 191.273C22.3436 210.636 50.3467 252.422 94.0689 264.664" stroke="#DED8C7" stroke-width="0.636458"/>
<path d="M45.2378 278.16C57.1053 288.57 82.9663 282.185 93.1323 264.977" stroke="#DED8C7" stroke-width="0.636458"/>
<path d="M109.628 367.703C124.719 380.279 149.871 376.757 168.484 360.66" stroke="#DED8C7" stroke-width="0.636458"/>
<path d="M435.037 336.669C448.492 316.898 467.824 269.105 437.512 236.101" stroke="#DED8C7" stroke-width="0.636458"/>
<path d="M281.308 419.14C302.846 408.745 343.484 377.021 333.736 333.283" stroke="#DED8C7" stroke-width="0.636458"/>
<path d="M285.694 366.697C309.544 368.463 329.459 357.139 338.514 337.52" stroke="#DED8C7" stroke-width="0.636458"/>
<path d="M466.354 315.992C472.619 295.129 475.654 250.065 437.673 236.704" stroke="#DED8C7" stroke-width="0.636458"/>
<path d="M318.769 416.891C334.625 401.957 359.786 364.447 333.574 333.886" stroke="#DED8C7" stroke-width="0.636458"/>
<path d="M497.908 291.371C497.83 276.196 485.684 243.82 437.731 235.718" stroke="#DED8C7" stroke-width="0.636458"/>
<path d="M358.406 411.346C365.926 398.165 371.595 364.055 334.118 333.062" stroke="#DED8C7" stroke-width="0.636458"/>
<path d="M125.99 261.525V264.621H122.599V261.525H121.652V268.542H122.599V265.487H125.99V268.542H126.947V261.525H125.99ZM129.19 265.792C129.302 265.008 129.893 264.519 130.697 264.519C131.471 264.519 132.031 265.008 132.143 265.792H129.19ZM133.06 266.148C133.06 265.405 132.836 264.814 132.388 264.366C131.95 263.908 131.379 263.684 130.697 263.684C130.005 263.684 129.424 263.908 128.956 264.366C128.497 264.814 128.263 265.405 128.263 266.148C128.263 266.892 128.497 267.493 128.956 267.951C129.424 268.409 130.005 268.643 130.697 268.643C131.644 268.643 132.489 268.195 132.886 267.381L132.5 267.238C132.316 267.167 132.184 267.106 132.092 267.075C131.838 267.533 131.308 267.808 130.728 267.808C129.913 267.808 129.302 267.299 129.19 266.515H133.049C133.06 266.444 133.06 266.322 133.06 266.148ZM138.922 268.542V263.786H138.005V264.499C137.71 263.979 137.028 263.684 136.335 263.684C135.663 263.684 135.093 263.908 134.624 264.366C134.156 264.825 133.922 265.415 133.922 266.159C133.922 266.892 134.156 267.493 134.624 267.951C135.093 268.409 135.663 268.643 136.335 268.643C137.028 268.643 137.69 268.338 138.005 267.808V268.542H138.922ZM137.995 266.148C137.995 266.637 137.842 267.024 137.537 267.309C137.231 267.594 136.855 267.737 136.417 267.737C135.979 267.737 135.612 267.584 135.317 267.289C135.022 266.994 134.869 266.607 134.869 266.148C134.869 265.69 135.011 265.313 135.307 265.028C135.602 264.733 135.979 264.59 136.417 264.59C136.834 264.59 137.201 264.733 137.516 265.008C137.832 265.283 137.995 265.67 137.995 266.148ZM140.473 268.542H141.399V261.199H140.473V268.542ZM144.232 261.994H143.305V263.786H142.45V264.57H143.305V268.542H144.232V264.57H145.24V263.786H144.232V261.994ZM147.217 265.975C147.217 265.507 147.36 265.161 147.655 264.937C147.95 264.702 148.286 264.59 148.663 264.59C149.325 264.59 149.783 265.079 149.783 265.853V268.542H150.71V265.792C150.72 264.458 149.977 263.684 148.785 263.684C148.49 263.684 148.184 263.755 147.869 263.898C147.563 264.03 147.349 264.234 147.217 264.499V261.199H146.29V268.542H147.217V265.975Z" fill="#6C6349"/>
<path d="M142.201 128.56C141.54 127.939 140.745 127.634 139.829 127.634C138.841 127.634 137.996 127.98 137.313 128.682C136.631 129.385 136.285 130.23 136.285 131.238C136.285 132.236 136.631 133.082 137.313 133.784C137.996 134.487 138.841 134.833 139.829 134.833C141.896 134.833 143.149 133.611 143.149 131.208H140.073V132.033H142.069C142.039 132.613 141.825 133.071 141.407 133.418C140.99 133.754 140.47 133.927 139.829 133.927C139.106 133.927 138.485 133.662 137.986 133.143C137.487 132.623 137.232 131.982 137.232 131.238C137.232 130.495 137.487 129.854 137.986 129.334C138.485 128.805 139.106 128.54 139.829 128.54C140.47 128.54 141.03 128.754 141.519 129.192L142.201 128.56ZM144.868 131.982C144.98 131.198 145.571 130.709 146.375 130.709C147.149 130.709 147.709 131.198 147.821 131.982H144.868ZM148.738 132.338C148.738 131.595 148.514 131.004 148.066 130.556C147.628 130.098 147.057 129.874 146.375 129.874C145.683 129.874 145.102 130.098 144.634 130.556C144.176 131.004 143.941 131.595 143.941 132.338C143.941 133.082 144.176 133.682 144.634 134.141C145.102 134.599 145.683 134.833 146.375 134.833C147.322 134.833 148.167 134.385 148.565 133.57L148.178 133.428C147.994 133.357 147.862 133.295 147.77 133.265C147.516 133.723 146.986 133.998 146.406 133.998C145.591 133.998 144.98 133.489 144.868 132.705H148.728C148.738 132.634 148.738 132.511 148.738 132.338ZM150.842 132.165C150.842 131.228 151.443 130.78 152.186 130.78C152.838 130.78 153.235 131.259 153.235 132.043V134.731H154.162V131.982C154.162 130.638 153.51 129.874 152.329 129.874C151.749 129.874 151.117 130.159 150.842 130.689V129.976H149.916V134.731H150.842V132.165ZM160.338 134.731V127.389H159.411V130.689C159.096 130.159 158.454 129.874 157.731 129.874C157.059 129.874 156.489 130.098 156.03 130.556C155.572 131.014 155.338 131.605 155.338 132.348C155.338 133.082 155.572 133.682 156.03 134.141C156.499 134.599 157.069 134.833 157.741 134.833C158.434 134.833 159.096 134.528 159.411 133.998V134.731H160.338ZM157.823 130.78C158.24 130.78 158.607 130.923 158.922 131.198C159.238 131.473 159.401 131.86 159.401 132.338C159.401 132.817 159.248 133.204 158.933 133.499C158.627 133.784 158.261 133.927 157.823 133.927C157.385 133.927 157.018 133.774 156.723 133.479C156.428 133.183 156.285 132.796 156.285 132.338C156.285 131.88 156.428 131.503 156.723 131.218C157.018 130.923 157.385 130.78 157.823 130.78ZM162.5 131.982C162.612 131.198 163.203 130.709 164.007 130.709C164.781 130.709 165.341 131.198 165.453 131.982H162.5ZM166.37 132.338C166.37 131.595 166.146 131.004 165.698 130.556C165.26 130.098 164.689 129.874 164.007 129.874C163.315 129.874 162.734 130.098 162.266 130.556C161.807 131.004 161.573 131.595 161.573 132.338C161.573 133.082 161.807 133.682 162.266 134.141C162.734 134.599 163.315 134.833 164.007 134.833C164.954 134.833 165.799 134.385 166.196 133.57L165.81 133.428C165.626 133.357 165.494 133.295 165.402 133.265C165.148 133.723 164.618 133.998 164.038 133.998C163.223 133.998 162.612 133.489 162.5 132.705H166.359C166.37 132.634 166.37 132.511 166.37 132.338ZM168.474 133C168.474 131.656 168.912 130.76 169.778 130.76C170.022 130.76 170.256 130.811 170.48 130.923L170.623 130.057C170.45 129.935 170.175 129.874 169.798 129.874C169.146 129.874 168.708 130.261 168.474 131.045V129.976H167.547V134.731H168.474V133Z" fill="#6C6349"/>
<g filter="url(#filter1_d)">
<path d="M128.833 135.682C131.066 127.347 126.12 118.779 117.785 116.546C109.45 114.313 100.883 119.259 98.6495 127.594C96.4162 135.929 101.362 144.496 109.697 146.729C118.032 148.963 126.599 144.016 128.833 135.682Z" fill="black"/>
</g>
<g filter="url(#filter2_d)">
<path d="M110.708 270.04C112.904 261.845 108.04 253.42 99.8445 251.224C91.6486 249.028 83.2242 253.892 81.0281 262.088C78.832 270.284 83.6959 278.708 91.8918 280.904C100.088 283.1 108.512 278.236 110.708 270.04Z" fill="black"/>
</g>
<g filter="url(#filter3_d)">
<path d="M183.432 363.662C185.628 355.466 180.764 347.041 172.568 344.845C164.372 342.649 155.948 347.513 153.752 355.709C151.555 363.905 156.419 372.329 164.615 374.525C172.811 376.721 181.236 371.857 183.432 363.662Z" fill="black"/>
</g>
<g filter="url(#filter4_d)">
<path d="M353.12 342.764C355.316 334.568 350.452 326.144 342.256 323.948C334.06 321.752 325.636 326.615 323.44 334.811C321.244 343.007 326.108 351.432 334.304 353.628C342.5 355.824 350.924 350.96 353.12 342.764Z" fill="black"/>
</g>
<g filter="url(#filter5_d)">
<path d="M450.085 239.112C452.281 230.916 447.417 222.492 439.221 220.296C431.025 218.1 422.601 222.963 420.405 231.159C418.209 239.355 423.072 247.78 431.268 249.976C439.464 252.172 447.889 247.308 450.085 239.112Z" fill="black"/>
</g>
<g filter="url(#filter6_d)">
<path d="M389.9 148.835C392.096 140.639 387.232 132.214 379.036 130.018C370.84 127.822 362.416 132.686 360.22 140.882C358.024 149.078 362.887 157.502 371.083 159.698C379.279 161.894 387.704 157.03 389.9 148.835Z" fill="black"/>
</g>
<g filter="url(#filter7_d)">
<path d="M232.899 104.928C235.072 96.8183 230.26 88.4827 222.15 86.3098C214.041 84.1368 205.705 88.9494 203.532 97.0589C201.359 105.168 206.172 113.504 214.281 115.677C222.391 117.85 230.726 113.037 232.899 104.928Z" fill="black"/>
</g>
<path d="M218.088 117.293C226.869 117.293 233.988 110.175 233.988 101.393C233.988 92.6122 226.869 85.4937 218.088 85.4937C209.307 85.4937 202.188 92.6122 202.188 101.393C202.188 110.175 209.307 117.293 218.088 117.293Z" fill="#DA8210" stroke="white" stroke-width="0.417951"/>
<path d="M128.898 136.059C131.171 127.577 126.137 118.858 117.655 116.586C109.173 114.313 100.455 119.347 98.1818 127.829C95.9091 136.311 100.943 145.029 109.425 147.302C117.907 149.575 126.625 144.541 128.898 136.059Z" fill="#A86815" stroke="white" stroke-width="0.417951"/>
<path d="M111.258 261.827C108.985 253.345 100.267 248.311 91.7845 250.584C83.3025 252.856 78.2689 261.575 80.5416 270.057C82.8144 278.539 91.5328 283.572 100.015 281.3C108.497 279.027 113.53 270.309 111.258 261.827Z" fill="#F5CF9E" stroke="white" stroke-width="0.417951"/>
<path d="M359.139 144.209C359.139 152.99 366.258 160.109 375.039 160.109C383.82 160.109 390.939 152.99 390.939 144.209C390.939 135.428 383.82 128.309 375.039 128.309C366.258 128.309 359.139 135.428 359.139 144.209Z" fill="#D9D7D7" stroke="white" stroke-width="0.417951"/>
<g filter="url(#filter8_d)">
<path d="M256.346 54.0613C258.881 52.5977 259.749 49.3564 258.286 46.8214C256.822 44.2865 253.581 43.418 251.046 44.8815C248.511 46.3451 247.643 49.5865 249.106 52.1214C250.57 54.6563 253.811 55.5248 256.346 54.0613Z" fill="black"/>
</g>
<path d="M256.346 54.0613C258.881 52.5977 259.749 49.3564 258.286 46.8214C256.822 44.2865 253.581 43.418 251.046 44.8815C248.511 46.3451 247.643 49.5865 249.106 52.1214C250.57 54.6563 253.811 55.5248 256.346 54.0613Z" fill="#DA8210" stroke="white" stroke-width="0.417951"/>
<g filter="url(#filter9_d)">
<path d="M17.243 187.838C15.1732 185.769 11.8175 185.769 9.74774 187.838C7.67798 189.908 7.67798 193.264 9.74774 195.334C11.8175 197.403 15.1732 197.403 17.243 195.334C19.3127 193.264 19.3127 189.908 17.243 187.838Z" fill="black"/>
</g>
<path d="M17.243 187.838C15.1732 185.769 11.8175 185.769 9.74774 187.838C7.67798 189.908 7.67798 193.264 9.74774 195.334C11.8175 197.403 15.1732 197.403 17.243 195.334C19.3127 193.264 19.3127 189.908 17.243 187.838Z" fill="#F5CF9E" stroke="white" stroke-width="0.417951"/>
<g filter="url(#filter10_d)">
<path d="M234.212 15.8297C236.747 14.3662 237.615 11.1248 236.152 8.58987C234.688 6.05495 231.447 5.18642 228.912 6.64996C226.377 8.1135 225.509 11.3549 226.972 13.8898C228.436 16.4247 231.677 17.2933 234.212 15.8297Z" fill="black"/>
</g>
<path d="M234.212 15.8297C236.747 14.3662 237.615 11.1248 236.152 8.58987C234.688 6.05495 231.447 5.18642 228.912 6.64996C226.377 8.1135 225.509 11.3549 226.972 13.8898C228.436 16.4247 231.677 17.2933 234.212 15.8297Z" fill="#DA8210" stroke="white" stroke-width="0.417951"/>
<g filter="url(#filter11_d)">
<path d="M120.077 28.9813C121.54 26.4464 120.672 23.205 118.137 21.7414C115.602 20.2779 112.361 21.1464 110.897 23.6814C109.434 26.2163 110.302 29.4577 112.837 30.9212C115.372 32.3847 118.613 31.5162 120.077 28.9813Z" fill="black"/>
</g>
<path d="M120.077 28.9813C121.54 26.4464 120.672 23.205 118.137 21.7414C115.602 20.2779 112.361 21.1464 110.897 23.6814C109.434 26.2163 110.302 29.4577 112.837 30.9212C115.372 32.3847 118.613 31.5162 120.077 28.9813Z" fill="#A86815" stroke="white" stroke-width="0.417951"/>
<g filter="url(#filter12_d)">
<path d="M471.381 123.482C473.916 124.945 477.157 124.077 478.62 121.542C480.084 119.007 479.216 115.766 476.681 114.302C474.146 112.839 470.904 113.707 469.441 116.242C467.977 118.777 468.846 122.018 471.381 123.482Z" fill="black"/>
</g>
<path d="M471.381 123.482C473.916 124.945 477.157 124.077 478.62 121.542C480.084 119.007 479.216 115.766 476.681 114.302C474.146 112.839 470.904 113.707 469.441 116.242C467.977 118.777 468.846 122.018 471.381 123.482Z" fill="#D9D7D7" stroke="white" stroke-width="0.417951"/>
<g filter="url(#filter13_d)">
<path d="M392.169 79.2135C394.704 77.75 395.572 74.5086 394.109 71.9737C392.645 69.4387 389.404 68.5702 386.869 70.0337C384.334 71.4973 383.465 74.7387 384.929 77.2736C386.392 79.8085 389.634 80.677 392.169 79.2135Z" fill="black"/>
</g>
<path d="M392.169 79.2135C394.704 77.75 395.572 74.5086 394.109 71.9737C392.645 69.4387 389.404 68.5702 386.869 70.0337C384.334 71.4973 383.465 74.7387 384.929 77.2736C386.392 79.8085 389.634 80.677 392.169 79.2135Z" fill="#D9D7D7" stroke="white" stroke-width="0.417951"/>
<g filter="url(#filter14_d)">
<path d="M19.7409 225.315C17.6712 223.245 14.3154 223.245 12.2457 225.315C10.1759 227.385 10.1759 230.74 12.2457 232.81C14.3154 234.88 17.6712 234.88 19.7409 232.81C21.8107 230.74 21.8107 227.385 19.7409 225.315Z" fill="black"/>
</g>
<path d="M19.7409 225.315C17.6712 223.245 14.3154 223.245 12.2457 225.315C10.1759 227.385 10.1759 230.74 12.2457 232.81C14.3154 234.88 17.6712 234.88 19.7409 232.81C21.8107 230.74 21.8107 227.385 19.7409 225.315Z" fill="#F5CF9E" stroke="white" stroke-width="0.417951"/>
<g filter="url(#filter15_d)">
<path d="M112.4 362.754C109.848 361.32 106.617 362.225 105.182 364.777C103.748 367.328 104.653 370.56 107.205 371.994C109.756 373.429 112.988 372.523 114.422 369.972C115.857 367.42 114.951 364.189 112.4 362.754Z" fill="black"/>
</g>
<path d="M112.4 362.754C109.848 361.32 106.617 362.225 105.182 364.777C103.748 367.328 104.653 370.56 107.205 371.994C109.756 373.429 112.988 372.523 114.422 369.972C115.857 367.42 114.951 364.189 112.4 362.754Z" fill="#36BFD4" stroke="white" stroke-width="0.417951"/>
<g filter="url(#filter16_d)">
<path d="M194.974 37.9638C197.509 36.5002 198.378 33.2588 196.914 30.7239C195.451 28.189 192.209 27.3205 189.674 28.784C187.14 30.2475 186.271 33.4889 187.735 36.0238C189.198 38.5588 192.439 39.4273 194.974 37.9638Z" fill="black"/>
</g>
<path d="M194.974 37.9638C197.509 36.5002 198.378 33.2588 196.914 30.7239C195.451 28.189 192.209 27.3205 189.674 28.784C187.14 30.2475 186.271 33.4889 187.735 36.0238C189.198 38.5588 192.439 39.4273 194.974 37.9638Z" fill="#DA8210" stroke="white" stroke-width="0.417951"/>
<g filter="url(#filter17_d)">
<path d="M76.9699 62.1674C77.7275 59.3401 76.0496 56.4339 73.2223 55.6764C70.395 54.9188 67.4888 56.5966 66.7312 59.424C65.9736 62.2513 67.6515 65.1575 70.4788 65.9151C73.3062 66.6726 76.2123 64.9948 76.9699 62.1674Z" fill="black"/>
</g>
<path d="M76.9699 62.1674C77.7275 59.3401 76.0496 56.4339 73.2223 55.6764C70.395 54.9188 67.4888 56.5966 66.7312 59.424C65.9736 62.2513 67.6515 65.1575 70.4788 65.9151C73.3062 66.6726 76.2123 64.9948 76.9699 62.1674Z" fill="#A86815" stroke="white" stroke-width="0.417951"/>
<g filter="url(#filter18_d)">
<path d="M449.246 98.3295C451.781 99.793 455.023 98.9245 456.486 96.3896C457.95 93.8547 457.081 90.6133 454.546 89.1497C452.011 87.6862 448.77 88.5547 447.306 91.0896C445.843 93.6246 446.711 96.866 449.246 98.3295Z" fill="black"/>
</g>
<path d="M449.246 98.3295C451.781 99.793 455.023 98.9245 456.486 96.3896C457.95 93.8547 457.081 90.6133 454.546 89.1497C452.011 87.6862 448.77 88.5547 447.306 91.0896C445.843 93.6246 446.711 96.866 449.246 98.3295Z" fill="#D9D7D7" stroke="white" stroke-width="0.417951"/>
<g filter="url(#filter19_d)">
<path d="M367.232 87.141C369.767 85.6775 370.635 82.4361 369.172 79.9011C367.708 77.3662 364.467 76.4977 361.932 77.9612C359.397 79.4248 358.529 82.6662 359.992 85.2011C361.456 87.736 364.697 88.6045 367.232 87.141Z" fill="black"/>
</g>
<path d="M367.232 87.141C369.767 85.6775 370.635 82.4361 369.172 79.9011C367.708 77.3662 364.467 76.4977 361.932 77.9612C359.397 79.4248 358.529 82.6662 359.992 85.2011C361.456 87.736 364.697 88.6045 367.232 87.141Z" fill="#D9D7D7" stroke="white" stroke-width="0.417951"/>
<g filter="url(#filter20_d)">
<path d="M48.4318 274.362C46.3621 272.292 43.0063 272.292 40.9366 274.362C38.8668 276.432 38.8668 279.788 40.9366 281.857C43.0063 283.927 46.3621 283.927 48.4318 281.857C50.5016 279.788 50.5016 276.432 48.4318 274.362Z" fill="black"/>
</g>
<path d="M48.4318 274.362C46.3621 272.292 43.0063 272.292 40.9366 274.362C38.8668 276.432 38.8668 279.788 40.9366 281.857C43.0063 283.927 46.3621 283.927 48.4318 281.857C50.5016 279.788 50.5016 276.432 48.4318 274.362Z" fill="#F5CF9E" stroke="white" stroke-width="0.417951"/>
<g filter="url(#filter21_d)">
<path d="M171.834 73.177C174.369 71.7135 175.238 68.4721 173.774 65.9372C172.311 63.4022 169.069 62.5337 166.534 63.9972C163.999 65.4608 163.131 68.7022 164.594 71.2371C166.058 73.772 169.299 74.6405 171.834 73.177Z" fill="black"/>
</g>
<path d="M171.834 73.177C174.369 71.7135 175.238 68.4721 173.774 65.9372C172.311 63.4022 169.069 62.5337 166.534 63.9972C163.999 65.4608 163.131 68.7022 164.594 71.2371C166.058 73.772 169.299 74.6405 171.834 73.177Z" fill="#DA8210" stroke="white" stroke-width="0.417951"/>
<g filter="url(#filter22_d)">
<path d="M61.8785 105.429C62.6361 102.602 60.9582 99.6959 58.1309 98.9383C55.3035 98.1807 52.3974 99.8586 51.6398 102.686C50.8822 105.513 52.5601 108.419 55.3874 109.177C58.2148 109.935 61.1209 108.257 61.8785 105.429Z" fill="black"/>
</g>
<path d="M61.8785 105.429C62.6361 102.602 60.9582 99.6959 58.1309 98.9383C55.3035 98.1807 52.3974 99.8586 51.6398 102.686C50.8822 105.513 52.5601 108.419 55.3874 109.177C58.2148 109.935 61.1209 108.257 61.8785 105.429Z" fill="#A86815" stroke="white" stroke-width="0.417951"/>
<g filter="url(#filter23_d)">
<path d="M421.076 77.2013C423.611 78.6649 426.852 77.7963 428.316 75.2614C429.779 72.7265 428.911 69.4851 426.376 68.0216C423.841 66.558 420.599 67.4265 419.136 69.9615C417.672 72.4964 418.541 75.7378 421.076 77.2013Z" fill="black"/>
</g>
<path d="M421.076 77.2013C423.611 78.6649 426.852 77.7963 428.316 75.2614C429.779 72.7265 428.911 69.4851 426.376 68.0216C423.841 66.558 420.599 67.4265 419.136 69.9615C417.672 72.4964 418.541 75.7378 421.076 77.2013Z" fill="#D9D7D7" stroke="white" stroke-width="0.417951"/>
<g filter="url(#filter24_d)">
<path d="M347.826 106.565C349.289 104.03 348.421 100.788 345.886 99.3247C343.351 97.8612 340.11 98.7297 338.646 101.265C337.183 103.8 338.051 107.041 340.586 108.504C343.121 109.968 346.362 109.099 347.826 106.565Z" fill="black"/>
</g>
<path d="M347.826 106.565C349.289 104.03 348.421 100.788 345.886 99.3247C343.351 97.8612 340.11 98.7297 338.646 101.265C337.183 103.8 338.051 107.041 340.586 108.504C343.121 109.968 346.362 109.099 347.826 106.565Z" fill="#D9D7D7" stroke="white" stroke-width="0.417951"/>
<path d="M246.108 104.548C247.086 104.548 247.859 104.223 248.42 103.571C248.98 102.909 249.265 102.074 249.265 101.056C249.265 100.027 248.98 99.192 248.409 98.5301C247.849 97.8682 247.075 97.5321 246.108 97.5321H243.389V104.548H246.108ZM244.336 98.4181H246.108C246.811 98.4181 247.36 98.6625 247.737 99.1615C248.124 99.6503 248.318 100.282 248.318 101.056C248.318 101.819 248.124 102.451 247.737 102.939C247.36 103.418 246.811 103.663 246.108 103.663H244.336V98.4181ZM251.186 101.799C251.298 101.015 251.888 100.526 252.693 100.526C253.467 100.526 254.027 101.015 254.139 101.799H251.186ZM255.055 102.155C255.055 101.412 254.831 100.821 254.383 100.373C253.945 99.915 253.375 99.691 252.693 99.691C252 99.691 251.42 99.915 250.951 100.373C250.493 100.821 250.259 101.412 250.259 102.155C250.259 102.899 250.493 103.5 250.951 103.958C251.42 104.416 252 104.65 252.693 104.65C253.64 104.65 254.485 104.202 254.882 103.388L254.495 103.245C254.312 103.174 254.18 103.113 254.088 103.082C253.833 103.54 253.304 103.815 252.723 103.815C251.909 103.815 251.298 103.306 251.186 102.522H255.045C255.055 102.451 255.055 102.328 255.055 102.155ZM261.702 100.597C262.384 100.597 262.791 101.076 262.791 101.86V104.548H263.718V101.799C263.718 100.455 263.066 99.691 261.885 99.691C261.121 99.691 260.571 100.017 260.235 100.669C260.011 100.149 259.594 99.8336 258.993 99.7419C258.83 99.7114 258.657 99.7012 258.474 99.7114C257.995 99.7521 257.394 100.027 257.16 100.506V99.7928H256.233V104.548H257.16V101.982C257.16 101.056 257.751 100.597 258.484 100.597C259.105 100.597 259.512 101.076 259.512 101.85V104.548H260.439V101.982C260.439 101.168 260.928 100.587 261.702 100.597ZM264.888 102.155C264.888 102.899 265.132 103.5 265.611 103.958C266.089 104.416 266.68 104.65 267.372 104.65C268.065 104.65 268.655 104.416 269.134 103.958C269.623 103.489 269.867 102.889 269.867 102.155C269.867 101.422 269.623 100.832 269.144 100.373C268.666 99.915 268.075 99.691 267.372 99.691C266.67 99.691 266.079 99.915 265.6 100.373C265.122 100.832 264.888 101.422 264.888 102.155ZM268.941 102.155C268.941 102.634 268.788 103.021 268.482 103.316C268.187 103.612 267.81 103.754 267.372 103.754C266.934 103.754 266.558 103.612 266.252 103.316C265.957 103.021 265.804 102.634 265.804 102.155C265.804 101.687 265.957 101.31 266.252 101.025C266.558 100.74 266.934 100.597 267.372 100.597C267.81 100.597 268.187 100.74 268.482 101.025C268.788 101.31 268.941 101.687 268.941 102.155ZM273.3 99.691C272.597 99.691 272.007 99.915 271.518 100.373C271.029 100.832 270.785 101.422 270.785 102.155C270.785 102.889 271.029 103.489 271.518 103.958C272.007 104.416 272.597 104.65 273.3 104.65C274.054 104.65 274.665 104.396 275.143 103.876L274.43 103.286C274.135 103.601 273.758 103.754 273.3 103.754C272.862 103.754 272.485 103.601 272.17 103.306C271.854 103.011 271.701 102.624 271.701 102.155C271.701 101.697 271.854 101.32 272.17 101.035C272.485 100.74 272.862 100.597 273.3 100.597C273.758 100.597 274.135 100.75 274.43 101.045L275.133 100.455C274.665 99.9456 274.054 99.691 273.3 99.691ZM277.238 102.817C277.238 101.473 277.676 100.577 278.542 100.577C278.786 100.577 279.02 100.628 279.244 100.74L279.387 99.8743C279.214 99.7521 278.939 99.691 278.562 99.691C277.91 99.691 277.472 100.078 277.238 100.862V99.7928H276.311V104.548H277.238V102.817ZM284.894 104.548V99.7928H283.978V100.506C283.682 99.9863 283 99.691 282.308 99.691C281.635 99.691 281.065 99.915 280.597 100.373C280.128 100.832 279.894 101.422 279.894 102.166C279.894 102.899 280.128 103.5 280.597 103.958C281.065 104.416 281.635 104.65 282.308 104.65C283 104.65 283.662 104.345 283.978 103.815V104.548H284.894ZM283.967 102.155C283.967 102.644 283.815 103.031 283.509 103.316C283.204 103.601 282.827 103.744 282.389 103.744C281.951 103.744 281.585 103.591 281.289 103.296C280.994 103.001 280.841 102.614 280.841 102.155C280.841 101.697 280.984 101.32 281.279 101.035C281.574 100.74 281.951 100.597 282.389 100.597C282.807 100.597 283.173 100.74 283.489 101.015C283.804 101.29 283.967 101.677 283.967 102.155ZM288.645 99.691C287.942 99.691 287.351 99.915 286.863 100.373C286.374 100.832 286.129 101.422 286.129 102.155C286.129 102.889 286.374 103.489 286.863 103.958C287.351 104.416 287.942 104.65 288.645 104.65C289.398 104.65 290.009 104.396 290.488 103.876L289.775 103.286C289.48 103.601 289.103 103.754 288.645 103.754C288.207 103.754 287.83 103.601 287.514 103.306C287.199 103.011 287.046 102.624 287.046 102.155C287.046 101.697 287.199 101.32 287.514 101.035C287.83 100.74 288.207 100.597 288.645 100.597C289.103 100.597 289.48 100.75 289.775 101.045L290.478 100.455C290.009 99.9456 289.398 99.691 288.645 99.691ZM295.853 99.7928H294.865L293.439 103.235L292.013 99.7928H291.026L292.93 104.406L291.932 106.86H292.899L295.853 99.7928Z" fill="#6C6349"/>
<path d="M400.329 146.469H404.586V145.583H401.276V143.465H404.077V142.579H401.276V140.339H404.484V139.453H400.329V146.469ZM407.974 141.612C407.272 141.612 406.681 141.836 406.192 142.294C405.703 142.752 405.459 143.343 405.459 144.076C405.459 144.809 405.703 145.41 406.192 145.878C406.681 146.337 407.272 146.571 407.974 146.571C408.728 146.571 409.339 146.316 409.817 145.797L409.105 145.206C408.809 145.522 408.433 145.675 407.974 145.675C407.536 145.675 407.16 145.522 406.844 145.227C406.528 144.931 406.375 144.544 406.375 144.076C406.375 143.618 406.528 143.241 406.844 142.956C407.16 142.661 407.536 142.518 407.974 142.518C408.433 142.518 408.809 142.671 409.105 142.966L409.807 142.375C409.339 141.866 408.728 141.612 407.974 141.612ZM410.551 144.076C410.551 144.819 410.795 145.42 411.274 145.878C411.752 146.337 412.343 146.571 413.035 146.571C413.728 146.571 414.318 146.337 414.797 145.878C415.286 145.41 415.53 144.809 415.53 144.076C415.53 143.343 415.286 142.752 414.807 142.294C414.329 141.836 413.738 141.612 413.035 141.612C412.333 141.612 411.742 141.836 411.263 142.294C410.785 142.752 410.551 143.343 410.551 144.076ZM414.604 144.076C414.604 144.555 414.451 144.942 414.145 145.237C413.85 145.532 413.473 145.675 413.035 145.675C412.598 145.675 412.221 145.532 411.915 145.237C411.62 144.942 411.467 144.555 411.467 144.076C411.467 143.608 411.62 143.231 411.915 142.946C412.221 142.661 412.598 142.518 413.035 142.518C413.473 142.518 413.85 142.661 414.145 142.946C414.451 143.231 414.604 143.608 414.604 144.076ZM417.69 143.903C417.69 142.966 418.291 142.518 419.034 142.518C419.686 142.518 420.083 142.997 420.083 143.781V146.469H421.01V143.72C421.01 142.375 420.358 141.612 419.177 141.612C418.597 141.612 417.965 141.897 417.69 142.426V141.713H416.764V146.469H417.69V143.903ZM422.186 144.076C422.186 144.819 422.43 145.42 422.909 145.878C423.388 146.337 423.978 146.571 424.671 146.571C425.363 146.571 425.954 146.337 426.432 145.878C426.921 145.41 427.166 144.809 427.166 144.076C427.166 143.343 426.921 142.752 426.443 142.294C425.964 141.836 425.373 141.612 424.671 141.612C423.968 141.612 423.377 141.836 422.899 142.294C422.42 142.752 422.186 143.343 422.186 144.076ZM426.239 144.076C426.239 144.555 426.086 144.942 425.781 145.237C425.485 145.532 425.109 145.675 424.671 145.675C424.233 145.675 423.856 145.532 423.55 145.237C423.255 144.942 423.102 144.555 423.102 144.076C423.102 143.608 423.255 143.231 423.55 142.946C423.856 142.661 424.233 142.518 424.671 142.518C425.109 142.518 425.485 142.661 425.781 142.946C426.086 143.231 426.239 143.608 426.239 144.076ZM433.867 142.518C434.55 142.518 434.957 142.997 434.957 143.781V146.469H435.884V143.72C435.884 142.375 435.232 141.612 434.051 141.612C433.287 141.612 432.737 141.938 432.401 142.589C432.177 142.07 431.759 141.754 431.158 141.663C430.996 141.632 430.822 141.622 430.639 141.632C430.161 141.673 429.56 141.948 429.325 142.426V141.713H428.399V146.469H429.325V143.903C429.325 142.976 429.916 142.518 430.649 142.518C431.27 142.518 431.678 142.997 431.678 143.771V146.469H432.605V143.903C432.605 143.088 433.093 142.508 433.867 142.518ZM438.285 146.469V141.713H437.369V146.469H438.285ZM437.369 140.39C437.623 140.624 438.031 140.624 438.275 140.39C438.53 140.155 438.53 139.768 438.275 139.534C438.031 139.3 437.623 139.3 437.369 139.534C437.124 139.768 437.124 140.155 437.369 140.39ZM442.035 141.612C441.332 141.612 440.741 141.836 440.253 142.294C439.764 142.752 439.519 143.343 439.519 144.076C439.519 144.809 439.764 145.41 440.253 145.878C440.741 146.337 441.332 146.571 442.035 146.571C442.788 146.571 443.399 146.316 443.878 145.797L443.165 145.206C442.87 145.522 442.493 145.675 442.035 145.675C441.597 145.675 441.22 145.522 440.904 145.227C440.589 144.931 440.436 144.544 440.436 144.076C440.436 143.618 440.589 143.241 440.904 142.956C441.22 142.661 441.597 142.518 442.035 142.518C442.493 142.518 442.87 142.671 443.165 142.966L443.868 142.375C443.399 141.866 442.788 141.612 442.035 141.612ZM447.875 146.469H452.131V145.583H448.822V143.465H451.622V142.579H448.822V140.339H452.03V139.453H447.875V146.469ZM459.277 139.127C458.045 139.127 457.454 139.921 457.454 141.235V141.713H454.684V141.235C454.674 140.42 454.97 140.013 455.57 140.013H456.09V139.127H455.57C454.338 139.127 453.748 139.921 453.748 141.235V141.713H452.831V142.498H453.748V146.469H454.684V142.498H457.454V146.469H458.391V142.498H459.491V141.713H458.391V141.235C458.381 140.42 458.676 140.013 459.277 140.013H459.796V139.127H459.277ZM461.071 143.72C461.183 142.935 461.774 142.447 462.579 142.447C463.352 142.447 463.913 142.935 464.025 143.72H461.071ZM464.941 144.076C464.941 143.333 464.717 142.742 464.269 142.294C463.831 141.836 463.261 141.612 462.579 141.612C461.886 141.612 461.306 141.836 460.837 142.294C460.379 142.742 460.145 143.333 460.145 144.076C460.145 144.819 460.379 145.42 460.837 145.878C461.306 146.337 461.886 146.571 462.579 146.571C463.526 146.571 464.371 146.123 464.768 145.308L464.381 145.166C464.198 145.094 464.065 145.033 463.974 145.003C463.719 145.461 463.19 145.736 462.609 145.736C461.794 145.736 461.183 145.227 461.071 144.443H464.931C464.941 144.371 464.941 144.249 464.941 144.076ZM468.318 141.612C467.616 141.612 467.025 141.836 466.536 142.294C466.048 142.752 465.803 143.343 465.803 144.076C465.803 144.809 466.048 145.41 466.536 145.878C467.025 146.337 467.616 146.571 468.318 146.571C469.072 146.571 469.683 146.316 470.162 145.797L469.449 145.206C469.154 145.522 468.777 145.675 468.318 145.675C467.881 145.675 467.504 145.522 467.188 145.227C466.872 144.931 466.72 144.544 466.72 144.076C466.72 143.618 466.872 143.241 467.188 142.956C467.504 142.661 467.881 142.518 468.318 142.518C468.777 142.518 469.154 142.671 469.449 142.966L470.151 142.375C469.683 141.866 469.072 141.612 468.318 141.612ZM472.613 139.921H471.686V141.713H470.831V142.498H471.686V146.469H472.613V142.498H473.621V141.713H472.613V139.921ZM476.402 144.524C476.8 144.616 477.044 144.799 477.034 145.125C477.024 145.461 476.749 145.716 476.311 145.746C476.015 145.766 475.771 145.716 475.557 145.583C475.343 145.471 475.211 145.298 475.17 145.043H474.325C474.335 145.502 474.519 145.878 474.875 146.153C475.231 146.428 475.639 146.571 476.097 146.571C476.616 146.571 477.044 146.439 477.4 146.184C477.757 145.919 477.94 145.573 477.94 145.145C477.94 144.422 477.533 143.964 476.708 143.76L476.005 143.587C475.71 143.496 475.517 143.373 475.445 143.221C475.394 143.119 475.394 142.997 475.435 142.844C475.506 142.589 475.791 142.416 476.148 142.416C476.525 142.416 476.84 142.62 476.891 142.956H477.777C477.696 142.05 477.013 141.612 476.128 141.612C475.7 141.612 475.323 141.724 475.007 141.958C474.692 142.192 474.508 142.477 474.478 142.823C474.396 143.669 474.844 144.127 475.751 144.371L476.402 144.524Z" fill="#6C6349"/>
<path d="M435.672 250.627C444.453 250.627 451.571 243.508 451.571 234.727C451.571 225.945 444.453 218.827 435.672 218.827C426.89 218.827 419.772 225.945 419.772 234.727C419.772 243.508 426.89 250.627 435.672 250.627Z" fill="#737579" stroke="white" stroke-width="0.417951"/>
<path d="M338.327 354.602C347.109 354.602 354.227 347.483 354.227 338.702C354.227 329.921 347.109 322.802 338.327 322.802C329.546 322.802 322.428 329.921 322.428 338.702C322.428 347.483 329.546 354.602 338.327 354.602Z" fill="#CFF9FF" stroke="white" stroke-width="0.417951"/>
<path d="M168.789 375.859C177.571 375.859 184.689 368.74 184.689 359.959C184.689 351.178 177.571 344.059 168.789 344.059C160.008 344.059 152.89 351.178 152.89 359.959C152.89 368.74 160.008 375.859 168.789 375.859Z" fill="#36BFD4" stroke="white" stroke-width="0.417951"/>
<path d="M463.731 233.595C464.352 233.544 464.81 233.31 465.106 232.903C465.411 232.495 465.564 232.006 465.564 231.436C465.564 230.825 465.391 230.306 465.045 229.878C464.698 229.45 464.179 229.237 463.487 229.237H460.788V236.253H461.745V233.626H462.641L464.454 236.253H465.605L463.731 233.595ZM463.456 230.123C464.22 230.123 464.586 230.713 464.586 231.436C464.586 232.169 464.22 232.74 463.415 232.74H461.745V230.123H463.456ZM471.375 236.253V231.497H470.459V232.21C470.163 231.691 469.481 231.395 468.789 231.395C468.116 231.395 467.546 231.62 467.078 232.078C466.609 232.536 466.375 233.127 466.375 233.87C466.375 234.603 466.609 235.204 467.078 235.662C467.546 236.121 468.116 236.355 468.789 236.355C469.481 236.355 470.143 236.049 470.459 235.52V236.253H471.375ZM470.448 233.86C470.448 234.349 470.296 234.736 469.99 235.021C469.685 235.306 469.308 235.448 468.87 235.448C468.432 235.448 468.066 235.296 467.77 235C467.475 234.705 467.322 234.318 467.322 233.86C467.322 233.402 467.465 233.025 467.76 232.74C468.055 232.444 468.432 232.302 468.87 232.302C469.288 232.302 469.654 232.444 469.97 232.719C470.285 232.994 470.448 233.381 470.448 233.86ZM475.126 231.395C474.423 231.395 473.832 231.62 473.344 232.078C472.855 232.536 472.61 233.127 472.61 233.86C472.61 234.593 472.855 235.194 473.344 235.662C473.832 236.121 474.423 236.355 475.126 236.355C475.879 236.355 476.49 236.1 476.969 235.581L476.256 234.99C475.961 235.306 475.584 235.459 475.126 235.459C474.688 235.459 474.311 235.306 473.995 235.011C473.68 234.715 473.527 234.328 473.527 233.86C473.527 233.402 473.68 233.025 473.995 232.74C474.311 232.444 474.688 232.302 475.126 232.302C475.584 232.302 475.961 232.455 476.256 232.75L476.959 232.159C476.49 231.65 475.879 231.395 475.126 231.395ZM478.629 233.503C478.741 232.719 479.331 232.231 480.136 232.231C480.91 232.231 481.47 232.719 481.582 233.503H478.629ZM482.498 233.86C482.498 233.116 482.274 232.526 481.826 232.078C481.388 231.62 480.818 231.395 480.136 231.395C479.443 231.395 478.863 231.62 478.395 232.078C477.936 232.526 477.702 233.116 477.702 233.86C477.702 234.603 477.936 235.204 478.395 235.662C478.863 236.121 479.443 236.355 480.136 236.355C481.083 236.355 481.928 235.907 482.325 235.092L481.938 234.949C481.755 234.878 481.623 234.817 481.531 234.787C481.276 235.245 480.747 235.52 480.166 235.52C479.352 235.52 478.741 235.011 478.629 234.226H482.488C482.498 234.155 482.498 234.033 482.498 233.86Z" fill="#6C6349"/>
<path d="M365.829 340.982L364.536 336.441H363.813L362.52 340.982L360.758 335.494H359.74L362.112 342.51H362.937L364.169 338.131L365.412 342.51H366.237L368.609 335.494H367.591L365.829 340.982ZM368.747 340.117C368.747 340.86 368.991 341.461 369.47 341.919C369.948 342.378 370.539 342.612 371.231 342.612C371.924 342.612 372.514 342.378 372.993 341.919C373.482 341.451 373.726 340.85 373.726 340.117C373.726 339.384 373.482 338.793 373.003 338.335C372.525 337.876 371.934 337.652 371.231 337.652C370.529 337.652 369.938 337.876 369.459 338.335C368.981 338.793 368.747 339.384 368.747 340.117ZM372.8 340.117C372.8 340.595 372.647 340.982 372.341 341.278C372.046 341.573 371.669 341.716 371.231 341.716C370.793 341.716 370.417 341.573 370.111 341.278C369.816 340.982 369.663 340.595 369.663 340.117C369.663 339.648 369.816 339.272 370.111 338.986C370.417 338.701 370.793 338.559 371.231 338.559C371.669 338.559 372.046 338.701 372.341 338.986C372.647 339.272 372.8 339.648 372.8 340.117ZM375.886 340.779C375.886 339.435 376.324 338.538 377.19 338.538C377.434 338.538 377.668 338.589 377.892 338.701L378.035 337.836C377.862 337.714 377.587 337.652 377.21 337.652C376.558 337.652 376.12 338.039 375.886 338.824V337.754H374.959V342.51H375.886V340.779ZM382.063 342.51H383.285L380.759 339.811L382.796 337.754H381.533L379.894 339.414V335.168H378.977V342.51H379.894V340.188L382.063 342.51Z" fill="#6C6349"/>
<path d="M194.41 357.36L195.571 360.477H193.249L194.41 357.36ZM196.579 363.114H197.577L194.92 356.098H193.901L191.233 363.114H192.241L192.924 361.332H195.897L196.579 363.114ZM201.658 360.925C201.658 361.872 201.077 362.31 200.313 362.31C199.662 362.31 199.275 361.831 199.275 361.047V358.358H198.348V361.108C198.338 362.452 199 363.216 200.181 363.216C200.761 363.216 201.383 362.931 201.658 362.401V363.114H202.584V358.358H201.658V360.925ZM205.4 356.566H204.473V358.358H203.618V359.143H204.473V363.114H205.4V359.143H206.408V358.358H205.4V356.566ZM207.073 360.721C207.073 361.464 207.318 362.065 207.796 362.523C208.275 362.982 208.865 363.216 209.558 363.216C210.25 363.216 210.841 362.982 211.32 362.523C211.808 362.055 212.053 361.454 212.053 360.721C212.053 359.988 211.808 359.397 211.33 358.939C210.851 358.481 210.261 358.257 209.558 358.257C208.855 358.257 208.265 358.481 207.786 358.939C207.307 359.397 207.073 359.988 207.073 360.721ZM211.126 360.721C211.126 361.2 210.973 361.587 210.668 361.882C210.373 362.177 209.996 362.32 209.558 362.32C209.12 362.32 208.743 362.177 208.438 361.882C208.142 361.587 207.99 361.2 207.99 360.721C207.99 360.252 208.142 359.876 208.438 359.591C208.743 359.305 209.12 359.163 209.558 359.163C209.996 359.163 210.373 359.305 210.668 359.591C210.973 359.876 211.126 360.252 211.126 360.721ZM218.755 359.163C219.437 359.163 219.844 359.641 219.844 360.426V363.114H220.771V360.365C220.771 359.02 220.119 358.257 218.938 358.257C218.174 358.257 217.624 358.582 217.288 359.234C217.064 358.715 216.647 358.399 216.046 358.307C215.883 358.277 215.71 358.267 215.526 358.277C215.048 358.318 214.447 358.593 214.213 359.071V358.358H213.286V363.114H214.213V360.548C214.213 359.621 214.803 359.163 215.537 359.163C216.158 359.163 216.565 359.641 216.565 360.415V363.114H217.492V360.548C217.492 359.733 217.981 359.153 218.755 359.163ZM226.94 363.114V358.358H226.024V359.071C225.729 358.552 225.046 358.257 224.354 358.257C223.682 358.257 223.112 358.481 222.643 358.939C222.175 359.397 221.94 359.988 221.94 360.731C221.94 361.464 222.175 362.065 222.643 362.523C223.112 362.982 223.682 363.216 224.354 363.216C225.046 363.216 225.708 362.91 226.024 362.381V363.114H226.94ZM226.014 360.721C226.014 361.21 225.861 361.597 225.556 361.882C225.25 362.167 224.873 362.31 224.435 362.31C223.997 362.31 223.631 362.157 223.336 361.861C223.04 361.566 222.888 361.179 222.888 360.721C222.888 360.263 223.03 359.886 223.325 359.601C223.621 359.305 223.997 359.163 224.435 359.163C224.853 359.163 225.219 359.305 225.535 359.58C225.851 359.855 226.014 360.242 226.014 360.721ZM229.775 356.566H228.848V358.358H227.992V359.143H228.848V363.114H229.775V359.143H230.783V358.358H229.775V356.566ZM232.749 363.114V358.358H231.833V363.114H232.749ZM231.833 357.035C232.087 357.269 232.495 357.269 232.739 357.035C232.994 356.8 232.994 356.413 232.739 356.179C232.495 355.945 232.087 355.945 231.833 356.179C231.588 356.413 231.588 356.8 231.833 357.035ZM233.983 360.721C233.983 361.464 234.228 362.065 234.706 362.523C235.185 362.982 235.776 363.216 236.468 363.216C237.161 363.216 237.751 362.982 238.23 362.523C238.719 362.055 238.963 361.454 238.963 360.721C238.963 359.988 238.719 359.397 238.24 358.939C237.761 358.481 237.171 358.257 236.468 358.257C235.766 358.257 235.175 358.481 234.696 358.939C234.218 359.397 233.983 359.988 233.983 360.721ZM238.036 360.721C238.036 361.2 237.884 361.587 237.578 361.882C237.283 362.177 236.906 362.32 236.468 362.32C236.03 362.32 235.654 362.177 235.348 361.882C235.053 361.587 234.9 361.2 234.9 360.721C234.9 360.252 235.053 359.876 235.348 359.591C235.654 359.305 236.03 359.163 236.468 359.163C236.906 359.163 237.283 359.305 237.578 359.591C237.884 359.876 238.036 360.252 238.036 360.721ZM241.123 360.548C241.123 359.611 241.724 359.163 242.467 359.163C243.119 359.163 243.516 359.641 243.516 360.426V363.114H244.443V360.365C244.443 359.02 243.791 358.257 242.61 358.257C242.029 358.257 241.398 358.542 241.123 359.071V358.358H240.196V363.114H241.123V360.548Z" fill="#6C6349"/>
<path d="M266.628 224.287C266.628 224.862 266.427 225.343 266.039 225.705C265.651 226.066 265.197 226.253 264.648 226.253C264.1 226.253 263.632 226.066 263.244 225.705C262.856 225.343 262.669 224.862 262.669 224.287V218.268H261.225V224.287C261.225 225.263 261.559 226.066 262.214 226.694C262.883 227.31 263.699 227.617 264.648 227.617C265.598 227.617 266.4 227.31 267.056 226.694C267.724 226.066 268.059 225.263 268.059 224.287V218.268H266.628V224.287ZM276.455 220.703C276.455 219.205 275.465 218.268 273.9 218.268H270.369V227.483H274.181C275.024 227.483 275.692 227.229 276.187 226.708C276.696 226.186 276.95 225.544 276.95 224.782C276.95 224.3 276.789 223.846 276.482 223.404C276.174 222.963 275.773 222.695 275.264 222.575C276.054 222.267 276.455 221.639 276.455 220.703ZM271.8 219.566H273.753C274.515 219.566 274.984 220.007 274.984 220.756C274.984 221.492 274.556 222.053 273.847 222.053H271.8V219.566ZM274.074 223.27C274.489 223.27 274.823 223.431 275.077 223.739C275.331 224.046 275.465 224.394 275.465 224.768C275.465 225.517 274.93 226.186 274.114 226.186H271.8V223.27H274.074ZM280.198 227.483V218.268H278.781V227.483H280.198Z" fill="white"/>
<g filter="url(#filter25_d)">
<path d="M429.945 335.469C429.188 338.296 430.866 341.202 433.693 341.96C436.52 342.717 439.427 341.039 440.184 338.212C440.942 335.385 439.264 332.479 436.437 331.721C433.609 330.963 430.703 332.641 429.945 335.469Z" fill="black"/>
</g>
<path d="M429.945 335.469C429.188 338.296 430.866 341.202 433.693 341.96C436.52 342.717 439.427 341.039 440.184 338.212C440.942 335.385 439.264 332.479 436.437 331.721C433.609 330.963 430.703 332.641 429.945 335.469Z" fill="#737579" stroke="white" stroke-width="0.417951"/>
<g filter="url(#filter26_d)">
<path d="M277.5 415.555C275.43 417.624 275.43 420.98 277.5 423.05C279.57 425.12 282.925 425.12 284.995 423.05C287.065 420.98 287.065 417.624 284.995 415.555C282.925 413.485 279.57 413.485 277.5 415.555Z" fill="#CFF9FF"/>
</g>
<path d="M277.5 415.555C275.43 417.624 275.43 420.98 277.5 423.05C279.57 425.12 282.925 425.12 284.995 423.05C287.065 420.98 287.065 417.624 284.995 415.555C282.925 413.485 279.57 413.485 277.5 415.555Z" fill="#CFF9FF" stroke="white" stroke-width="0.417951"/>
<g filter="url(#filter27_d)">
<path d="M283.771 361.529C280.943 362.286 279.265 365.192 280.023 368.02C280.78 370.847 283.687 372.525 286.514 371.767C289.341 371.01 291.019 368.103 290.262 365.276C289.504 362.449 286.598 360.771 283.771 361.529Z" fill="#CFF9FF"/>
</g>
<path d="M283.771 361.529C280.943 362.286 279.265 365.192 280.023 368.02C280.78 370.847 283.687 372.525 286.514 371.767C289.341 371.01 291.019 368.103 290.262 365.276C289.504 362.449 286.598 360.771 283.771 361.529Z" fill="#CFF9FF" stroke="white" stroke-width="0.417951"/>
<g filter="url(#filter28_d)">
<path d="M461.152 314.567C460.394 317.394 462.072 320.3 464.9 321.058C467.727 321.815 470.633 320.138 471.391 317.31C472.148 314.483 470.47 311.577 467.643 310.819C464.816 310.062 461.909 311.739 461.152 314.567Z" fill="black"/>
</g>
<path d="M461.152 314.567C460.394 317.394 462.072 320.3 464.9 321.058C467.727 321.815 470.633 320.138 471.391 317.31C472.148 314.483 470.47 311.577 467.643 310.819C464.816 310.062 461.909 311.739 461.152 314.567Z" fill="#737579" stroke="white" stroke-width="0.417951"/>
<g filter="url(#filter29_d)">
<path d="M314.976 413.056C312.906 415.126 312.906 418.482 314.976 420.551C317.046 422.621 320.401 422.621 322.471 420.551C324.541 418.482 324.541 415.126 322.471 413.056C320.401 410.986 317.046 410.986 314.976 413.056Z" fill="#CFF9FF"/>
</g>
<path d="M314.976 413.056C312.906 415.126 312.906 418.482 314.976 420.551C317.046 422.621 320.401 422.621 322.471 420.551C324.541 418.482 324.541 415.126 322.471 413.056C320.401 410.986 317.046 410.986 314.976 413.056Z" fill="#CFF9FF" stroke="white" stroke-width="0.417951"/>
<g filter="url(#filter30_d)">
<path d="M492.419 290.023C491.662 292.851 493.34 295.757 496.167 296.514C498.994 297.272 501.901 295.594 502.658 292.767C503.416 289.939 501.738 287.033 498.911 286.276C496.083 285.518 493.177 287.196 492.419 290.023Z" fill="black"/>
</g>
<path d="M492.419 290.023C491.662 292.851 493.34 295.757 496.167 296.514C498.994 297.272 501.901 295.594 502.658 292.767C503.416 289.939 501.738 287.033 498.911 286.276C496.083 285.518 493.177 287.196 492.419 290.023Z" fill="#737579" stroke="white" stroke-width="0.417951"/>
<g filter="url(#filter31_d)">
<path d="M354.326 407.435C352.256 409.505 352.256 412.86 354.326 414.93C356.396 417 359.752 417 361.821 414.93C363.891 412.86 363.891 409.505 361.821 407.435C359.752 405.365 356.396 405.365 354.326 407.435Z" fill="#CFF9FF"/>
</g>
<path d="M354.326 407.435C352.256 409.505 352.256 412.86 354.326 414.93C356.396 417 359.752 417 361.821 414.93C363.891 412.86 363.891 409.505 361.821 407.435C359.752 405.365 356.396 405.365 354.326 407.435Z" fill="#CFF9FF" stroke="white" stroke-width="0.417951"/>
<defs>
<filter id="filter0_d" x="234.685" y="186.404" width="75.1791" height="75.1791" filterUnits="userSpaceOnUse" color-interpolation-filters="sRGB">
<feFlood flood-opacity="0" result="BackgroundImageFix"/>
<feColorMatrix in="SourceAlpha" type="matrix" values="0 0 0 0 0 0 0 0 0 0 0 0 0 0 0 0 0 0 127 0"/>
<feOffset dx="1.67181" dy="1.67181"/>
<feGaussianBlur stdDeviation="2.08976"/>
<feColorMatrix type="matrix" values="0 0 0 0 0 0 0 0 0 0 0 0 0 0 0 0 0 0 0.05 0"/>
<feBlend mode="normal" in2="BackgroundImageFix" result="effect1_dropShadow"/>
<feBlend mode="normal" in="SourceGraphic" in2="effect1_dropShadow" result="shape"/>
</filter>
<filter id="filter1_d" x="89.514" y="108.684" width="48.454" height="48.454" filterUnits="userSpaceOnUse" color-interpolation-filters="sRGB">
<feFlood flood-opacity="0" result="BackgroundImageFix"/>
<feColorMatrix in="SourceAlpha" type="matrix" values="0 0 0 0 0 0 0 0 0 0 0 0 0 0 0 0 0 0 127 0"/>
<feOffset dy="1.27292"/>
<feGaussianBlur stdDeviation="2.54583"/>
<feColorMatrix type="matrix" values="0 0 0 0 0.574021 0 0 0 0 0.574021 0 0 0 0 0.574021 0 0 0 0.5 0"/>
<feBlend mode="normal" in2="BackgroundImageFix" result="effect1_dropShadow"/>
<feBlend mode="normal" in="SourceGraphic" in2="effect1_dropShadow" result="shape"/>
</filter>
<filter id="filter2_d" x="71.9601" y="243.429" width="47.8161" height="47.8161" filterUnits="userSpaceOnUse" color-interpolation-filters="sRGB">
<feFlood flood-opacity="0" result="BackgroundImageFix"/>
<feColorMatrix in="SourceAlpha" type="matrix" values="0 0 0 0 0 0 0 0 0 0 0 0 0 0 0 0 0 0 127 0"/>
<feOffset dy="1.27292"/>
<feGaussianBlur stdDeviation="2.54583"/>
<feColorMatrix type="matrix" values="0 0 0 0 0.574021 0 0 0 0 0.574021 0 0 0 0 0.574021 0 0 0 0.5 0"/>
<feBlend mode="normal" in2="BackgroundImageFix" result="effect1_dropShadow"/>
<feBlend mode="normal" in="SourceGraphic" in2="effect1_dropShadow" result="shape"/>
</filter>
<filter id="filter3_d" x="144.684" y="337.05" width="47.8161" height="47.8161" filterUnits="userSpaceOnUse" color-interpolation-filters="sRGB">
<feFlood flood-opacity="0" result="BackgroundImageFix"/>
<feColorMatrix in="SourceAlpha" type="matrix" values="0 0 0 0 0 0 0 0 0 0 0 0 0 0 0 0 0 0 127 0"/>
<feOffset dy="1.27292"/>
<feGaussianBlur stdDeviation="2.54583"/>
<feColorMatrix type="matrix" values="0 0 0 0 0.574021 0 0 0 0 0.574021 0 0 0 0 0.574021 0 0 0 0.5 0"/>
<feBlend mode="normal" in2="BackgroundImageFix" result="effect1_dropShadow"/>
<feBlend mode="normal" in="SourceGraphic" in2="effect1_dropShadow" result="shape"/>
</filter>
<filter id="filter4_d" x="314.372" y="316.153" width="47.8161" height="47.8161" filterUnits="userSpaceOnUse" color-interpolation-filters="sRGB">
<feFlood flood-opacity="0" result="BackgroundImageFix"/>
<feColorMatrix in="SourceAlpha" type="matrix" values="0 0 0 0 0 0 0 0 0 0 0 0 0 0 0 0 0 0 127 0"/>
<feOffset dy="1.27292"/>
<feGaussianBlur stdDeviation="2.54583"/>
<feColorMatrix type="matrix" values="0 0 0 0 0.574021 0 0 0 0 0.574021 0 0 0 0 0.574021 0 0 0 0.5 0"/>
<feBlend mode="normal" in2="BackgroundImageFix" result="effect1_dropShadow"/>
<feBlend mode="normal" in="SourceGraphic" in2="effect1_dropShadow" result="shape"/>
</filter>
<filter id="filter5_d" x="411.337" y="212.5" width="47.8161" height="47.8161" filterUnits="userSpaceOnUse" color-interpolation-filters="sRGB">
<feFlood flood-opacity="0" result="BackgroundImageFix"/>
<feColorMatrix in="SourceAlpha" type="matrix" values="0 0 0 0 0 0 0 0 0 0 0 0 0 0 0 0 0 0 127 0"/>
<feOffset dy="1.27292"/>
<feGaussianBlur stdDeviation="2.54583"/>
<feColorMatrix type="matrix" values="0 0 0 0 0.574021 0 0 0 0 0.574021 0 0 0 0 0.574021 0 0 0 0.5 0"/>
<feBlend mode="normal" in2="BackgroundImageFix" result="effect1_dropShadow"/>
<feBlend mode="normal" in="SourceGraphic" in2="effect1_dropShadow" result="shape"/>
</filter>
<filter id="filter6_d" x="351.152" y="122.223" width="47.8161" height="47.8161" filterUnits="userSpaceOnUse" color-interpolation-filters="sRGB">
<feFlood flood-opacity="0" result="BackgroundImageFix"/>
<feColorMatrix in="SourceAlpha" type="matrix" values="0 0 0 0 0 0 0 0 0 0 0 0 0 0 0 0 0 0 127 0"/>
<feOffset dy="1.27292"/>
<feGaussianBlur stdDeviation="2.54583"/>
<feColorMatrix type="matrix" values="0 0 0 0 0.574021 0 0 0 0 0.574021 0 0 0 0 0.574021 0 0 0 0.5 0"/>
<feBlend mode="normal" in2="BackgroundImageFix" result="effect1_dropShadow"/>
<feBlend mode="normal" in="SourceGraphic" in2="effect1_dropShadow" result="shape"/>
</filter>
<filter id="filter7_d" x="194.506" y="78.5566" width="47.4193" height="47.4193" filterUnits="userSpaceOnUse" color-interpolation-filters="sRGB">
<feFlood flood-opacity="0" result="BackgroundImageFix"/>
<feColorMatrix in="SourceAlpha" type="matrix" values="0 0 0 0 0 0 0 0 0 0 0 0 0 0 0 0 0 0 127 0"/>
<feOffset dy="1.27292"/>
<feGaussianBlur stdDeviation="2.54583"/>
<feColorMatrix type="matrix" values="0 0 0 0 0.574021 0 0 0 0 0.574021 0 0 0 0 0.574021 0 0 0 0.5 0"/>
<feBlend mode="normal" in2="BackgroundImageFix" result="effect1_dropShadow"/>
<feBlend mode="normal" in="SourceGraphic" in2="effect1_dropShadow" result="shape"/>
</filter>
<filter id="filter8_d" x="241.365" y="38.4128" width="24.663" height="24.663" filterUnits="userSpaceOnUse" color-interpolation-filters="sRGB">
<feFlood flood-opacity="0" result="BackgroundImageFix"/>
<feColorMatrix in="SourceAlpha" type="matrix" values="0 0 0 0 0 0 0 0 0 0 0 0 0 0 0 0 0 0 127 0"/>
<feOffset dy="1.27292"/>
<feGaussianBlur stdDeviation="2.54583"/>
<feColorMatrix type="matrix" values="0 0 0 0 0.574021 0 0 0 0 0.574021 0 0 0 0 0.574021 0 0 0 0.5 0"/>
<feBlend mode="normal" in2="BackgroundImageFix" result="effect1_dropShadow"/>
<feBlend mode="normal" in="SourceGraphic" in2="effect1_dropShadow" result="shape"/>
</filter>
<filter id="filter9_d" x="0.908455" y="180.272" width="25.1738" height="25.1738" filterUnits="userSpaceOnUse" color-interpolation-filters="sRGB">
<feFlood flood-opacity="0" result="BackgroundImageFix"/>
<feColorMatrix in="SourceAlpha" type="matrix" values="0 0 0 0 0 0 0 0 0 0 0 0 0 0 0 0 0 0 127 0"/>
<feOffset dy="1.27292"/>
<feGaussianBlur stdDeviation="2.54583"/>
<feColorMatrix type="matrix" values="0 0 0 0 0.574021 0 0 0 0 0.574021 0 0 0 0 0.574021 0 0 0 0.5 0"/>
<feBlend mode="normal" in2="BackgroundImageFix" result="effect1_dropShadow"/>
<feBlend mode="normal" in="SourceGraphic" in2="effect1_dropShadow" result="shape"/>
</filter>
<filter id="filter10_d" x="219.23" y="0.18125" width="24.663" height="24.663" filterUnits="userSpaceOnUse" color-interpolation-filters="sRGB">
<feFlood flood-opacity="0" result="BackgroundImageFix"/>
<feColorMatrix in="SourceAlpha" type="matrix" values="0 0 0 0 0 0 0 0 0 0 0 0 0 0 0 0 0 0 127 0"/>
<feOffset dy="1.27292"/>
<feGaussianBlur stdDeviation="2.54583"/>
<feColorMatrix type="matrix" values="0 0 0 0 0.574021 0 0 0 0 0.574021 0 0 0 0 0.574021 0 0 0 0.5 0"/>
<feBlend mode="normal" in2="BackgroundImageFix" result="effect1_dropShadow"/>
<feBlend mode="normal" in="SourceGraphic" in2="effect1_dropShadow" result="shape"/>
</filter>
<filter id="filter11_d" x="103.155" y="15.2727" width="24.663" height="24.663" filterUnits="userSpaceOnUse" color-interpolation-filters="sRGB">
<feFlood flood-opacity="0" result="BackgroundImageFix"/>
<feColorMatrix in="SourceAlpha" type="matrix" values="0 0 0 0 0 0 0 0 0 0 0 0 0 0 0 0 0 0 127 0"/>
<feOffset dy="1.27292"/>
<feGaussianBlur stdDeviation="2.54583"/>
<feColorMatrix type="matrix" values="0 0 0 0 0.574021 0 0 0 0 0.574021 0 0 0 0 0.574021 0 0 0 0.5 0"/>
<feBlend mode="normal" in2="BackgroundImageFix" result="effect1_dropShadow"/>
<feBlend mode="normal" in="SourceGraphic" in2="effect1_dropShadow" result="shape"/>
</filter>
<filter id="filter12_d" x="461.699" y="107.833" width="24.663" height="24.663" filterUnits="userSpaceOnUse" color-interpolation-filters="sRGB">
<feFlood flood-opacity="0" result="BackgroundImageFix"/>
<feColorMatrix in="SourceAlpha" type="matrix" values="0 0 0 0 0 0 0 0 0 0 0 0 0 0 0 0 0 0 127 0"/>
<feOffset dy="1.27292"/>
<feGaussianBlur stdDeviation="2.54583"/>
<feColorMatrix type="matrix" values="0 0 0 0 0.574021 0 0 0 0 0.574021 0 0 0 0 0.574021 0 0 0 0.5 0"/>
<feBlend mode="normal" in2="BackgroundImageFix" result="effect1_dropShadow"/>
<feBlend mode="normal" in="SourceGraphic" in2="effect1_dropShadow" result="shape"/>
</filter>
<filter id="filter13_d" x="377.187" y="63.565" width="24.663" height="24.663" filterUnits="userSpaceOnUse" color-interpolation-filters="sRGB">
<feFlood flood-opacity="0" result="BackgroundImageFix"/>
<feColorMatrix in="SourceAlpha" type="matrix" values="0 0 0 0 0 0 0 0 0 0 0 0 0 0 0 0 0 0 127 0"/>
<feOffset dy="1.27292"/>
<feGaussianBlur stdDeviation="2.54583"/>
<feColorMatrix type="matrix" values="0 0 0 0 0.574021 0 0 0 0 0.574021 0 0 0 0 0.574021 0 0 0 0.5 0"/>
<feBlend mode="normal" in2="BackgroundImageFix" result="effect1_dropShadow"/>
<feBlend mode="normal" in="SourceGraphic" in2="effect1_dropShadow" result="shape"/>
</filter>
<filter id="filter14_d" x="3.40638" y="217.749" width="25.1738" height="25.1738" filterUnits="userSpaceOnUse" color-interpolation-filters="sRGB">
<feFlood flood-opacity="0" result="BackgroundImageFix"/>
<feColorMatrix in="SourceAlpha" type="matrix" values="0 0 0 0 0 0 0 0 0 0 0 0 0 0 0 0 0 0 127 0"/>
<feOffset dy="1.27292"/>
<feGaussianBlur stdDeviation="2.54583"/>
<feColorMatrix type="matrix" values="0 0 0 0 0.574021 0 0 0 0 0.574021 0 0 0 0 0.574021 0 0 0 0.5 0"/>
<feBlend mode="normal" in2="BackgroundImageFix" result="effect1_dropShadow"/>
<feBlend mode="normal" in="SourceGraphic" in2="effect1_dropShadow" result="shape"/>
</filter>
<filter id="filter15_d" x="97.4933" y="356.338" width="24.6178" height="24.6178" filterUnits="userSpaceOnUse" color-interpolation-filters="sRGB">
<feFlood flood-opacity="0" result="BackgroundImageFix"/>
<feColorMatrix in="SourceAlpha" type="matrix" values="0 0 0 0 0 0 0 0 0 0 0 0 0 0 0 0 0 0 127 0"/>
<feOffset dy="1.27292"/>
<feGaussianBlur stdDeviation="2.54583"/>
<feColorMatrix type="matrix" values="0 0 0 0 0.574021 0 0 0 0 0.574021 0 0 0 0 0.574021 0 0 0 0.5 0"/>
<feBlend mode="normal" in2="BackgroundImageFix" result="effect1_dropShadow"/>
<feBlend mode="normal" in="SourceGraphic" in2="effect1_dropShadow" result="shape"/>
</filter>
<filter id="filter16_d" x="179.993" y="22.3153" width="24.663" height="24.663" filterUnits="userSpaceOnUse" color-interpolation-filters="sRGB">
<feFlood flood-opacity="0" result="BackgroundImageFix"/>
<feColorMatrix in="SourceAlpha" type="matrix" values="0 0 0 0 0 0 0 0 0 0 0 0 0 0 0 0 0 0 127 0"/>
<feOffset dy="1.27292"/>
<feGaussianBlur stdDeviation="2.54583"/>
<feColorMatrix type="matrix" values="0 0 0 0 0.574021 0 0 0 0 0.574021 0 0 0 0 0.574021 0 0 0 0.5 0"/>
<feBlend mode="normal" in2="BackgroundImageFix" result="effect1_dropShadow"/>
<feBlend mode="normal" in="SourceGraphic" in2="effect1_dropShadow" result="shape"/>
</filter>
<filter id="filter17_d" x="60.2678" y="50.4859" width="23.1655" height="23.1655" filterUnits="userSpaceOnUse" color-interpolation-filters="sRGB">
<feFlood flood-opacity="0" result="BackgroundImageFix"/>
<feColorMatrix in="SourceAlpha" type="matrix" values="0 0 0 0 0 0 0 0 0 0 0 0 0 0 0 0 0 0 127 0"/>
<feOffset dy="1.27292"/>
<feGaussianBlur stdDeviation="2.54583"/>
<feColorMatrix type="matrix" values="0 0 0 0 0.574021 0 0 0 0 0.574021 0 0 0 0 0.574021 0 0 0 0.5 0"/>
<feBlend mode="normal" in2="BackgroundImageFix" result="effect1_dropShadow"/>
<feBlend mode="normal" in="SourceGraphic" in2="effect1_dropShadow" result="shape"/>
</filter>
<filter id="filter18_d" x="439.565" y="82.681" width="24.663" height="24.663" filterUnits="userSpaceOnUse" color-interpolation-filters="sRGB">
<feFlood flood-opacity="0" result="BackgroundImageFix"/>
<feColorMatrix in="SourceAlpha" type="matrix" values="0 0 0 0 0 0 0 0 0 0 0 0 0 0 0 0 0 0 127 0"/>
<feOffset dy="1.27292"/>
<feGaussianBlur stdDeviation="2.54583"/>
<feColorMatrix type="matrix" values="0 0 0 0 0.574021 0 0 0 0 0.574021 0 0 0 0 0.574021 0 0 0 0.5 0"/>
<feBlend mode="normal" in2="BackgroundImageFix" result="effect1_dropShadow"/>
<feBlend mode="normal" in="SourceGraphic" in2="effect1_dropShadow" result="shape"/>
</filter>
<filter id="filter19_d" x="352.25" y="71.4925" width="24.663" height="24.663" filterUnits="userSpaceOnUse" color-interpolation-filters="sRGB">
<feFlood flood-opacity="0" result="BackgroundImageFix"/>
<feColorMatrix in="SourceAlpha" type="matrix" values="0 0 0 0 0 0 0 0 0 0 0 0 0 0 0 0 0 0 127 0"/>
<feOffset dy="1.27292"/>
<feGaussianBlur stdDeviation="2.54583"/>
<feColorMatrix type="matrix" values="0 0 0 0 0.574021 0 0 0 0 0.574021 0 0 0 0 0.574021 0 0 0 0.5 0"/>
<feBlend mode="normal" in2="BackgroundImageFix" result="effect1_dropShadow"/>
<feBlend mode="normal" in="SourceGraphic" in2="effect1_dropShadow" result="shape"/>
</filter>
<filter id="filter20_d" x="32.0973" y="266.796" width="25.1738" height="25.1738" filterUnits="userSpaceOnUse" color-interpolation-filters="sRGB">
<feFlood flood-opacity="0" result="BackgroundImageFix"/>
<feColorMatrix in="SourceAlpha" type="matrix" values="0 0 0 0 0 0 0 0 0 0 0 0 0 0 0 0 0 0 127 0"/>
<feOffset dy="1.27292"/>
<feGaussianBlur stdDeviation="2.54583"/>
<feColorMatrix type="matrix" values="0 0 0 0 0.574021 0 0 0 0 0.574021 0 0 0 0 0.574021 0 0 0 0.5 0"/>
<feBlend mode="normal" in2="BackgroundImageFix" result="effect1_dropShadow"/>
<feBlend mode="normal" in="SourceGraphic" in2="effect1_dropShadow" result="shape"/>
</filter>
<filter id="filter21_d" x="156.853" y="57.5285" width="24.663" height="24.663" filterUnits="userSpaceOnUse" color-interpolation-filters="sRGB">
<feFlood flood-opacity="0" result="BackgroundImageFix"/>
<feColorMatrix in="SourceAlpha" type="matrix" values="0 0 0 0 0 0 0 0 0 0 0 0 0 0 0 0 0 0 127 0"/>
<feOffset dy="1.27292"/>
<feGaussianBlur stdDeviation="2.54583"/>
<feColorMatrix type="matrix" values="0 0 0 0 0.574021 0 0 0 0 0.574021 0 0 0 0 0.574021 0 0 0 0.5 0"/>
<feBlend mode="normal" in2="BackgroundImageFix" result="effect1_dropShadow"/>
<feBlend mode="normal" in="SourceGraphic" in2="effect1_dropShadow" result="shape"/>
</filter>
<filter id="filter22_d" x="45.1764" y="93.7479" width="23.1655" height="23.1655" filterUnits="userSpaceOnUse" color-interpolation-filters="sRGB">
<feFlood flood-opacity="0" result="BackgroundImageFix"/>
<feColorMatrix in="SourceAlpha" type="matrix" values="0 0 0 0 0 0 0 0 0 0 0 0 0 0 0 0 0 0 127 0"/>
<feOffset dy="1.27292"/>
<feGaussianBlur stdDeviation="2.54583"/>
<feColorMatrix type="matrix" values="0 0 0 0 0.574021 0 0 0 0 0.574021 0 0 0 0 0.574021 0 0 0 0.5 0"/>
<feBlend mode="normal" in2="BackgroundImageFix" result="effect1_dropShadow"/>
<feBlend mode="normal" in="SourceGraphic" in2="effect1_dropShadow" result="shape"/>
</filter>
<filter id="filter23_d" x="411.394" y="61.5528" width="24.663" height="24.663" filterUnits="userSpaceOnUse" color-interpolation-filters="sRGB">
<feFlood flood-opacity="0" result="BackgroundImageFix"/>
<feColorMatrix in="SourceAlpha" type="matrix" values="0 0 0 0 0 0 0 0 0 0 0 0 0 0 0 0 0 0 127 0"/>
<feOffset dy="1.27292"/>
<feGaussianBlur stdDeviation="2.54583"/>
<feColorMatrix type="matrix" values="0 0 0 0 0.574021 0 0 0 0 0.574021 0 0 0 0 0.574021 0 0 0 0.5 0"/>
<feBlend mode="normal" in2="BackgroundImageFix" result="effect1_dropShadow"/>
<feBlend mode="normal" in="SourceGraphic" in2="effect1_dropShadow" result="shape"/>
</filter>
<filter id="filter24_d" x="330.904" y="92.8559" width="24.663" height="24.663" filterUnits="userSpaceOnUse" color-interpolation-filters="sRGB">
<feFlood flood-opacity="0" result="BackgroundImageFix"/>
<feColorMatrix in="SourceAlpha" type="matrix" values="0 0 0 0 0 0 0 0 0 0 0 0 0 0 0 0 0 0 127 0"/>
<feOffset dy="1.27292"/>
<feGaussianBlur stdDeviation="2.54583"/>
<feColorMatrix type="matrix" values="0 0 0 0 0.574021 0 0 0 0 0.574021 0 0 0 0 0.574021 0 0 0 0.5 0"/>
<feBlend mode="normal" in2="BackgroundImageFix" result="effect1_dropShadow"/>
<feBlend mode="normal" in="SourceGraphic" in2="effect1_dropShadow" result="shape"/>
</filter>
<filter id="filter25_d" x="423.482" y="326.531" width="23.1655" height="23.1655" filterUnits="userSpaceOnUse" color-interpolation-filters="sRGB">
<feFlood flood-opacity="0" result="BackgroundImageFix"/>
<feColorMatrix in="SourceAlpha" type="matrix" values="0 0 0 0 0 0 0 0 0 0 0 0 0 0 0 0 0 0 127 0"/>
<feOffset dy="1.27292"/>
<feGaussianBlur stdDeviation="2.54583"/>
<feColorMatrix type="matrix" values="0 0 0 0 0.574021 0 0 0 0 0.574021 0 0 0 0 0.574021 0 0 0 0.5 0"/>
<feBlend mode="normal" in2="BackgroundImageFix" result="effect1_dropShadow"/>
<feBlend mode="normal" in="SourceGraphic" in2="effect1_dropShadow" result="shape"/>
</filter>
<filter id="filter26_d" x="268.661" y="407.988" width="25.1738" height="25.1738" filterUnits="userSpaceOnUse" color-interpolation-filters="sRGB">
<feFlood flood-opacity="0" result="BackgroundImageFix"/>
<feColorMatrix in="SourceAlpha" type="matrix" values="0 0 0 0 0 0 0 0 0 0 0 0 0 0 0 0 0 0 127 0"/>
<feOffset dy="1.27292"/>
<feGaussianBlur stdDeviation="2.54583"/>
<feColorMatrix type="matrix" values="0 0 0 0 0.574021 0 0 0 0 0.574021 0 0 0 0 0.574021 0 0 0 0.5 0"/>
<feBlend mode="normal" in2="BackgroundImageFix" result="effect1_dropShadow"/>
<feBlend mode="normal" in="SourceGraphic" in2="effect1_dropShadow" result="shape"/>
</filter>
<filter id="filter27_d" x="273.56" y="356.338" width="23.1655" height="23.1655" filterUnits="userSpaceOnUse" color-interpolation-filters="sRGB">
<feFlood flood-opacity="0" result="BackgroundImageFix"/>
<feColorMatrix in="SourceAlpha" type="matrix" values="0 0 0 0 0 0 0 0 0 0 0 0 0 0 0 0 0 0 127 0"/>
<feOffset dy="1.27292"/>
<feGaussianBlur stdDeviation="2.54583"/>
<feColorMatrix type="matrix" values="0 0 0 0 0.574021 0 0 0 0 0.574021 0 0 0 0 0.574021 0 0 0 0.5 0"/>
<feBlend mode="normal" in2="BackgroundImageFix" result="effect1_dropShadow"/>
<feBlend mode="normal" in="SourceGraphic" in2="effect1_dropShadow" result="shape"/>
</filter>
<filter id="filter28_d" x="454.689" y="305.629" width="23.1655" height="23.1655" filterUnits="userSpaceOnUse" color-interpolation-filters="sRGB">
<feFlood flood-opacity="0" result="BackgroundImageFix"/>
<feColorMatrix in="SourceAlpha" type="matrix" values="0 0 0 0 0 0 0 0 0 0 0 0 0 0 0 0 0 0 127 0"/>
<feOffset dy="1.27292"/>
<feGaussianBlur stdDeviation="2.54583"/>
<feColorMatrix type="matrix" values="0 0 0 0 0.574021 0 0 0 0 0.574021 0 0 0 0 0.574021 0 0 0 0.5 0"/>
<feBlend mode="normal" in2="BackgroundImageFix" result="effect1_dropShadow"/>
<feBlend mode="normal" in="SourceGraphic" in2="effect1_dropShadow" result="shape"/>
</filter>
<filter id="filter29_d" x="306.137" y="405.49" width="25.1738" height="25.1738" filterUnits="userSpaceOnUse" color-interpolation-filters="sRGB">
<feFlood flood-opacity="0" result="BackgroundImageFix"/>
<feColorMatrix in="SourceAlpha" type="matrix" values="0 0 0 0 0 0 0 0 0 0 0 0 0 0 0 0 0 0 127 0"/>
<feOffset dy="1.27292"/>
<feGaussianBlur stdDeviation="2.54583"/>
<feColorMatrix type="matrix" values="0 0 0 0 0.574021 0 0 0 0 0.574021 0 0 0 0 0.574021 0 0 0 0.5 0"/>
<feBlend mode="normal" in2="BackgroundImageFix" result="effect1_dropShadow"/>
<feBlend mode="normal" in="SourceGraphic" in2="effect1_dropShadow" result="shape"/>
</filter>
<filter id="filter30_d" x="485.956" y="281.085" width="23.1655" height="23.1655" filterUnits="userSpaceOnUse" color-interpolation-filters="sRGB">
<feFlood flood-opacity="0" result="BackgroundImageFix"/>
<feColorMatrix in="SourceAlpha" type="matrix" values="0 0 0 0 0 0 0 0 0 0 0 0 0 0 0 0 0 0 127 0"/>
<feOffset dy="1.27292"/>
<feGaussianBlur stdDeviation="2.54583"/>
<feColorMatrix type="matrix" values="0 0 0 0 0.574021 0 0 0 0 0.574021 0 0 0 0 0.574021 0 0 0 0.5 0"/>
<feBlend mode="normal" in2="BackgroundImageFix" result="effect1_dropShadow"/>
<feBlend mode="normal" in="SourceGraphic" in2="effect1_dropShadow" result="shape"/>
</filter>
<filter id="filter31_d" x="345.487" y="399.869" width="25.1738" height="25.1738" filterUnits="userSpaceOnUse" color-interpolation-filters="sRGB">
<feFlood flood-opacity="0" result="BackgroundImageFix"/>
<feColorMatrix in="SourceAlpha" type="matrix" values="0 0 0 0 0 0 0 0 0 0 0 0 0 0 0 0 0 0 127 0"/>
<feOffset dy="1.27292"/>
<feGaussianBlur stdDeviation="2.54583"/>
<feColorMatrix type="matrix" values="0 0 0 0 0.574021 0 0 0 0 0.574021 0 0 0 0 0.574021 0 0 0 0.5 0"/>
<feBlend mode="normal" in2="BackgroundImageFix" result="effect1_dropShadow"/>
<feBlend mode="normal" in="SourceGraphic" in2="effect1_dropShadow" result="shape"/>
</filter>
</defs>
</svg>
