<?xml version="1.0" encoding="UTF-8"?>
<svg width="497px" height="421px" viewBox="0 0 497 421" version="1.1" xmlns="http://www.w3.org/2000/svg" xmlns:xlink="http://www.w3.org/1999/xlink">
    <!-- Generator: Sketch 61.2 (89653) - https://sketch.com -->
    <title>network-diagram</title>
    <desc>Created with Sketch.</desc>
    <g id="Page-1" stroke="none" stroke-width="1" fill="none" fill-rule="evenodd" opacity="0.50297619">
        <g id="network-diagram" transform="translate(1.000000, 0.000000)">
            <g id="Lines" transform="translate(5.807300, 6.545800)" stroke="#DED8C7">
                <path d="M203.9747,89.5422 C174.7987,133.8102 223.0907,201.7212 257.2377,213.7012" id="Path"></path>
                <path d="M99.8447,120.7312 C112.9237,229.3892 210.0117,231.4012 257.2987,211.7822" id="Path"></path>
                <path d="M361.4287,131.7982 C306.0937,124.7552 265.8497,156.4472 258.1207,214.5842" id="Path"></path>
                <path d="M257.2377,212.8172 C290.8037,194.2672 372.9527,177.4842 421.5357,222.9752" id="Path"></path>
                <path d="M259.0047,212.8172 C320.1787,217.8192 347.3437,278.6872 326.2157,327.4832" id="Path"></path>
                <path d="M156.1857,347.6052 C210.5147,345.0902 270.3777,278.1842 257.2377,213.7012" id="Path"></path>
                <path d="M81.2318,254.5412 C145.1187,291.2642 242.2067,264.0992 256.7947,211.7822" id="Path"></path>
                <path d="M239.6917,38.2314 C221.5817,45.274 205.4847,61.8746 205.4847,90.5482" id="Path"></path>
                <path d="M203.9757,89.5422 C197.4357,58.8564 194.9207,27.6675 218.5637,0" id="Path"></path>
                <path d="M98.3357,120.2282 C78.7168,83.0027 83.2442,48.2925 101.9007,14.4035" id="Path"></path>
                <path d="M363.6197,128.9292 C388.0907,102.6212 419.7827,91.5542 460.5287,107.6522" id="Path"></path>
                <path d="M361.4287,131.7982 C356.9017,107.6522 358.9137,80.9905 375.0107,62.8808" id="Path"></path>
                <path d="M178.8227,21.631 C170.2717,43.262 182.8477,73.9478 203.4727,89.5422" id="Path"></path>
                <path d="M58.0918,49.8014 C58.0918,78.475 71.6741,103.1242 97.8327,120.2282" id="Path"></path>
                <path d="M438.8977,81.9964 C400.6667,77.469 376.0167,93.0632 361.9317,132.8042" id="Path"></path>
                <path d="M350.8107,71.0673 C342.0707,90.0782 347.3707,121.4152 360.9257,132.3012" id="Path"></path>
                <path d="M155.6827,56.8442 C163.2287,81.4934 181.8417,94.0692 203.9747,89.5422" id="Path"></path>
                <path d="M42.4973,92.5602 C48.0308,114.6942 71.674,126.7672 99.8447,119.7252" id="Path"></path>
                <path d="M409.7217,60.8684 C388.0907,69.9232 364.6547,86.0207 364.6547,129.8112" id="Path"></path>
                <path d="M329.4907,92.4042 C332.7557,114.6942 337.3607,122.2602 359.4167,131.2952" id="Path"></path>
                <path d="M2.186,217.5162 C9.2648,231.0492 34.5405,257.1162 79.0123,253.1192" id="Path"></path>
                <path d="M0,179.7272 C8.5363,199.0902 36.5394,240.8762 80.2616,253.1182" id="Path"></path>
                <path d="M31.4305,266.6142 C43.298,277.0242 69.159,270.6392 79.325,253.4312" id="Path"></path>
                <path d="M95.8207,356.1572 C110.9117,368.7332 136.0637,365.2112 154.6767,349.1142" id="Path"></path>
                <path d="M421.2297,325.1232 C434.6847,305.3522 454.0167,257.5592 423.7047,224.5552" id="Path"></path>
                <path d="M267.5007,407.5942 C289.0387,397.1992 329.6767,365.4752 319.9287,321.7372" id="Path"></path>
                <path d="M271.8867,355.1512 C295.7367,356.9172 315.6517,345.5932 324.7067,325.9742" id="Path"></path>
                <path d="M452.5467,304.4462 C458.8117,283.5832 461.8467,238.5192 423.8657,225.1582" id="Path"></path>
                <path d="M304.9617,405.3452 C320.8177,390.4112 345.9787,352.9012 319.7667,322.3402" id="Path"></path>
                <path d="M484.1007,279.8252 C484.0227,264.6502 471.8767,232.2742 423.9237,224.1722" id="Path"></path>
                <path d="M344.5987,399.8002 C352.1187,386.6192 357.7877,352.5092 320.3107,321.5162" id="Path"></path>
            </g>
            <g id="Dots" transform="translate(0.195420, 0.939017)" fill-rule="nonzero">
                <path d="M120.63758,129.742983 C122.87058,121.407983 117.92458,112.839983 109.58958,110.606983 C101.25458,108.373983 92.68758,113.319983 90.45408,121.654983 C88.22078,129.989983 93.16658,138.556983 101.50158,140.789983 C109.83658,143.023983 118.40358,138.076983 120.63758,129.742983 Z" id="Path" fill="#000000"></path>
                <path d="M102.51258,264.100983 C104.70858,255.905983 99.84458,247.480983 91.64908,245.284983 C83.45318,243.088983 75.02878,247.952983 72.83268,256.148983 C70.63658,264.344983 75.50048,272.768983 83.69638,274.964983 C91.89258,277.160983 100.31658,272.296983 102.51258,264.100983 Z" id="Path" fill="#000000"></path>
                <path d="M175.23658,357.722983 C177.43258,349.526983 172.56858,341.101983 164.37258,338.905983 C156.17658,336.709983 147.75258,341.573983 145.55658,349.769983 C143.35958,357.965983 148.22358,366.389983 156.41958,368.585983 C164.61558,370.781983 173.04058,365.917983 175.23658,357.722983 Z" id="Path" fill="#000000"></path>
                <path d="M344.92458,336.824983 C347.12058,328.628983 342.25658,320.204983 334.06058,318.008983 C325.86458,315.812983 317.44058,320.675983 315.24458,328.871983 C313.04858,337.067983 317.91258,345.492983 326.10858,347.688983 C334.30458,349.884983 342.72858,345.020983 344.92458,336.824983 Z" id="Path" fill="#000000"></path>
                <path d="M441.88958,233.172983 C444.08558,224.976983 439.22158,216.552983 431.02558,214.356983 C422.82958,212.160983 414.40558,217.023983 412.20958,225.219983 C410.01358,233.415983 414.87658,241.840983 423.07258,244.036983 C431.26858,246.232983 439.69358,241.368983 441.88958,233.172983 Z" id="Path" fill="#000000"></path>
                <path d="M381.70458,142.895983 C383.90058,134.699983 379.03658,126.274983 370.84058,124.078983 C362.64458,121.882983 354.22058,126.746983 352.02458,134.942983 C349.82858,143.138983 354.69158,151.562983 362.88758,153.758983 C371.08358,155.954983 379.50858,151.090983 381.70458,142.895983 Z" id="Path" fill="#000000"></path>
                <path d="M224.70358,98.9889834 C226.87658,90.8792834 222.06458,82.5436834 213.95458,80.3707834 C205.84558,78.1977834 197.50958,83.0103834 195.33658,91.1198834 C193.16358,99.2289834 197.97658,107.564983 206.08558,109.737983 C214.19558,111.910983 222.53058,107.097983 224.70358,98.9889834 Z" id="Path" fill="#000000"></path>
                <path d="M209.89258,111.353983 C218.67358,111.353983 225.79258,104.235983 225.79258,95.4539834 C225.79258,86.6731834 218.67358,79.5546834 209.89258,79.5546834 C201.11158,79.5546834 193.99258,86.6731834 193.99258,95.4539834 C193.99258,104.235983 201.11158,111.353983 209.89258,111.353983 Z" id="Path" stroke="#FFFFFF" fill="#DA8210"></path>
                <path d="M120.70258,130.119983 C122.97558,121.637983 117.94158,112.918983 109.45958,110.646983 C100.97758,108.373983 92.25958,113.407983 89.98638,121.889983 C87.71368,130.371983 92.74758,139.089983 101.22958,141.362983 C109.71158,143.635983 118.42958,138.601983 120.70258,130.119983 Z" id="Path" stroke="#FFFFFF" fill="#A86815"></path>
                <path d="M103.06258,255.887983 C100.78958,247.405983 92.07158,242.371983 83.58908,244.644983 C75.10708,246.916983 70.07348,255.635983 72.34618,264.117983 C74.61898,272.599983 83.33738,277.632983 91.81958,275.360983 C100.30158,273.087983 105.33458,264.369983 103.06258,255.887983 Z" id="Path" stroke="#FFFFFF" fill="#F5CF9E"></path>
                <path d="M350.94358,138.269983 C350.94358,147.050983 358.06258,154.169983 366.84358,154.169983 C375.62458,154.169983 382.74358,147.050983 382.74358,138.269983 C382.74358,129.488983 375.62458,122.369983 366.84358,122.369983 C358.06258,122.369983 350.94358,129.488983 350.94358,138.269983 Z" id="Path" stroke="#FFFFFF" fill="#D9D7D7"></path>
                <path d="M248.15058,48.1222834 C250.68558,46.6586834 251.55358,43.4173834 250.09058,40.8823834 C248.62658,38.3474834 245.38558,37.4789834 242.85058,38.9424834 C240.31558,40.4060834 239.44758,43.6474834 240.91058,46.1823834 C242.37458,48.7172834 245.61558,49.5857834 248.15058,48.1222834 Z" id="Path" fill="#000000"></path>
                <path d="M248.15058,48.1222834 C250.68558,46.6586834 251.55358,43.4173834 250.09058,40.8823834 C248.62658,38.3474834 245.38558,37.4789834 242.85058,38.9424834 C240.31558,40.4060834 239.44758,43.6474834 240.91058,46.1823834 C242.37458,48.7172834 245.61558,49.5857834 248.15058,48.1222834 Z" id="Path" stroke="#FFFFFF" fill="#DA8210"></path>
                <path d="M9.04758,181.898983 C6.97778,179.829983 3.62208,179.829983 1.55232,181.898983 C-0.51744,183.968983 -0.51744,187.324983 1.55232,189.394983 C3.62208,191.463983 6.97778,191.463983 9.04758,189.394983 C11.11728,187.324983 11.11728,183.968983 9.04758,181.898983 Z" id="Path" fill="#000000"></path>
                <path d="M9.04758,181.898983 C6.97778,179.829983 3.62208,179.829983 1.55232,181.898983 C-0.51744,183.968983 -0.51744,187.324983 1.55232,189.394983 C3.62208,191.463983 6.97778,191.463983 9.04758,189.394983 C11.11728,187.324983 11.11728,183.968983 9.04758,181.898983 Z" id="Path" stroke="#FFFFFF" fill="#F5CF9E"></path>
                <path d="M226.01658,9.89068336 C228.55158,8.42718336 229.41958,5.18578336 227.95658,2.65085336 C226.49258,0.115933359 223.25158,-0.752596641 220.71658,0.710943359 C218.18158,2.17448336 217.31358,5.41588336 218.77658,7.95078336 C220.24058,10.4856834 223.48158,11.3542834 226.01658,9.89068336 Z" id="Path" fill="#000000"></path>
                <path d="M226.01658,9.89068336 C228.55158,8.42718336 229.41958,5.18578336 227.95658,2.65085336 C226.49258,0.115933359 223.25158,-0.752596641 220.71658,0.710943359 C218.18158,2.17448336 217.31358,5.41588336 218.77658,7.95078336 C220.24058,10.4856834 223.48158,11.3542834 226.01658,9.89068336 Z" id="Path" stroke="#FFFFFF" fill="#DA8210"></path>
                <path d="M111.88158,23.0422834 C113.34458,20.5073834 112.47658,17.2659834 109.94158,15.8023834 C107.40658,14.3388834 104.16558,15.2073834 102.70158,17.7423834 C101.23858,20.2772834 102.10658,23.5186834 104.64158,24.9821834 C107.17658,26.4456834 110.41758,25.5771834 111.88158,23.0422834 Z" id="Path" fill="#000000"></path>
                <path d="M111.88158,23.0422834 C113.34458,20.5073834 112.47658,17.2659834 109.94158,15.8023834 C107.40658,14.3388834 104.16558,15.2073834 102.70158,17.7423834 C101.23858,20.2772834 102.10658,23.5186834 104.64158,24.9821834 C107.17658,26.4456834 110.41758,25.5771834 111.88158,23.0422834 Z" id="Path" stroke="#FFFFFF" fill="#A86815"></path>
                <path d="M463.18558,117.542983 C465.72058,119.005983 468.96158,118.137983 470.42458,115.602983 C471.88858,113.067983 471.02058,109.826983 468.48558,108.362983 C465.95058,106.899983 462.70858,107.767983 461.24558,110.302983 C459.78158,112.837983 460.65058,116.078983 463.18558,117.542983 Z" id="Path" fill="#000000"></path>
                <path d="M463.18558,117.542983 C465.72058,119.005983 468.96158,118.137983 470.42458,115.602983 C471.88858,113.067983 471.02058,109.826983 468.48558,108.362983 C465.95058,106.899983 462.70858,107.767983 461.24558,110.302983 C459.78158,112.837983 460.65058,116.078983 463.18558,117.542983 Z" id="Path" stroke="#FFFFFF" fill="#D9D7D7"></path>
                <path d="M383.97358,73.2744834 C386.50858,71.8109834 387.37658,68.5695834 385.91358,66.0346834 C384.44958,63.4996834 381.20858,62.6311834 378.67358,64.0946834 C376.13858,65.5582834 375.26958,68.7996834 376.73358,71.3345834 C378.19658,73.8694834 381.43858,74.7379834 383.97358,73.2744834 Z" id="Path" fill="#000000"></path>
                <path d="M383.97358,73.2744834 C386.50858,71.8109834 387.37658,68.5695834 385.91358,66.0346834 C384.44958,63.4996834 381.20858,62.6311834 378.67358,64.0946834 C376.13858,65.5582834 375.26958,68.7996834 376.73358,71.3345834 C378.19658,73.8694834 381.43858,74.7379834 383.97358,73.2744834 Z" id="Path" stroke="#FFFFFF" fill="#D9D7D7"></path>
                <path d="M11.54548,219.375983 C9.47578,217.305983 6.11998,217.305983 4.05028,219.375983 C1.98048,221.445983 1.98048,224.800983 4.05028,226.870983 C6.11998,228.940983 9.47578,228.940983 11.54548,226.870983 C13.61528,224.800983 13.61528,221.445983 11.54548,219.375983 Z" id="Path" fill="#000000"></path>
                <path d="M11.54548,219.375983 C9.47578,217.305983 6.11998,217.305983 4.05028,219.375983 C1.98048,221.445983 1.98048,224.800983 4.05028,226.870983 C6.11998,228.940983 9.47578,228.940983 11.54548,226.870983 C13.61528,224.800983 13.61528,221.445983 11.54548,219.375983 Z" id="Path" stroke="#FFFFFF" fill="#F5CF9E"></path>
                <path d="M104.20458,356.814983 C101.65258,355.380983 98.42158,356.285983 96.98658,358.837983 C95.55258,361.388983 96.45758,364.620983 99.00958,366.054983 C101.56058,367.489983 104.79258,366.583983 106.22658,364.032983 C107.66158,361.480983 106.75558,358.249983 104.20458,356.814983 Z" id="Path" fill="#000000"></path>
                <path d="M104.20458,356.814983 C101.65258,355.380983 98.42158,356.285983 96.98658,358.837983 C95.55258,361.388983 96.45758,364.620983 99.00958,366.054983 C101.56058,367.489983 104.79258,366.583983 106.22658,364.032983 C107.66158,361.480983 106.75558,358.249983 104.20458,356.814983 Z" id="Path" stroke="#FFFFFF" fill="#36BFD4"></path>
                <path d="M186.77858,32.0247834 C189.31358,30.5611834 190.18258,27.3197834 188.71858,24.7848834 C187.25558,22.2499834 184.01358,21.3814834 181.47858,22.8449834 C178.94458,24.3084834 178.07558,27.5498834 179.53958,30.0847834 C181.00258,32.6197834 184.24358,33.4882834 186.77858,32.0247834 Z" id="Path" fill="#000000"></path>
                <path d="M186.77858,32.0247834 C189.31358,30.5611834 190.18258,27.3197834 188.71858,24.7848834 C187.25558,22.2499834 184.01358,21.3814834 181.47858,22.8449834 C178.94458,24.3084834 178.07558,27.5498834 179.53958,30.0847834 C181.00258,32.6197834 184.24358,33.4882834 186.77858,32.0247834 Z" id="Path" stroke="#FFFFFF" fill="#DA8210"></path>
                <path d="M68.77448,56.2283834 C69.53208,53.4010834 67.85418,50.4948834 65.02688,49.7373834 C62.19958,48.9797834 59.29338,50.6575834 58.53578,53.4849834 C57.77818,56.3122834 59.45608,59.2184834 62.28338,59.9760834 C65.11078,60.7335834 68.01688,59.0557834 68.77448,56.2283834 Z" id="Path" fill="#000000"></path>
                <path d="M68.77448,56.2283834 C69.53208,53.4010834 67.85418,50.4948834 65.02688,49.7373834 C62.19958,48.9797834 59.29338,50.6575834 58.53578,53.4849834 C57.77818,56.3122834 59.45608,59.2184834 62.28338,59.9760834 C65.11078,60.7335834 68.01688,59.0557834 68.77448,56.2283834 Z" id="Path" stroke="#FFFFFF" fill="#A86815"></path>
                <path d="M441.05058,92.3904834 C443.58558,93.8539834 446.82758,92.9854834 448.29058,90.4505834 C449.75458,87.9156834 448.88558,84.6742834 446.35058,83.2106834 C443.81558,81.7471834 440.57458,82.6156834 439.11058,85.1505834 C437.64758,87.6855834 438.51558,90.9269834 441.05058,92.3904834 Z" id="Path" fill="#000000"></path>
                <path d="M441.05058,92.3904834 C443.58558,93.8539834 446.82758,92.9854834 448.29058,90.4505834 C449.75458,87.9156834 448.88558,84.6742834 446.35058,83.2106834 C443.81558,81.7471834 440.57458,82.6156834 439.11058,85.1505834 C437.64758,87.6855834 438.51558,90.9269834 441.05058,92.3904834 Z" id="Path" stroke="#FFFFFF" fill="#D9D7D7"></path>
                <path d="M359.03658,81.2019834 C361.57158,79.7384834 362.43958,76.4970834 360.97658,73.9620834 C359.51258,71.4271834 356.27158,70.5586834 353.73658,72.0221834 C351.20158,73.4857834 350.33358,76.7271834 351.79658,79.2620834 C353.26058,81.7969834 356.50158,82.6654834 359.03658,81.2019834 Z" id="Path" fill="#000000"></path>
                <path d="M359.03658,81.2019834 C361.57158,79.7384834 362.43958,76.4970834 360.97658,73.9620834 C359.51258,71.4271834 356.27158,70.5586834 353.73658,72.0221834 C351.20158,73.4857834 350.33358,76.7271834 351.79658,79.2620834 C353.26058,81.7969834 356.50158,82.6654834 359.03658,81.2019834 Z" id="Path" stroke="#FFFFFF" fill="#D9D7D7"></path>
                <path d="M40.23638,268.422983 C38.16668,266.352983 34.81088,266.352983 32.74118,268.422983 C30.67138,270.492983 30.67138,273.848983 32.74118,275.917983 C34.81088,277.987983 38.16668,277.987983 40.23638,275.917983 C42.30618,273.848983 42.30618,270.492983 40.23638,268.422983 Z" id="Path" fill="#000000"></path>
                <path d="M40.23638,268.422983 C38.16668,266.352983 34.81088,266.352983 32.74118,268.422983 C30.67138,270.492983 30.67138,273.848983 32.74118,275.917983 C34.81088,277.987983 38.16668,277.987983 40.23638,275.917983 C42.30618,273.848983 42.30618,270.492983 40.23638,268.422983 Z" id="Path" stroke="#FFFFFF" fill="#F5CF9E"></path>
                <path d="M163.63858,67.2379834 C166.17358,65.7744834 167.04258,62.5330834 165.57858,59.9981834 C164.11558,57.4631834 160.87358,56.5946834 158.33858,58.0581834 C155.80358,59.5217834 154.93558,62.7631834 156.39858,65.2980834 C157.86258,67.8329834 161.10358,68.7014834 163.63858,67.2379834 Z" id="Path" fill="#000000"></path>
                <path d="M163.63858,67.2379834 C166.17358,65.7744834 167.04258,62.5330834 165.57858,59.9981834 C164.11558,57.4631834 160.87358,56.5946834 158.33858,58.0581834 C155.80358,59.5217834 154.93558,62.7631834 156.39858,65.2980834 C157.86258,67.8329834 161.10358,68.7014834 163.63858,67.2379834 Z" id="Path" stroke="#FFFFFF" fill="#DA8210"></path>
                <path d="M53.68308,99.4899834 C54.44068,96.6629834 52.76278,93.7568834 49.93548,92.9992834 C47.10808,92.2416834 44.20198,93.9195834 43.44438,96.7469834 C42.68678,99.5739834 44.36468,102.479983 47.19198,103.237983 C50.01938,103.995983 52.92548,102.317983 53.68308,99.4899834 Z" id="Path" fill="#000000"></path>
                <path d="M53.68308,99.4899834 C54.44068,96.6629834 52.76278,93.7568834 49.93548,92.9992834 C47.10808,92.2416834 44.20198,93.9195834 43.44438,96.7469834 C42.68678,99.5739834 44.36468,102.479983 47.19198,103.237983 C50.01938,103.995983 52.92548,102.317983 53.68308,99.4899834 Z" id="Path" stroke="#FFFFFF" fill="#A86815"></path>
                <path d="M412.88058,71.2622834 C415.41558,72.7258834 418.65658,71.8572834 420.12058,69.3223834 C421.58358,66.7874834 420.71558,63.5460834 418.18058,62.0825834 C415.64558,60.6189834 412.40358,61.4874834 410.94058,64.0224834 C409.47658,66.5573834 410.34558,69.7987834 412.88058,71.2622834 Z" id="Path" fill="#000000"></path>
                <path d="M412.88058,71.2622834 C415.41558,72.7258834 418.65658,71.8572834 420.12058,69.3223834 C421.58358,66.7874834 420.71558,63.5460834 418.18058,62.0825834 C415.64558,60.6189834 412.40358,61.4874834 410.94058,64.0224834 C409.47658,66.5573834 410.34558,69.7987834 412.88058,71.2622834 Z" id="Path" stroke="#FFFFFF" fill="#D9D7D7"></path>
                <path d="M339.63058,100.625983 C341.09358,98.0909834 340.22558,94.8489834 337.69058,93.3856834 C335.15558,91.9221834 331.91458,92.7906834 330.45058,95.3259834 C328.98758,97.8609834 329.85558,101.101983 332.39058,102.564983 C334.92558,104.028983 338.16658,103.159983 339.63058,100.625983 Z" id="Path" fill="#000000"></path>
                <path d="M339.63058,100.625983 C341.09358,98.0909834 340.22558,94.8489834 337.69058,93.3856834 C335.15558,91.9221834 331.91458,92.7906834 330.45058,95.3259834 C328.98758,97.8609834 329.85558,101.101983 332.39058,102.564983 C334.92558,104.028983 338.16658,103.159983 339.63058,100.625983 Z" id="Path" stroke="#FFFFFF" fill="#D9D7D7"></path>
                <path d="M427.47658,244.687983 C436.25758,244.687983 443.37558,237.568983 443.37558,228.787983 C443.37558,220.005983 436.25758,212.887983 427.47658,212.887983 C418.69458,212.887983 411.57658,220.005983 411.57658,228.787983 C411.57658,237.568983 418.69458,244.687983 427.47658,244.687983 Z" id="Path" stroke="#FFFFFF" fill="#737579"></path>
                <path d="M330.13158,348.662983 C338.91358,348.662983 346.03158,341.543983 346.03158,332.762983 C346.03158,323.981983 338.91358,316.862983 330.13158,316.862983 C321.35058,316.862983 314.23258,323.981983 314.23258,332.762983 C314.23258,341.543983 321.35058,348.662983 330.13158,348.662983 Z" id="Path" stroke="#FFFFFF" fill="#CFF9FF"></path>
                <path d="M160.59358,369.919983 C169.37558,369.919983 176.49358,362.800983 176.49358,354.019983 C176.49358,345.238983 169.37558,338.119983 160.59358,338.119983 C151.81258,338.119983 144.69458,345.238983 144.69458,354.019983 C144.69458,362.800983 151.81258,369.919983 160.59358,369.919983 Z" id="Path" stroke="#FFFFFF" fill="#36BFD4"></path>
                <path d="M421.74958,329.529983 C420.99258,332.356983 422.67058,335.262983 425.49758,336.020983 C428.32458,336.777983 431.23158,335.099983 431.98858,332.272983 C432.74658,329.445983 431.06858,326.539983 428.24158,325.781983 C425.41358,325.023983 422.50758,326.701983 421.74958,329.529983 Z" id="Path" fill="#000000"></path>
                <path d="M421.74958,329.529983 C420.99258,332.356983 422.67058,335.262983 425.49758,336.020983 C428.32458,336.777983 431.23158,335.099983 431.98858,332.272983 C432.74658,329.445983 431.06858,326.539983 428.24158,325.781983 C425.41358,325.023983 422.50758,326.701983 421.74958,329.529983 Z" id="Path" stroke="#FFFFFF" fill="#737579"></path>
                <path d="M269.30458,409.615983 C267.23458,411.684983 267.23458,415.040983 269.30458,417.110983 C271.37458,419.180983 274.72958,419.180983 276.79958,417.110983 C278.86958,415.040983 278.86958,411.684983 276.79958,409.615983 C274.72958,407.545983 271.37458,407.545983 269.30458,409.615983 Z" id="Path" fill="#CFF9FF"></path>
                <path d="M269.30458,409.615983 C267.23458,411.684983 267.23458,415.040983 269.30458,417.110983 C271.37458,419.180983 274.72958,419.180983 276.79958,417.110983 C278.86958,415.040983 278.86958,411.684983 276.79958,409.615983 C274.72958,407.545983 271.37458,407.545983 269.30458,409.615983 Z" id="Path" stroke="#FFFFFF" fill="#CFF9FF"></path>
                <path d="M275.57558,355.589983 C272.74758,356.346983 271.06958,359.252983 271.82758,362.080983 C272.58458,364.907983 275.49158,366.585983 278.31858,365.827983 C281.14558,365.070983 282.82358,362.163983 282.06658,359.336983 C281.30858,356.509983 278.40258,354.831983 275.57558,355.589983 Z" id="Path" fill="#CFF9FF"></path>
                <path d="M275.57558,355.589983 C272.74758,356.346983 271.06958,359.252983 271.82758,362.080983 C272.58458,364.907983 275.49158,366.585983 278.31858,365.827983 C281.14558,365.070983 282.82358,362.163983 282.06658,359.336983 C281.30858,356.509983 278.40258,354.831983 275.57558,355.589983 Z" id="Path" stroke="#FFFFFF" fill="#CFF9FF"></path>
                <path d="M452.95658,308.627983 C452.19858,311.454983 453.87658,314.360983 456.70458,315.118983 C459.53158,315.875983 462.43758,314.198983 463.19558,311.370983 C463.95258,308.543983 462.27458,305.637983 459.44758,304.879983 C456.62058,304.122983 453.71358,305.799983 452.95658,308.627983 Z" id="Path" fill="#000000"></path>
                <path d="M452.95658,308.627983 C452.19858,311.454983 453.87658,314.360983 456.70458,315.118983 C459.53158,315.875983 462.43758,314.198983 463.19558,311.370983 C463.95258,308.543983 462.27458,305.637983 459.44758,304.879983 C456.62058,304.122983 453.71358,305.799983 452.95658,308.627983 Z" id="Path" stroke="#FFFFFF" fill="#737579"></path>
                <path d="M306.78058,407.116983 C304.71058,409.186983 304.71058,412.542983 306.78058,414.611983 C308.85058,416.681983 312.20558,416.681983 314.27558,414.611983 C316.34558,412.542983 316.34558,409.186983 314.27558,407.116983 C312.20558,405.046983 308.85058,405.046983 306.78058,407.116983 Z" id="Path" fill="#CFF9FF"></path>
                <path d="M306.78058,407.116983 C304.71058,409.186983 304.71058,412.542983 306.78058,414.611983 C308.85058,416.681983 312.20558,416.681983 314.27558,414.611983 C316.34558,412.542983 316.34558,409.186983 314.27558,407.116983 C312.20558,405.046983 308.85058,405.046983 306.78058,407.116983 Z" id="Path" stroke="#FFFFFF" fill="#CFF9FF"></path>
                <path d="M484.22358,284.083983 C483.46658,286.911983 485.14458,289.817983 487.97158,290.574983 C490.79858,291.332983 493.70558,289.654983 494.46258,286.827983 C495.22058,283.999983 493.54258,281.093983 490.71558,280.336983 C487.88758,279.578983 484.98158,281.256983 484.22358,284.083983 Z" id="Path" fill="#000000"></path>
                <path d="M484.22358,284.083983 C483.46658,286.911983 485.14458,289.817983 487.97158,290.574983 C490.79858,291.332983 493.70558,289.654983 494.46258,286.827983 C495.22058,283.999983 493.54258,281.093983 490.71558,280.336983 C487.88758,279.578983 484.98158,281.256983 484.22358,284.083983 Z" id="Path" stroke="#FFFFFF" fill="#737579"></path>
                <path d="M346.13058,401.495983 C344.06058,403.565983 344.06058,406.920983 346.13058,408.990983 C348.20058,411.060983 351.55658,411.060983 353.62558,408.990983 C355.69558,406.920983 355.69558,403.565983 353.62558,401.495983 C351.55658,399.425983 348.20058,399.425983 346.13058,401.495983 Z" id="Path" fill="#CFF9FF"></path>
                <path d="M346.13058,401.495983 C344.06058,403.565983 344.06058,406.920983 346.13058,408.990983 C348.20058,411.060983 351.55658,411.060983 353.62558,408.990983 C355.69558,406.920983 355.69558,403.565983 353.62558,401.495983 C351.55658,399.425983 348.20058,399.425983 346.13058,401.495983 Z" id="Path" stroke="#FFFFFF" fill="#CFF9FF"></path>
                <path d="M262.40658,249.583983 C280.74358,249.583983 295.60758,234.718983 295.60758,216.382983 C295.60758,198.046983 280.74358,183.181983 262.40658,183.181983 C244.07058,183.181983 229.20558,198.046983 229.20558,216.382983 C229.20558,234.718983 244.07058,249.583983 262.40658,249.583983 Z" id="Path" stroke="#FFFFFF" fill="#00505C"></path>
            </g>
            <g id="Text" transform="translate(113.233000, 92.532100)" fill="#FFFFFF" fill-rule="nonzero">
                <path d="M124.875,7.0159 C125.853,7.0159 126.626,6.6909 127.187,6.0389 C127.747,5.3769 128.032,4.5419 128.032,3.5239 C128.032,2.4949 127.747,1.6599 127.176,0.998 C126.616,0.3361 125.842,0 124.875,0 L122.156,0 L122.156,7.0159 L124.875,7.0159 Z M123.103,0.886 L124.875,0.886 C125.578,0.886 126.127,1.1304 126.504,1.6294 C126.891,2.1182 127.085,2.7499 127.085,3.5239 C127.085,4.2869 126.891,4.9189 126.504,5.4069 C126.127,5.8859 125.578,6.1309 124.875,6.1309 L123.103,6.1309 L123.103,0.886 Z M129.953,4.2669 C130.065,3.4829 130.655,2.9939 131.46,2.9939 C132.234,2.9939 132.794,3.4829 132.906,4.2669 L129.953,4.2669 Z M133.822,4.6229 C133.822,3.8799 133.598,3.2889 133.15,2.8409 C132.712,2.3829 132.142,2.1589 131.46,2.1589 C130.767,2.1589 130.187,2.3829 129.718,2.8409 C129.26,3.2889 129.026,3.8799 129.026,4.6229 C129.026,5.3669 129.26,5.9679 129.718,6.4259 C130.187,6.8839 130.767,7.1179 131.46,7.1179 C132.407,7.1179 133.252,6.6699 133.649,5.8559 L133.262,5.7129 C133.079,5.6419 132.947,5.5809 132.855,5.5499 C132.6,6.0079 132.071,6.2829 131.49,6.2829 C130.676,6.2829 130.065,5.7739 129.953,4.9899 L133.812,4.9899 C133.822,4.9189 133.822,4.7959 133.822,4.6229 Z M140.469,3.0649 C141.151,3.0649 141.558,3.5439 141.558,4.3279 L141.558,7.0159 L142.485,7.0159 L142.485,4.2669 C142.485,2.9229 141.833,2.1589 140.652,2.1589 C139.888,2.1589 139.338,2.4849 139.002,3.1369 C138.778,2.6169 138.361,2.3015 137.76,2.2098 C137.597,2.1793 137.424,2.1691 137.241,2.1793 C136.762,2.22 136.161,2.4949 135.927,2.9739 L135.927,2.2607 L135,2.2607 L135,7.0159 L135.927,7.0159 L135.927,4.4499 C135.927,3.5239 136.518,3.0649 137.251,3.0649 C137.872,3.0649 138.279,3.5439 138.279,4.3179 L138.279,7.0159 L139.206,7.0159 L139.206,4.4499 C139.206,3.6359 139.695,3.0549 140.469,3.0649 Z M143.655,4.6229 C143.655,5.3669 143.899,5.9679 144.378,6.4259 C144.856,6.8839 145.447,7.1179 146.139,7.1179 C146.832,7.1179 147.422,6.8839 147.901,6.4259 C148.39,5.9569 148.634,5.3569 148.634,4.6229 C148.634,3.8899 148.39,3.2999 147.911,2.8409 C147.433,2.3829 146.842,2.1589 146.139,2.1589 C145.437,2.1589 144.846,2.3829 144.367,2.8409 C143.889,3.2999 143.655,3.8899 143.655,4.6229 Z M147.708,4.6229 C147.708,5.1019 147.555,5.4889 147.249,5.7839 C146.954,6.0799 146.577,6.2219 146.139,6.2219 C145.701,6.2219 145.325,6.0799 145.019,5.7839 C144.724,5.4889 144.571,5.1019 144.571,4.6229 C144.571,4.1549 144.724,3.7779 145.019,3.4929 C145.325,3.2079 145.701,3.0649 146.139,3.0649 C146.577,3.0649 146.954,3.2079 147.249,3.4929 C147.555,3.7779 147.708,4.1549 147.708,4.6229 Z M152.067,2.1589 C151.364,2.1589 150.774,2.3829 150.285,2.8409 C149.796,3.2999 149.552,3.8899 149.552,4.6229 C149.552,5.3569 149.796,5.9569 150.285,6.4259 C150.774,6.8839 151.364,7.1179 152.067,7.1179 C152.821,7.1179 153.432,6.8639 153.91,6.3439 L153.197,5.7539 C152.902,6.0689 152.525,6.2219 152.067,6.2219 C151.629,6.2219 151.252,6.0689 150.937,5.7739 C150.621,5.4789 150.468,5.0919 150.468,4.6229 C150.468,4.1649 150.621,3.7879 150.937,3.5029 C151.252,3.2079 151.629,3.0649 152.067,3.0649 C152.525,3.0649 152.902,3.2179 153.197,3.5129 L153.9,2.9229 C153.432,2.4135 152.821,2.1589 152.067,2.1589 Z M156.005,5.2849 C156.005,3.9409 156.443,3.0449 157.309,3.0449 C157.553,3.0449 157.787,3.0959 158.011,3.2079 L158.154,2.3422 C157.981,2.22 157.706,2.1589 157.329,2.1589 C156.677,2.1589 156.239,2.5459 156.005,3.3299 L156.005,2.2607 L155.078,2.2607 L155.078,7.0159 L156.005,7.0159 L156.005,5.2849 Z M163.661,7.0159 L163.661,2.2607 L162.745,2.2607 L162.745,2.9739 C162.449,2.4542 161.767,2.1589 161.075,2.1589 C160.402,2.1589 159.832,2.3829 159.364,2.8409 C158.895,3.2999 158.661,3.8899 158.661,4.6339 C158.661,5.3669 158.895,5.9679 159.364,6.4259 C159.832,6.8839 160.402,7.1179 161.075,7.1179 C161.767,7.1179 162.429,6.8129 162.745,6.2829 L162.745,7.0159 L163.661,7.0159 Z M162.734,4.6229 C162.734,5.1119 162.582,5.4989 162.276,5.7839 C161.971,6.0689 161.594,6.2119 161.156,6.2119 C160.718,6.2119 160.352,6.0589 160.056,5.7639 C159.761,5.4689 159.608,5.0819 159.608,4.6229 C159.608,4.1649 159.751,3.7879 160.046,3.5029 C160.341,3.2079 160.718,3.0649 161.156,3.0649 C161.574,3.0649 161.94,3.2079 162.256,3.4829 C162.571,3.7579 162.734,4.1449 162.734,4.6229 Z M167.412,2.1589 C166.709,2.1589 166.118,2.3829 165.63,2.8409 C165.141,3.2999 164.896,3.8899 164.896,4.6229 C164.896,5.3569 165.141,5.9569 165.63,6.4259 C166.118,6.8839 166.709,7.1179 167.412,7.1179 C168.165,7.1179 168.776,6.8639 169.255,6.3439 L168.542,5.7539 C168.247,6.0689 167.87,6.2219 167.412,6.2219 C166.974,6.2219 166.597,6.0689 166.281,5.7739 C165.966,5.4789 165.813,5.0919 165.813,4.6229 C165.813,4.1649 165.966,3.7879 166.281,3.5029 C166.597,3.2079 166.974,3.0649 167.412,3.0649 C167.87,3.0649 168.247,3.2179 168.542,3.5129 L169.245,2.9229 C168.776,2.4135 168.165,2.1589 167.412,2.1589 Z M174.62,2.2607 L173.632,2.2607 L172.206,5.7029 L170.78,2.2607 L169.793,2.2607 L171.697,6.8739 L170.699,9.3279 L171.666,9.3279 L174.62,2.2607 Z" id="Shape"></path>
                <path d="M279.096,48.9369 L283.353,48.9369 L283.353,48.0509 L280.043,48.0509 L280.043,45.9329 L282.844,45.9329 L282.844,45.0469 L280.043,45.0469 L280.043,42.8069 L283.251,42.8069 L283.251,41.9209 L279.096,41.9209 L279.096,48.9369 Z M286.741,44.0799 C286.039,44.0799 285.448,44.3039 284.959,44.7619 C284.47,45.2199 284.226,45.8109 284.226,46.5439 C284.226,47.2769 284.47,47.8779 284.959,48.3459 C285.448,48.8049 286.039,49.0389 286.741,49.0389 C287.495,49.0389 288.106,48.7839 288.584,48.2649 L287.872,47.6739 C287.576,47.9899 287.2,48.1429 286.741,48.1429 C286.303,48.1429 285.927,47.9899 285.611,47.6949 C285.295,47.3989 285.142,47.0119 285.142,46.5439 C285.142,46.0859 285.295,45.7089 285.611,45.4239 C285.927,45.1289 286.303,44.9859 286.741,44.9859 C287.2,44.9859 287.576,45.1389 287.872,45.4339 L288.574,44.8429 C288.106,44.3339 287.495,44.0799 286.741,44.0799 Z M289.318,46.5439 C289.318,47.2869 289.562,47.8879 290.041,48.3459 C290.519,48.8049 291.11,49.0389 291.802,49.0389 C292.495,49.0389 293.085,48.8049 293.564,48.3459 C294.053,47.8779 294.297,47.2769 294.297,46.5439 C294.297,45.8109 294.053,45.2199 293.574,44.7619 C293.096,44.3039 292.505,44.0799 291.802,44.0799 C291.1,44.0799 290.509,44.3039 290.03,44.7619 C289.552,45.2199 289.318,45.8109 289.318,46.5439 Z M293.371,46.5439 C293.371,47.0229 293.218,47.4099 292.912,47.7049 C292.617,47.9999 292.24,48.1429 291.802,48.1429 C291.365,48.1429 290.988,47.9999 290.682,47.7049 C290.387,47.4099 290.234,47.0229 290.234,46.5439 C290.234,46.0759 290.387,45.6989 290.682,45.4139 C290.988,45.1289 291.365,44.9859 291.802,44.9859 C292.24,44.9859 292.617,45.1289 292.912,45.4139 C293.218,45.6989 293.371,46.0759 293.371,46.5439 Z M296.457,46.3709 C296.457,45.4339 297.058,44.9859 297.801,44.9859 C298.453,44.9859 298.85,45.4649 298.85,46.2489 L298.85,48.9369 L299.777,48.9369 L299.777,46.1879 C299.777,44.8429 299.125,44.0799 297.944,44.0799 C297.364,44.0799 296.732,44.3649 296.457,44.8939 L296.457,44.1809 L295.531,44.1809 L295.531,48.9369 L296.457,48.9369 L296.457,46.3709 Z M300.953,46.5439 C300.953,47.2869 301.197,47.8879 301.676,48.3459 C302.155,48.8049 302.745,49.0389 303.438,49.0389 C304.13,49.0389 304.721,48.8049 305.199,48.3459 C305.688,47.8779 305.933,47.2769 305.933,46.5439 C305.933,45.8109 305.688,45.2199 305.21,44.7619 C304.731,44.3039 304.14,44.0799 303.438,44.0799 C302.735,44.0799 302.144,44.3039 301.666,44.7619 C301.187,45.2199 300.953,45.8109 300.953,46.5439 Z M305.006,46.5439 C305.006,47.0229 304.853,47.4099 304.548,47.7049 C304.252,47.9999 303.876,48.1429 303.438,48.1429 C303,48.1429 302.623,47.9999 302.317,47.7049 C302.022,47.4099 301.869,47.0229 301.869,46.5439 C301.869,46.0759 302.022,45.6989 302.317,45.4139 C302.623,45.1289 303,44.9859 303.438,44.9859 C303.876,44.9859 304.252,45.1289 304.548,45.4139 C304.853,45.6989 305.006,46.0759 305.006,46.5439 Z M312.634,44.9859 C313.317,44.9859 313.724,45.4649 313.724,46.2489 L313.724,48.9369 L314.651,48.9369 L314.651,46.1879 C314.651,44.8429 313.999,44.0799 312.818,44.0799 C312.054,44.0799 311.504,44.4059 311.168,45.0569 C310.944,44.5379 310.526,44.2219 309.925,44.1309 C309.763,44.0999 309.589,44.0899 309.406,44.0999 C308.928,44.1409 308.327,44.4159 308.092,44.8939 L308.092,44.1809 L307.166,44.1809 L307.166,48.9369 L308.092,48.9369 L308.092,46.3709 C308.092,45.4439 308.683,44.9859 309.416,44.9859 C310.037,44.9859 310.445,45.4649 310.445,46.2389 L310.445,48.9369 L311.372,48.9369 L311.372,46.3709 C311.372,45.5559 311.86,44.9759 312.634,44.9859 Z M317.052,48.9369 L317.052,44.1809 L316.136,44.1809 L316.136,48.9369 L317.052,48.9369 Z M316.136,42.8579 C316.39,43.0919 316.798,43.0919 317.042,42.8579 C317.297,42.6229 317.297,42.2359 317.042,42.0019 C316.798,41.7679 316.39,41.7679 316.136,42.0019 C315.891,42.2359 315.891,42.6229 316.136,42.8579 Z M320.802,44.0799 C320.099,44.0799 319.508,44.3039 319.02,44.7619 C318.531,45.2199 318.286,45.8109 318.286,46.5439 C318.286,47.2769 318.531,47.8779 319.02,48.3459 C319.508,48.8049 320.099,49.0389 320.802,49.0389 C321.555,49.0389 322.166,48.7839 322.645,48.2649 L321.932,47.6739 C321.637,47.9899 321.26,48.1429 320.802,48.1429 C320.364,48.1429 319.987,47.9899 319.671,47.6949 C319.356,47.3989 319.203,47.0119 319.203,46.5439 C319.203,46.0859 319.356,45.7089 319.671,45.4239 C319.987,45.1289 320.364,44.9859 320.802,44.9859 C321.26,44.9859 321.637,45.1389 321.932,45.4339 L322.635,44.8429 C322.166,44.3339 321.555,44.0799 320.802,44.0799 Z M326.642,48.9369 L330.898,48.9369 L330.898,48.0509 L327.589,48.0509 L327.589,45.9329 L330.389,45.9329 L330.389,45.0469 L327.589,45.0469 L327.589,42.8069 L330.797,42.8069 L330.797,41.9209 L326.642,41.9209 L326.642,48.9369 Z M338.044,41.5949 C336.812,41.5949 336.221,42.3889 336.221,43.7029 L336.221,44.1809 L333.451,44.1809 L333.451,43.7029 C333.441,42.8879 333.737,42.4809 334.337,42.4809 L334.857,42.4809 L334.857,41.5949 L334.337,41.5949 C333.105,41.5949 332.515,42.3889 332.515,43.7029 L332.515,44.1809 L331.598,44.1809 L331.598,44.9659 L332.515,44.9659 L332.515,48.9369 L333.451,48.9369 L333.451,44.9659 L336.221,44.9659 L336.221,48.9369 L337.158,48.9369 L337.158,44.9659 L338.258,44.9659 L338.258,44.1809 L337.158,44.1809 L337.158,43.7029 C337.148,42.8879 337.443,42.4809 338.044,42.4809 L338.563,42.4809 L338.563,41.5949 L338.044,41.5949 Z M339.838,46.1879 C339.95,45.4029 340.541,44.9149 341.346,44.9149 C342.119,44.9149 342.68,45.4029 342.792,46.1879 L339.838,46.1879 Z M343.708,46.5439 C343.708,45.8009 343.484,45.2099 343.036,44.7619 C342.598,44.3039 342.028,44.0799 341.346,44.0799 C340.653,44.0799 340.073,44.3039 339.604,44.7619 C339.146,45.2099 338.912,45.8009 338.912,46.5439 C338.912,47.2869 339.146,47.8879 339.604,48.3459 C340.073,48.8049 340.653,49.0389 341.346,49.0389 C342.293,49.0389 343.138,48.5909 343.535,47.7759 L343.148,47.6339 C342.965,47.5619 342.832,47.5009 342.741,47.4709 C342.486,47.9289 341.957,48.2039 341.376,48.2039 C340.561,48.2039 339.95,47.6949 339.838,46.9109 L343.698,46.9109 C343.708,46.8389 343.708,46.7169 343.708,46.5439 Z M347.085,44.0799 C346.383,44.0799 345.792,44.3039 345.303,44.7619 C344.815,45.2199 344.57,45.8109 344.57,46.5439 C344.57,47.2769 344.815,47.8779 345.303,48.3459 C345.792,48.8049 346.383,49.0389 347.085,49.0389 C347.839,49.0389 348.45,48.7839 348.929,48.2649 L348.216,47.6739 C347.921,47.9899 347.544,48.1429 347.085,48.1429 C346.648,48.1429 346.271,47.9899 345.955,47.6949 C345.639,47.3989 345.487,47.0119 345.487,46.5439 C345.487,46.0859 345.639,45.7089 345.955,45.4239 C346.271,45.1289 346.648,44.9859 347.085,44.9859 C347.544,44.9859 347.921,45.1389 348.216,45.4339 L348.918,44.8429 C348.45,44.3339 347.839,44.0799 347.085,44.0799 Z M351.38,42.3889 L350.453,42.3889 L350.453,44.1809 L349.598,44.1809 L349.598,44.9659 L350.453,44.9659 L350.453,48.9369 L351.38,48.9369 L351.38,44.9659 L352.388,44.9659 L352.388,44.1809 L351.38,44.1809 L351.38,42.3889 Z M355.169,46.9919 C355.567,47.0839 355.811,47.2669 355.801,47.5929 C355.791,47.9289 355.516,48.1839 355.078,48.2139 C354.782,48.2339 354.538,48.1839 354.324,48.0509 C354.11,47.9389 353.978,47.7659 353.937,47.5109 L353.092,47.5109 C353.102,47.9699 353.286,48.3459 353.642,48.6209 C353.998,48.8959 354.406,49.0389 354.864,49.0389 C355.383,49.0389 355.811,48.9069 356.167,48.6519 C356.524,48.3869 356.707,48.0409 356.707,47.6129 C356.707,46.8899 356.3,46.4319 355.475,46.2279 L354.772,46.0549 C354.477,45.9639 354.284,45.8409 354.212,45.6889 C354.161,45.5869 354.161,45.4649 354.202,45.3119 C354.273,45.0569 354.558,44.8839 354.915,44.8839 C355.292,44.8839 355.607,45.0879 355.658,45.4239 L356.544,45.4239 C356.463,44.5179 355.78,44.0799 354.895,44.0799 C354.467,44.0799 354.09,44.1919 353.774,44.4259 C353.459,44.6599 353.275,44.9449 353.245,45.2909 C353.163,46.1369 353.611,46.5949 354.518,46.8389 L355.169,46.9919 Z" id="Shape"></path>
                <path d="M342.498,136.0629 C343.119,136.0119 343.577,135.7779 343.873,135.3709 C344.178,134.9629 344.331,134.4739 344.331,133.9039 C344.331,133.2929 344.158,132.7739 343.812,132.3459 C343.465,131.9179 342.946,131.7049 342.254,131.7049 L339.555,131.7049 L339.555,138.7209 L340.512,138.7209 L340.512,136.0939 L341.408,136.0939 L343.221,138.7209 L344.372,138.7209 L342.498,136.0629 Z M342.223,132.5909 C342.987,132.5909 343.353,133.1809 343.353,133.9039 C343.353,134.6369 342.987,135.2079 342.182,135.2079 L340.512,135.2079 L340.512,132.5909 L342.223,132.5909 Z M350.142,138.7209 L350.142,133.9649 L349.226,133.9649 L349.226,134.6779 C348.93,134.1589 348.248,133.8629 347.556,133.8629 C346.883,133.8629 346.313,134.0879 345.845,134.5459 C345.376,135.0039 345.142,135.5949 345.142,136.3379 C345.142,137.0709 345.376,137.6719 345.845,138.1299 C346.313,138.5889 346.883,138.8229 347.556,138.8229 C348.248,138.8229 348.91,138.5169 349.226,137.9879 L349.226,138.7209 L350.142,138.7209 Z M349.215,136.3279 C349.215,136.8169 349.063,137.2039 348.757,137.4889 C348.452,137.7739 348.075,137.9159 347.637,137.9159 C347.199,137.9159 346.833,137.7639 346.537,137.4679 C346.242,137.1729 346.089,136.7859 346.089,136.3279 C346.089,135.8699 346.232,135.4929 346.527,135.2079 C346.822,134.9119 347.199,134.7699 347.637,134.7699 C348.055,134.7699 348.421,134.9119 348.737,135.1869 C349.052,135.4619 349.215,135.8489 349.215,136.3279 Z M353.893,133.8629 C353.19,133.8629 352.599,134.0879 352.111,134.5459 C351.622,135.0039 351.377,135.5949 351.377,136.3279 C351.377,137.0609 351.622,137.6619 352.111,138.1299 C352.599,138.5889 353.19,138.8229 353.893,138.8229 C354.646,138.8229 355.257,138.5679 355.736,138.0489 L355.023,137.4579 C354.728,137.7739 354.351,137.9269 353.893,137.9269 C353.455,137.9269 353.078,137.7739 352.762,137.4789 C352.447,137.1829 352.294,136.7959 352.294,136.3279 C352.294,135.8699 352.447,135.4929 352.762,135.2079 C353.078,134.9119 353.455,134.7699 353.893,134.7699 C354.351,134.7699 354.728,134.9229 355.023,135.2179 L355.726,134.6269 C355.257,134.1179 354.646,133.8629 353.893,133.8629 Z M357.396,135.9709 C357.508,135.1869 358.098,134.6989 358.903,134.6989 C359.677,134.6989 360.237,135.1869 360.349,135.9709 L357.396,135.9709 Z M361.265,136.3279 C361.265,135.5839 361.041,134.9939 360.593,134.5459 C360.155,134.0879 359.585,133.8629 358.903,133.8629 C358.21,133.8629 357.63,134.0879 357.162,134.5459 C356.703,134.9939 356.469,135.5839 356.469,136.3279 C356.469,137.0709 356.703,137.6719 357.162,138.1299 C357.63,138.5889 358.21,138.8229 358.903,138.8229 C359.85,138.8229 360.695,138.3749 361.092,137.5599 L360.705,137.4169 C360.522,137.3459 360.39,137.2849 360.298,137.2549 C360.043,137.7129 359.514,137.9879 358.933,137.9879 C358.119,137.9879 357.508,137.4789 357.396,136.6939 L361.255,136.6939 C361.265,136.6229 361.265,136.5009 361.265,136.3279 Z" id="Shape"></path>
                <path d="M244.596,243.4499 L243.303,238.9089 L242.58,238.9089 L241.287,243.4499 L239.525,237.9619 L238.507,237.9619 L240.879,244.9779 L241.704,244.9779 L242.936,240.5989 L244.179,244.9779 L245.004,244.9779 L247.376,237.9619 L246.358,237.9619 L244.596,243.4499 Z M247.514,242.5849 C247.514,243.3279 247.758,243.9289 248.237,244.3869 C248.715,244.8459 249.306,245.0799 249.998,245.0799 C250.691,245.0799 251.281,244.8459 251.76,244.3869 C252.249,243.9189 252.493,243.3179 252.493,242.5849 C252.493,241.8519 252.249,241.2609 251.77,240.8029 C251.292,240.3439 250.701,240.1199 249.998,240.1199 C249.296,240.1199 248.705,240.3439 248.226,240.8029 C247.748,241.2609 247.514,241.8519 247.514,242.5849 Z M251.567,242.5849 C251.567,243.0629 251.414,243.4499 251.108,243.7459 C250.813,244.0409 250.436,244.1839 249.998,244.1839 C249.56,244.1839 249.184,244.0409 248.878,243.7459 C248.583,243.4499 248.43,243.0629 248.43,242.5849 C248.43,242.1159 248.583,241.7399 248.878,241.4539 C249.184,241.1689 249.56,241.0269 249.998,241.0269 C250.436,241.0269 250.813,241.1689 251.108,241.4539 C251.414,241.7399 251.567,242.1159 251.567,242.5849 Z M254.653,243.2469 C254.653,241.9029 255.091,241.0059 255.957,241.0059 C256.201,241.0059 256.435,241.0569 256.659,241.1689 L256.802,240.3039 C256.629,240.1819 256.354,240.1199 255.977,240.1199 C255.325,240.1199 254.887,240.5069 254.653,241.2919 L254.653,240.2219 L253.726,240.2219 L253.726,244.9779 L254.653,244.9779 L254.653,243.2469 Z M260.83,244.9779 L262.052,244.9779 L259.526,242.2789 L261.563,240.2219 L260.3,240.2219 L258.661,241.8819 L258.661,237.6359 L257.744,237.6359 L257.744,244.9779 L258.661,244.9779 L258.661,242.6559 L260.83,244.9779 Z" id="Shape"></path>
                <path d="M73.177,259.8279 L74.338,262.9449 L72.016,262.9449 L73.177,259.8279 Z M75.346,265.5819 L76.344,265.5819 L73.687,258.5659 L72.668,258.5659 L70,265.5819 L71.008,265.5819 L71.691,263.7999 L74.664,263.7999 L75.346,265.5819 Z M80.425,263.3929 C80.425,264.3399 79.844,264.7779 79.08,264.7779 C78.429,264.7779 78.042,264.2989 78.042,263.5149 L78.042,260.8259 L77.115,260.8259 L77.115,263.5759 C77.105,264.9199 77.767,265.6839 78.948,265.6839 C79.528,265.6839 80.15,265.3989 80.425,264.8689 L80.425,265.5819 L81.351,265.5819 L81.351,260.8259 L80.425,260.8259 L80.425,263.3929 Z M84.167,259.0339 L83.24,259.0339 L83.24,260.8259 L82.385,260.8259 L82.385,261.6109 L83.24,261.6109 L83.24,265.5819 L84.167,265.5819 L84.167,261.6109 L85.175,261.6109 L85.175,260.8259 L84.167,260.8259 L84.167,259.0339 Z M85.84,263.1889 C85.84,263.9319 86.085,264.5329 86.563,264.9909 C87.042,265.4499 87.632,265.6839 88.325,265.6839 C89.017,265.6839 89.608,265.4499 90.087,264.9909 C90.575,264.5229 90.82,263.9219 90.82,263.1889 C90.82,262.4559 90.575,261.8649 90.097,261.4069 C89.618,260.9489 89.028,260.7249 88.325,260.7249 C87.622,260.7249 87.032,260.9489 86.553,261.4069 C86.074,261.8649 85.84,262.4559 85.84,263.1889 Z M89.893,263.1889 C89.893,263.6679 89.74,264.0549 89.435,264.3499 C89.14,264.6449 88.763,264.7879 88.325,264.7879 C87.887,264.7879 87.51,264.6449 87.205,264.3499 C86.909,264.0549 86.757,263.6679 86.757,263.1889 C86.757,262.7199 86.909,262.3439 87.205,262.0589 C87.51,261.7729 87.887,261.6309 88.325,261.6309 C88.763,261.6309 89.14,261.7729 89.435,262.0589 C89.74,262.3439 89.893,262.7199 89.893,263.1889 Z M97.522,261.6309 C98.204,261.6309 98.611,262.1089 98.611,262.8939 L98.611,265.5819 L99.538,265.5819 L99.538,262.8329 C99.538,261.4879 98.886,260.7249 97.705,260.7249 C96.941,260.7249 96.391,261.0499 96.055,261.7019 C95.831,261.1829 95.414,260.8669 94.813,260.7749 C94.65,260.7449 94.477,260.7349 94.293,260.7449 C93.815,260.7859 93.214,261.0609 92.98,261.5389 L92.98,260.8259 L92.053,260.8259 L92.053,265.5819 L92.98,265.5819 L92.98,263.0159 C92.98,262.0889 93.57,261.6309 94.304,261.6309 C94.925,261.6309 95.332,262.1089 95.332,262.8829 L95.332,265.5819 L96.259,265.5819 L96.259,263.0159 C96.259,262.2009 96.748,261.6209 97.522,261.6309 Z M105.707,265.5819 L105.707,260.8259 L104.791,260.8259 L104.791,261.5389 C104.496,261.0199 103.813,260.7249 103.121,260.7249 C102.449,260.7249 101.879,260.9489 101.41,261.4069 C100.942,261.8649 100.707,262.4559 100.707,263.1989 C100.707,263.9319 100.942,264.5329 101.41,264.9909 C101.879,265.4499 102.449,265.6839 103.121,265.6839 C103.813,265.6839 104.475,265.3779 104.791,264.8489 L104.791,265.5819 L105.707,265.5819 Z M104.781,263.1889 C104.781,263.6779 104.628,264.0649 104.323,264.3499 C104.017,264.6349 103.64,264.7779 103.202,264.7779 C102.764,264.7779 102.398,264.6249 102.103,264.3289 C101.807,264.0339 101.655,263.6469 101.655,263.1889 C101.655,262.7309 101.797,262.3539 102.092,262.0689 C102.388,261.7729 102.764,261.6309 103.202,261.6309 C103.62,261.6309 103.986,261.7729 104.302,262.0479 C104.618,262.3229 104.781,262.7099 104.781,263.1889 Z M108.542,259.0339 L107.615,259.0339 L107.615,260.8259 L106.759,260.8259 L106.759,261.6109 L107.615,261.6109 L107.615,265.5819 L108.542,265.5819 L108.542,261.6109 L109.55,261.6109 L109.55,260.8259 L108.542,260.8259 L108.542,259.0339 Z M111.516,265.5819 L111.516,260.8259 L110.6,260.8259 L110.6,265.5819 L111.516,265.5819 Z M110.6,259.5029 C110.854,259.7369 111.262,259.7369 111.506,259.5029 C111.761,259.2679 111.761,258.8809 111.506,258.6469 C111.262,258.4129 110.854,258.4129 110.6,258.6469 C110.355,258.8809 110.355,259.2679 110.6,259.5029 Z M112.75,263.1889 C112.75,263.9319 112.995,264.5329 113.473,264.9909 C113.952,265.4499 114.543,265.6839 115.235,265.6839 C115.928,265.6839 116.518,265.4499 116.997,264.9909 C117.486,264.5229 117.73,263.9219 117.73,263.1889 C117.73,262.4559 117.486,261.8649 117.007,261.4069 C116.528,260.9489 115.938,260.7249 115.235,260.7249 C114.533,260.7249 113.942,260.9489 113.463,261.4069 C112.985,261.8649 112.75,262.4559 112.75,263.1889 Z M116.803,263.1889 C116.803,263.6679 116.651,264.0549 116.345,264.3499 C116.05,264.6449 115.673,264.7879 115.235,264.7879 C114.797,264.7879 114.421,264.6449 114.115,264.3499 C113.82,264.0549 113.667,263.6679 113.667,263.1889 C113.667,262.7199 113.82,262.3439 114.115,262.0589 C114.421,261.7729 114.797,261.6309 115.235,261.6309 C115.673,261.6309 116.05,261.7729 116.345,262.0589 C116.651,262.3439 116.803,262.7199 116.803,263.1889 Z M119.89,263.0159 C119.89,262.0789 120.491,261.6309 121.234,261.6309 C121.886,261.6309 122.283,262.1089 122.283,262.8939 L122.283,265.5819 L123.21,265.5819 L123.21,262.8329 C123.21,261.4879 122.558,260.7249 121.377,260.7249 C120.796,260.7249 120.165,261.0099 119.89,261.5389 L119.89,260.8259 L118.963,260.8259 L118.963,265.5819 L119.89,265.5819 L119.89,263.0159 Z" id="Shape"></path>
                <path d="M145.395,126.7549 C145.395,127.3299 145.194,127.8109 144.806,128.1729 C144.418,128.5339 143.964,128.7209 143.415,128.7209 C142.867,128.7209 142.399,128.5339 142.011,128.1729 C141.623,127.8109 141.436,127.3299 141.436,126.7549 L141.436,120.7359 L139.992,120.7359 L139.992,126.7549 C139.992,127.7309 140.326,128.5339 140.981,129.1619 C141.65,129.7779 142.466,130.0849 143.415,130.0849 C144.365,130.0849 145.167,129.7779 145.823,129.1619 C146.491,128.5339 146.826,127.7309 146.826,126.7549 L146.826,120.7359 L145.395,120.7359 L145.395,126.7549 Z M155.222,123.1709 C155.222,121.6729 154.232,120.7359 152.667,120.7359 L149.136,120.7359 L149.136,129.9509 L152.948,129.9509 C153.791,129.9509 154.459,129.6969 154.954,129.1759 C155.463,128.6539 155.717,128.0119 155.717,127.2499 C155.717,126.7679 155.556,126.3139 155.249,125.8719 C154.941,125.4309 154.54,125.1629 154.031,125.0429 C154.821,124.7349 155.222,124.1069 155.222,123.1709 Z M150.567,122.0339 L152.52,122.0339 C153.282,122.0339 153.751,122.4749 153.751,123.2239 C153.751,123.9599 153.323,124.5209 152.614,124.5209 L150.567,124.5209 L150.567,122.0339 Z M152.841,125.7379 C153.256,125.7379 153.59,125.8989 153.844,126.2069 C154.098,126.5139 154.232,126.8619 154.232,127.2359 C154.232,127.9849 153.697,128.6539 152.881,128.6539 L150.567,128.6539 L150.567,125.7379 L152.841,125.7379 Z M158.965,129.9509 L158.965,120.7359 L157.548,120.7359 L157.548,129.9509 L158.965,129.9509 Z" id="Shape"></path>
                <path d="M4.757,163.9929 L4.757,167.0889 L1.366,167.0889 L1.366,163.9929 L0.419,163.9929 L0.419,171.0099 L1.366,171.0099 L1.366,167.9549 L4.757,167.9549 L4.757,171.0099 L5.714,171.0099 L5.714,163.9929 L4.757,163.9929 Z M7.957,168.2599 C8.069,167.4759 8.66,166.9869 9.464,166.9869 C10.238,166.9869 10.798,167.4759 10.91,168.2599 L7.957,168.2599 Z M11.827,168.6159 C11.827,167.8729 11.603,167.2819 11.155,166.8339 C10.717,166.3759 10.146,166.1519 9.464,166.1519 C8.772,166.1519 8.191,166.3759 7.723,166.8339 C7.264,167.2819 7.03,167.8729 7.03,168.6159 C7.03,169.3599 7.264,169.9609 7.723,170.4189 C8.191,170.8769 8.772,171.1109 9.464,171.1109 C10.411,171.1109 11.256,170.6629 11.653,169.8489 L11.267,169.7059 C11.083,169.6349 10.951,169.5739 10.859,169.5429 C10.605,170.0009 10.075,170.2759 9.495,170.2759 C8.68,170.2759 8.069,169.7669 7.957,168.9829 L11.816,168.9829 C11.827,168.9119 11.827,168.7899 11.827,168.6159 Z M17.689,171.0099 L17.689,166.2539 L16.772,166.2539 L16.772,166.9669 C16.477,166.4469 15.795,166.1519 15.102,166.1519 C14.43,166.1519 13.86,166.3759 13.391,166.8339 C12.923,167.2929 12.689,167.8829 12.689,168.6269 C12.689,169.3599 12.923,169.9609 13.391,170.4189 C13.86,170.8769 14.43,171.1109 15.102,171.1109 C15.795,171.1109 16.457,170.8059 16.772,170.2759 L16.772,171.0099 L17.689,171.0099 Z M16.762,168.6159 C16.762,169.1049 16.609,169.4919 16.304,169.7769 C15.998,170.0619 15.622,170.2049 15.184,170.2049 C14.746,170.2049 14.379,170.0519 14.084,169.7569 C13.789,169.4619 13.636,169.0749 13.636,168.6159 C13.636,168.1579 13.778,167.7809 14.074,167.4959 C14.369,167.2009 14.746,167.0579 15.184,167.0579 C15.601,167.0579 15.968,167.2009 16.283,167.4759 C16.599,167.7509 16.762,168.1379 16.762,168.6159 Z M19.24,171.0099 L20.166,171.0099 L20.166,163.6669 L19.24,163.6669 L19.24,171.0099 Z M22.999,164.4619 L22.072,164.4619 L22.072,166.2539 L21.217,166.2539 L21.217,167.0379 L22.072,167.0379 L22.072,171.0099 L22.999,171.0099 L22.999,167.0379 L24.007,167.0379 L24.007,166.2539 L22.999,166.2539 L22.999,164.4619 Z M25.984,168.4429 C25.984,167.9749 26.127,167.6289 26.422,167.4049 C26.717,167.1699 27.053,167.0579 27.43,167.0579 C28.092,167.0579 28.55,167.5469 28.55,168.3209 L28.55,171.0099 L29.477,171.0099 L29.477,168.2599 C29.487,166.9259 28.744,166.1519 27.552,166.1519 C27.257,166.1519 26.951,166.2229 26.636,166.3659 C26.33,166.4979 26.116,166.7019 25.984,166.9669 L25.984,163.6669 L25.057,163.6669 L25.057,171.0099 L25.984,171.0099 L25.984,168.4429 Z" id="Shape"></path>
                <path d="M20.968,31.0279 C20.307,30.4069 19.512,30.1019 18.596,30.1019 C17.608,30.1019 16.763,30.4479 16.08,31.1499 C15.398,31.8529 15.052,32.6979 15.052,33.7059 C15.052,34.7039 15.398,35.5499 16.08,36.2519 C16.763,36.9549 17.608,37.3009 18.596,37.3009 C20.663,37.3009 21.916,36.0789 21.916,33.6759 L18.84,33.6759 L18.84,34.5009 L20.836,34.5009 C20.806,35.0809 20.592,35.5389 20.174,35.8859 C19.757,36.2219 19.237,36.3949 18.596,36.3949 C17.873,36.3949 17.252,36.1299 16.753,35.6109 C16.254,35.0909 15.999,34.4499 15.999,33.7059 C15.999,32.9629 16.254,32.3219 16.753,31.8019 C17.252,31.2729 17.873,31.0079 18.596,31.0079 C19.237,31.0079 19.797,31.2219 20.286,31.6599 L20.968,31.0279 Z M23.635,34.4499 C23.747,33.6659 24.338,33.1769 25.142,33.1769 C25.916,33.1769 26.476,33.6659 26.588,34.4499 L23.635,34.4499 Z M27.505,34.8059 C27.505,34.0629 27.281,33.4719 26.833,33.0239 C26.395,32.5659 25.824,32.3419 25.142,32.3419 C24.45,32.3419 23.869,32.5659 23.401,33.0239 C22.943,33.4719 22.708,34.0629 22.708,34.8059 C22.708,35.5499 22.943,36.1499 23.401,36.6089 C23.869,37.0669 24.45,37.3009 25.142,37.3009 C26.089,37.3009 26.934,36.8529 27.332,36.0379 L26.945,35.8959 C26.761,35.8249 26.629,35.7629 26.537,35.7329 C26.283,36.1909 25.753,36.4659 25.173,36.4659 C24.358,36.4659 23.747,35.9569 23.635,35.1729 L27.495,35.1729 C27.505,35.1019 27.505,34.9789 27.505,34.8059 Z M29.609,34.6329 C29.609,33.6959 30.21,33.2479 30.953,33.2479 C31.605,33.2479 32.002,33.7269 32.002,34.5109 L32.002,37.1989 L32.929,37.1989 L32.929,34.4499 C32.929,33.1059 32.277,32.3419 31.096,32.3419 C30.516,32.3419 29.884,32.6269 29.609,33.1569 L29.609,32.4439 L28.683,32.4439 L28.683,37.1989 L29.609,37.1989 L29.609,34.6329 Z M39.105,37.1989 L39.105,29.8569 L38.178,29.8569 L38.178,33.1569 C37.863,32.6269 37.221,32.3419 36.498,32.3419 C35.826,32.3419 35.256,32.5659 34.797,33.0239 C34.339,33.4819 34.105,34.0729 34.105,34.8159 C34.105,35.5499 34.339,36.1499 34.797,36.6089 C35.266,37.0669 35.836,37.3009 36.508,37.3009 C37.201,37.3009 37.863,36.9959 38.178,36.4659 L38.178,37.1989 L39.105,37.1989 Z M36.59,33.2479 C37.007,33.2479 37.374,33.3909 37.689,33.6659 C38.005,33.9409 38.168,34.3279 38.168,34.8059 C38.168,35.2849 38.015,35.6719 37.7,35.9669 C37.394,36.2519 37.028,36.3949 36.59,36.3949 C36.152,36.3949 35.785,36.2419 35.49,35.9469 C35.195,35.6509 35.052,35.2639 35.052,34.8059 C35.052,34.3479 35.195,33.9709 35.49,33.6859 C35.785,33.3909 36.152,33.2479 36.59,33.2479 Z M41.267,34.4499 C41.379,33.6659 41.97,33.1769 42.774,33.1769 C43.548,33.1769 44.108,33.6659 44.22,34.4499 L41.267,34.4499 Z M45.137,34.8059 C45.137,34.0629 44.913,33.4719 44.465,33.0239 C44.027,32.5659 43.456,32.3419 42.774,32.3419 C42.082,32.3419 41.501,32.5659 41.033,33.0239 C40.574,33.4719 40.34,34.0629 40.34,34.8059 C40.34,35.5499 40.574,36.1499 41.033,36.6089 C41.501,37.0669 42.082,37.3009 42.774,37.3009 C43.721,37.3009 44.566,36.8529 44.963,36.0379 L44.577,35.8959 C44.393,35.8249 44.261,35.7629 44.169,35.7329 C43.915,36.1909 43.385,36.4659 42.805,36.4659 C41.99,36.4659 41.379,35.9569 41.267,35.1729 L45.126,35.1729 C45.137,35.1019 45.137,34.9789 45.137,34.8059 Z M47.241,35.4679 C47.241,34.1239 47.679,33.2279 48.545,33.2279 C48.789,33.2279 49.023,33.2789 49.247,33.3909 L49.39,32.5249 C49.217,32.4029 48.942,32.3419 48.565,32.3419 C47.913,32.3419 47.475,32.7289 47.241,33.5129 L47.241,32.4439 L46.314,32.4439 L46.314,37.1989 L47.241,37.1989 L47.241,35.4679 Z" id="Shape"></path>
            </g>
        </g>
    </g>
</svg>