<?xml version="1.0" encoding="UTF-8"?>
<svg width="889px" height="752px" viewBox="0 0 889 752" version="1.1" xmlns="http://www.w3.org/2000/svg" xmlns:xlink="http://www.w3.org/1999/xlink">
    <!-- Generator: Sketch 61.2 (89653) - https://sketch.com -->
    <title>network-diagram3</title>
    <desc>Created with Sketch.</desc>
    <g id="Page-1" stroke="none" stroke-width="1" fill="none" fill-rule="evenodd" opacity="0.636230469">
        <g id="Artboard" transform="translate(-579.000000, -78.000000)">
            <g id="network-diagram3" transform="translate(580.000000, 78.000000)">
                <g id="Page-1" opacity="0.50297619">
                    <g id="network-diagram">
                        <g id="Lines" transform="translate(10.409303, 10.680380)" stroke="#DED8C7">
                            <path d="M365.614733,160.54835 C313.318172,239.920471 399.879234,361.684277 461.086071,383.164308" id="Path"></path>
                            <path d="M178.966771,216.469943 C202.410242,411.292749 376.435762,414.900247 461.195411,379.723558" id="Path"></path>
                            <path d="M647.843373,236.312974 C548.658076,223.684939 476.522662,280.508407 462.668806,384.747519" id="Path"></path>
                            <path d="M461.086071,381.579304 C521.251494,348.319323 668.499583,318.227556 755.582248,399.792505" id="Path"></path>
                            <path d="M464.253333,381.579304 C573.904754,390.547844 622.596695,499.683615 584.725783,587.174399" id="Path"></path>
                            <path d="M279.955274,623.252962 C377.337365,618.74359 484.638882,498.78174 461.086071,383.164308" id="Path"></path>
                            <path d="M145.604052,456.390056 C260.118214,522.234061 434.143734,473.527463 460.292015,379.723558" id="Path"></path>
                            <path d="M429.635719,68.5485525 C397.174425,81.1758702 368.321335,110.940595 368.321335,162.352099" id="Path"></path>
                            <path d="M365.616526,160.54835 C353.893893,105.52899 349.385878,49.6075758 391.764806,0" id="Path"></path>
                            <path d="M176.261961,215.568069 C141.096037,148.823086 149.211181,86.5880132 182.652051,25.8253445" id="Path"></path>
                            <path d="M651.770634,231.168883 C695.633712,183.998878 752.440081,164.155848 825.475305,193.019415" id="Path"></path>
                            <path d="M647.843373,236.312974 C639.728946,193.019415 643.335358,145.21523 672.188448,112.744702" id="Path"></path>
                            <path d="M320.530996,38.7841862 C305.203744,77.5683725 327.745613,132.587733 364.714922,160.54835" id="Path"></path>
                            <path d="M104.126727,89.2934572 C104.126727,140.704961 128.47234,184.900753 175.360358,215.568069" id="Path"></path>
                            <path d="M786.702789,147.018799 C718.17558,138.901212 673.991654,166.861471 648.744976,238.116723" id="Path"></path>
                            <path d="M628.811124,127.423022 C613.145099,161.509393 622.645092,217.696349 646.94177,237.214848" id="Path"></path>
                            <path d="M279.053671,101.921134 C292.579509,146.116925 325.942407,168.66522 365.614733,160.54835" id="Path"></path>
                            <path d="M76.1743441,165.959597 C86.0928739,205.645657 128.47216,227.292437 178.966771,214.666195" id="Path"></path>
                            <path d="M734.406228,109.136488 C695.633712,125.371662 653.625821,154.234333 653.625821,232.750301" id="Path"></path>
                            <path d="M590.596061,165.67989 C596.448415,205.645657 604.702653,219.211427 644.236961,235.411099" id="Path"></path>
                            <path d="M3.91829872,390.004568 C16.6067036,414.269114 61.912167,461.007008 141.625706,453.840423" id="Path"></path>
                            <path d="M0,322.249235 C15.3009027,356.966918 65.4950981,431.888836 143.865016,453.83863" id="Path"></path>
                            <path d="M56.3376432,478.036836 C77.60956,496.701871 123.964145,485.253624 142.186206,454.399836" id="Path"></path>
                            <path d="M171.753946,638.58662 C198.80383,661.135274 243.887567,654.82036 277.250465,625.958585" id="Path"></path>
                            <path d="M755.033758,582.94294 C779.151192,547.493717 813.802862,461.801303 759.470075,402.625431" id="Path"></path>
                            <path d="M479.482,730.812693 C518.087817,712.174553 590.929457,655.293709 573.456641,576.871873" id="Path"></path>
                            <path d="M487.343691,636.782871 C530.093657,639.949293 565.790326,619.645464 582.020973,584.468776" id="Path"></path>
                            <path d="M811.167958,545.869267 C822.397666,508.462098 827.837756,427.662756 759.75866,403.706605" id="Path"></path>
                            <path d="M546.629021,726.780257 C575.05013,700.003731 620.149999,632.748642 573.166264,577.953047" id="Path"></path>
                            <path d="M867.726969,501.724038 C867.587158,474.515401 845.816043,416.465528 759.862622,401.938716" id="Path"></path>
                            <path d="M617.676416,716.838122 C631.155651,693.204709 641.317058,632.045789 574.141357,576.475622" id="Path"></path>
                        </g>
                        <g id="Dots" transform="translate(0.350281, 0.627469)" fill-rule="nonzero">
                            <path d="M216.236997,232.627988 C220.239541,217.683409 211.374076,202.321063 196.433994,198.317314 C181.493912,194.313566 166.137981,203.181699 162.134541,218.126278 C158.131459,233.070857 166.996565,248.43141 181.936647,252.435159 C196.87673,256.440701 212.232661,247.570775 216.236997,232.627988 Z" id="Path" fill="#000000"></path>
                            <path d="M183.748816,473.53066 C187.685039,458.8371 178.966555,443.731151 164.27652,439.793743 C149.585768,435.856335 134.48544,444.577443 130.549038,459.272797 C126.612635,473.96815 135.33094,489.072305 150.021692,493.009713 C164.712982,496.947122 179.812593,488.226014 183.748816,473.53066 Z" id="Path" fill="#000000"></path>
                            <path d="M314.10305,641.394055 C318.039273,626.698701 309.32079,611.592753 294.629858,607.655345 C279.938927,603.717937 264.839316,612.439045 260.903093,627.134398 C256.965077,641.829752 265.683561,656.933907 280.374492,660.871315 C295.065424,664.808723 310.166827,656.087615 314.10305,641.394055 Z" id="Path" fill="#000000"></path>
                            <path d="M618.26054,603.924131 C622.196764,589.228777 613.47828,574.124622 598.787349,570.187214 C584.096417,566.249806 568.996807,574.969121 565.060583,589.664474 C561.12436,604.359828 569.842844,619.465776 584.533775,623.403184 C599.224707,627.340592 614.324317,618.619484 618.26054,603.924131 Z" id="Path" fill="#000000"></path>
                            <path d="M792.065589,418.077038 C796.001812,403.381684 787.283328,388.277529 772.592397,384.340121 C757.901465,380.402713 742.801855,389.122028 738.865632,403.817381 C734.929408,418.512734 743.646099,433.618683 758.337031,437.556091 C773.027963,441.493499 788.129365,432.772391 792.065589,418.077038 Z" id="Path" fill="#000000"></path>
                            <path d="M684.186902,256.211198 C688.123125,241.515844 679.404642,226.409896 664.71371,222.472488 C650.022779,218.53508 634.923168,227.256188 630.986945,241.951541 C627.050722,256.646895 635.767413,271.75105 650.458345,275.688458 C665.149276,279.625866 680.250679,270.904758 684.186902,256.211198 Z" id="Path" fill="#000000"></path>
                            <path d="M402.770243,177.486347 C406.66524,162.945729 398.039963,148.000074 383.503183,144.104084 C368.968195,140.207914 354.02632,148.836862 350.131323,163.377122 C346.236326,177.916665 354.863395,192.863036 369.398383,196.759205 C383.935164,200.655375 398.875246,192.025709 402.770243,177.486347 Z" id="Path" fill="#000000"></path>
                            <path d="M376.222245,199.656679 C391.961761,199.656679 404.722222,186.894169 404.722222,171.148124 C404.722222,155.404229 391.961761,142.640824 376.222245,142.640824 C360.48273,142.640824 347.722268,155.404229 347.722268,171.148124 C347.722268,186.894169 360.48273,199.656679 376.222245,199.656679 Z" id="Path" stroke="#FFFFFF" fill="#868686"></path>
                            <path d="M216.353506,233.303946 C220.427748,218.095797 211.404548,202.462709 196.200976,198.389034 C180.997403,194.313566 165.370812,203.339482 161.296211,218.547631 C157.222507,233.75578 166.245528,249.387074 181.449101,253.462543 C196.652673,257.538011 212.279264,248.512095 216.353506,233.303946 Z" id="Path" stroke="#FFFFFF" fill="#5A5A5A"></path>
                            <path d="M184.734664,458.804826 C180.660422,443.596677 165.033831,434.570761 149.829362,438.646229 C134.625789,442.719905 125.603306,458.352992 129.67701,473.561141 C133.750894,488.76929 149.378202,497.793413 164.582133,493.719738 C179.785706,489.64427 188.807114,474.012975 184.734664,458.804826 Z" id="Path" stroke="#FFFFFF" fill="#F5CF9E"></path>
                            <path d="M629.049305,247.916822 C629.049305,263.661075 641.809767,276.425377 657.549282,276.425377 C673.288798,276.425377 686.049259,263.661075 686.049259,247.916822 C686.049259,232.172569 673.288798,219.408266 657.549282,219.408266 C641.809767,219.408266 629.049305,232.172569 629.049305,247.916822 Z" id="Path" stroke="#FFFFFF" fill="#D9D7D7"></path>
                            <path d="M444.79785,86.2828164 C449.341715,83.6585949 450.897562,77.8469735 448.275206,73.3017416 C445.651057,68.7566889 439.841722,67.1994763 435.297858,69.8235185 C430.753994,72.44774 429.198146,78.2595407 431.820502,82.8045934 C434.444651,87.349646 440.253986,88.9068586 444.79785,86.2828164 Z" id="Path" fill="#000000"></path>
                            <path d="M444.79785,86.2828164 C449.341715,83.6585949 450.897562,77.8469735 448.275206,73.3017416 C445.651057,68.7566889 439.841722,67.1994763 435.297858,69.8235185 C430.753994,72.44774 429.198146,78.2595407 431.820502,82.8045934 C434.444651,87.349646 440.253986,88.9068586 444.79785,86.2828164 Z" id="Path" stroke="#FFFFFF" fill="#849395"></path>
                            <path d="M16.2173473,326.143222 C12.5073314,322.433524 6.4924023,322.433524 2.78245813,326.143222 C-0.927486043,329.854713 -0.927486043,335.871991 2.78245813,339.583482 C6.4924023,343.29318 12.5073314,343.29318 16.2173473,339.583482 C19.9271839,335.871991 19.9271839,329.854713 16.2173473,326.143222 Z" id="Path" fill="#000000"></path>
                            <path d="M16.2173473,326.143222 C12.5073314,322.433524 6.4924023,322.433524 2.78245813,326.143222 C-0.927486043,329.854713 -0.927486043,335.871991 2.78245813,339.583482 C6.4924023,343.29318 12.5073314,343.29318 16.2173473,339.583482 C19.9271839,335.871991 19.9271839,329.854713 16.2173473,326.143222 Z" id="Path" stroke="#FFFFFF" fill="#F5CF9E"></path>
                            <path d="M405.123731,17.7339053 C409.667596,15.1098631 411.223443,9.2980624 408.601087,4.75295596 C405.976938,0.207867458 400.167603,-1.34939893 395.623739,1.27471498 C391.079875,3.89882889 389.524027,9.7106296 392.146383,14.2556822 C394.770532,18.800735 400.579867,20.3581269 405.123731,17.7339053 Z" id="Path" fill="#000000"></path>
                            <path d="M405.123731,17.7339053 C409.667596,15.1098631 411.223443,9.2980624 408.601087,4.75295596 C405.976938,0.207867458 400.167603,-1.34939893 395.623739,1.27471498 C391.079875,3.89882889 389.524027,9.7106296 392.146383,14.2556822 C394.770532,18.800735 400.579867,20.3581269 405.123731,17.7339053 Z" id="Path" stroke="#FFFFFF" fill="#868686"></path>
                            <path d="M200.542293,41.3146045 C203.164649,36.7695519 201.608801,30.9577512 197.064937,28.3335297 C192.521073,25.7094875 186.711738,27.2667001 184.087589,31.8119321 C181.465233,36.3569847 183.021081,42.1687854 187.564945,44.7928276 C192.108809,47.4168698 197.918144,45.8596572 200.542293,41.3146045 Z" id="Path" fill="#000000"></path>
                            <path d="M200.542293,41.3146045 C203.164649,36.7695519 201.608801,30.9577512 197.064937,28.3335297 C192.521073,25.7094875 186.711738,27.2667001 184.087589,31.8119321 C181.465233,36.3569847 183.021081,42.1687854 187.564945,44.7928276 C192.108809,47.4168698 197.918144,45.8596572 200.542293,41.3146045 Z" id="Path" stroke="#FFFFFF" fill="#5A5A5A"></path>
                            <path d="M830.237633,210.753499 C834.781498,213.376645 840.590833,211.820329 843.213189,207.275097 C845.837338,202.729865 844.28149,196.918782 839.737626,194.293843 C835.193761,191.670697 829.382634,193.227013 826.760278,197.772245 C824.136129,202.317477 825.693769,208.128561 830.237633,210.753499 Z" id="Path" fill="#000000"></path>
                            <path d="M830.237633,210.753499 C834.781498,213.376645 840.590833,211.820329 843.213189,207.275097 C845.837338,202.729865 844.28149,196.918782 839.737626,194.293843 C835.193761,191.670697 829.382634,193.227013 826.760278,197.772245 C824.136129,202.317477 825.693769,208.128561 830.237633,210.753499 Z" id="Path" stroke="#FFFFFF" fill="#D9D7D7"></path>
                            <path d="M688.253974,131.380482 C692.797839,128.75644 694.353686,122.944639 691.73133,118.399587 C689.107181,113.854355 683.297846,112.297142 678.753982,114.921184 C674.210118,117.545406 672.652478,123.357207 675.276626,127.902259 C677.898983,132.447312 683.71011,134.004524 688.253974,131.380482 Z" id="Path" fill="#000000"></path>
                            <path d="M688.253974,131.380482 C692.797839,128.75644 694.353686,122.944639 691.73133,118.399587 C689.107181,113.854355 683.297846,112.297142 678.753982,114.921184 C674.210118,117.545406 672.652478,123.357207 675.276626,127.902259 C677.898983,132.447312 683.71011,134.004524 688.253974,131.380482 Z" id="Path" stroke="#FFFFFF" fill="#D9D7D7"></path>
                            <path d="M20.6947116,393.339142 C16.984875,389.627651 10.9697666,389.627651 7.25992999,393.339142 C3.54991411,397.050633 3.54991411,403.066118 7.25992999,406.777609 C10.9697666,410.4891 16.984875,410.4891 20.6947116,406.777609 C24.4047275,403.066118 24.4047275,397.050633 20.6947116,393.339142 Z" id="Path" fill="#000000"></path>
                            <path d="M20.6947116,393.339142 C16.984875,389.627651 10.9697666,389.627651 7.25992999,393.339142 C3.54991411,397.050633 3.54991411,403.066118 7.25992999,406.777609 C10.9697666,410.4891 16.984875,410.4891 20.6947116,406.777609 C24.4047275,403.066118 24.4047275,397.050633 20.6947116,393.339142 Z" id="Path" stroke="#FFFFFF" fill="#F5CF9E"></path>
                            <path d="M186.781644,639.766019 C182.207308,637.19487 176.415897,638.817527 173.843729,643.39324 C171.273354,647.967159 172.895523,653.762106 177.469859,656.333255 C182.042402,658.906197 187.835605,657.281747 190.40598,652.707827 C192.978148,648.132115 191.354187,642.338961 186.781644,639.766019 Z" id="Path" fill="#000000"></path>
                            <path d="M186.781644,639.766019 C182.207308,637.19487 176.415897,638.817527 173.843729,643.39324 C171.273354,647.967159 172.895523,653.762106 177.469859,656.333255 C182.042402,658.906197 187.835605,657.281747 190.40598,652.707827 C192.978148,648.132115 191.354187,642.338961 186.781644,639.766019 Z" id="Path" stroke="#FFFFFF" fill="#36BFD4"></path>
                            <path d="M334.791524,57.4201453 C339.335388,54.7959239 340.893028,48.9841231 338.26888,44.4390705 C335.646523,39.8940179 329.835396,38.3368053 325.291532,40.9608474 C320.74946,43.5848896 319.19182,49.3966903 321.815968,53.941743 C324.438325,58.4869749 330.24766,60.0441875 334.791524,57.4201453 Z" id="Path" fill="#000000"></path>
                            <path d="M334.791524,57.4201453 C339.335388,54.7959239 340.893028,48.9841231 338.26888,44.4390705 C335.646523,39.8940179 329.835396,38.3368053 325.291532,40.9608474 C320.74946,43.5848896 319.19182,49.3966903 321.815968,53.941743 C324.438325,58.4869749 330.24766,60.0441875 334.791524,57.4201453 Z" id="Path" stroke="#FFFFFF" fill="#868686"></path>
                            <path d="M123.274912,100.81698 C124.632873,95.7476568 121.625319,90.5368666 116.557521,89.178676 C111.489723,87.8203061 106.280501,90.8285863 104.92254,95.8980887 C103.564579,100.967412 106.572133,106.178202 111.639931,107.536572 C116.707908,108.894763 121.916951,105.886482 123.274912,100.81698 Z" id="Path" fill="#000000"></path>
                            <path d="M123.274912,100.81698 C124.632873,95.7476568 121.625319,90.5368666 116.557521,89.178676 C111.489723,87.8203061 106.280501,90.8285863 104.92254,95.8980887 C103.564579,100.967412 106.572133,106.178202 111.639931,107.536572 C116.707908,108.894763 121.916951,105.886482 123.274912,100.81698 Z" id="Path" stroke="#FFFFFF" fill="#5A5A5A"></path>
                            <path d="M790.561722,165.655296 C795.105586,168.279339 800.916714,166.722126 803.53907,162.177073 C806.163219,157.632021 804.605579,151.82022 800.061714,149.195998 C795.51785,146.571956 789.708515,148.129169 787.084366,152.674222 C784.46201,157.219453 786.017858,163.031254 790.561722,165.655296 Z" id="Path" fill="#000000"></path>
                            <path d="M790.561722,165.655296 C795.105586,168.279339 800.916714,166.722126 803.53907,162.177073 C806.163219,157.632021 804.605579,151.82022 800.061714,149.195998 C795.51785,146.571956 789.708515,148.129169 787.084366,152.674222 C784.46201,157.219453 786.017858,163.031254 790.561722,165.655296 Z" id="Path" stroke="#FFFFFF" fill="#D9D7D7"></path>
                            <path d="M643.555614,145.594418 C648.099479,142.970375 649.655326,137.158575 647.03297,132.613343 C644.408821,128.06829 638.599486,126.511078 634.055622,129.13512 C629.511758,131.759341 627.95591,137.571142 630.578266,142.116195 C633.202415,146.661247 639.01175,148.21846 643.555614,145.594418 Z" id="Path" fill="#000000"></path>
                            <path d="M643.555614,145.594418 C648.099479,142.970375 649.655326,137.158575 647.03297,132.613343 C644.408821,128.06829 638.599486,126.511078 634.055622,129.13512 C629.511758,131.759341 627.95591,137.571142 630.578266,142.116195 C633.202415,146.661247 639.01175,148.21846 643.555614,145.594418 Z" id="Path" stroke="#FFFFFF" fill="#D9D7D7"></path>
                            <path d="M72.121755,481.279967 C68.4119183,477.568476 62.39681,477.568476 58.6869734,481.279967 C54.9769575,484.991458 54.9769575,491.008736 58.6869734,494.718434 C62.39681,498.429925 68.4119183,498.429925 72.121755,494.718434 C75.8317708,491.008736 75.8317708,484.991458 72.121755,481.279967 Z" id="Path" fill="#000000"></path>
                            <path d="M72.121755,481.279967 C68.4119183,477.568476 62.39681,477.568476 58.6869734,481.279967 C54.9769575,484.991458 54.9769575,491.008736 58.6869734,494.718434 C62.39681,498.429925 68.4119183,498.429925 72.121755,494.718434 C75.8317708,491.008736 75.8317708,484.991458 72.121755,481.279967 Z" id="Path" stroke="#FFFFFF" fill="#F5CF9E"></path>
                            <path d="M293.314199,120.557093 C297.858063,117.93305 299.415704,112.12125 296.791555,107.576197 C294.169198,103.030965 288.358071,101.473753 283.814207,104.097795 C279.270342,106.722016 277.714495,112.533817 280.336851,117.07887 C282.961,121.623922 288.770335,123.181135 293.314199,120.557093 Z" id="Path" fill="#000000"></path>
                            <path d="M293.314199,120.557093 C297.858063,117.93305 299.415704,112.12125 296.791555,107.576197 C294.169198,103.030965 288.358071,101.473753 283.814207,104.097795 C279.270342,106.722016 277.714495,112.533817 280.336851,117.07887 C282.961,121.623922 288.770335,123.181135 293.314199,120.557093 Z" id="Path" stroke="#FFFFFF" fill="#868686"></path>
                            <path d="M96.224311,178.384635 C97.5822721,173.31585 94.574718,168.105239 89.5069202,166.746869 C84.4389431,165.388499 79.2299002,168.396959 77.871939,173.466461 C76.5139778,178.535247 79.521532,183.745677 84.5893298,185.104764 C89.6573068,186.463852 94.8663498,183.455213 96.224311,178.384635 Z" id="Path" fill="#000000"></path>
                            <path d="M96.224311,178.384635 C97.5822721,173.31585 94.574718,168.105239 89.5069202,166.746869 C84.4389431,165.388499 79.2299002,168.396959 77.871939,173.466461 C76.5139778,178.535247 79.521532,183.745677 84.5893298,185.104764 C89.6573068,186.463852 94.8663498,183.455213 96.224311,178.384635 Z" id="Path" stroke="#FFFFFF" fill="#5A5A5A"></path>
                            <path d="M740.068367,127.772626 C744.612231,130.396847 750.421566,128.839456 753.045715,124.294403 C755.668071,119.74935 754.112223,113.93755 749.568359,111.313507 C745.024495,108.689286 739.213367,110.246498 736.591011,114.79173 C733.966862,119.336783 735.524502,125.148584 740.068367,127.772626 Z" id="Path" fill="#000000"></path>
                            <path d="M740.068367,127.772626 C744.612231,130.396847 750.421566,128.839456 753.045715,124.294403 C755.668071,119.74935 754.112223,113.93755 749.568359,111.313507 C745.024495,108.689286 739.213367,110.246498 736.591011,114.79173 C733.966862,119.336783 735.524502,125.148584 740.068367,127.772626 Z" id="Path" stroke="#FFFFFF" fill="#D9D7D7"></path>
                            <path d="M608.771303,180.421472 C611.393659,175.876241 609.837811,170.063365 605.293947,167.439681 C600.750083,164.815639 594.940748,166.372851 592.316599,170.918621 C589.694243,175.463853 591.25009,181.274936 595.793955,183.898082 C600.337819,186.52302 606.147154,184.964911 608.771303,180.421472 Z" id="Path" fill="#000000"></path>
                            <path d="M608.771303,180.421472 C611.393659,175.876241 609.837811,170.063365 605.293947,167.439681 C600.750083,164.815639 594.940748,166.372851 592.316599,170.918621 C589.694243,175.463853 591.25009,181.274936 595.793955,183.898082 C600.337819,186.52302 606.147154,184.964911 608.771303,180.421472 Z" id="Path" stroke="#FFFFFF" fill="#D9D7D7"></path>
                            <path d="M766.230987,438.723328 C781.970503,438.723328 794.729171,425.959026 794.729171,410.214773 C794.729171,394.468726 781.970503,381.706217 766.230987,381.706217 C750.489679,381.706217 737.73101,394.468726 737.73101,410.214773 C737.73101,425.959026 750.489679,438.723328 766.230987,438.723328 Z" id="Path" stroke="#FFFFFF" fill="#737579"></path>
                            <path d="M591.744807,625.149557 C607.486115,625.149557 620.244784,612.385255 620.244784,596.641002 C620.244784,580.896749 607.486115,568.132446 591.744807,568.132446 C576.005291,568.132446 563.246623,580.896749 563.246623,596.641002 C563.246623,612.385255 576.005291,625.149557 591.744807,625.149557 Z" id="Path" stroke="#FFFFFF" fill="#CFF9FF"></path>
                            <path d="M287.856185,663.263165 C303.597493,663.263165 316.356162,650.498863 316.356162,634.754609 C316.356162,619.010356 303.597493,606.246054 287.856185,606.246054 C272.116669,606.246054 259.358,619.010356 259.358,634.754609 C259.358,650.498863 272.116669,663.263165 287.856185,663.263165 Z" id="Path" stroke="#FFFFFF" fill="#36BFD4"></path>
                            <path d="M755.965618,590.844262 C754.608732,595.913047 757.616466,601.123479 762.683726,602.482566 C767.750986,603.83986 772.961642,600.831222 774.318528,595.762436 C775.677206,590.693651 772.669472,585.483219 767.602212,584.124132 C762.53316,582.765045 757.324296,585.773684 755.965618,590.844262 Z" id="Path" fill="#000000"></path>
                            <path d="M755.965618,590.844262 C754.608732,595.913047 757.616466,601.123479 762.683726,602.482566 C767.750986,603.83986 772.961642,600.831222 774.318528,595.762436 C775.677206,590.693651 772.669472,585.483219 767.602212,584.124132 C762.53316,582.765045 757.324296,585.773684 755.965618,590.844262 Z" id="Path" stroke="#FFFFFF" fill="#737579"></path>
                            <path d="M482.715367,734.437732 C479.004992,738.14743 479.004992,744.164707 482.715367,747.876199 C486.425741,751.58769 492.439416,751.58769 496.14979,747.876199 C499.860164,744.164707 499.860164,738.14743 496.14979,734.437732 C492.439416,730.726241 486.425741,730.726241 482.715367,734.437732 Z" id="Path" fill="#CFF9FF"></path>
                            <path d="M482.715367,734.437732 C479.004992,738.14743 479.004992,744.164707 482.715367,747.876199 C486.425741,751.58769 492.439416,751.58769 496.14979,747.876199 C499.860164,744.164707 499.860164,738.14743 496.14979,734.437732 C492.439416,730.726241 486.425741,730.726241 482.715367,734.437732 Z" id="Path" stroke="#FFFFFF" fill="#CFF9FF"></path>
                            <path d="M493.955829,637.569605 C488.886777,638.926899 485.879043,644.137331 487.237722,649.207909 C488.594607,654.276694 493.805264,657.285333 498.872524,655.926246 C503.939784,654.568952 506.947517,649.356727 505.590631,644.287942 C504.231953,639.219157 499.023089,636.210518 493.955829,637.569605 Z" id="Path" fill="#CFF9FF"></path>
                            <path d="M493.955829,637.569605 C488.886777,638.926899 485.879043,644.137331 487.237722,649.207909 C488.594607,654.276694 493.805264,657.285333 498.872524,655.926246 C503.939784,654.568952 506.947517,649.356727 505.590631,644.287942 C504.231953,639.219157 499.023089,636.210518 493.955829,637.569605 Z" id="Path" stroke="#FFFFFF" fill="#CFF9FF"></path>
                            <path d="M811.902648,553.367166 C810.54397,558.435952 813.551703,563.646383 818.620756,565.00547 C823.688016,566.362764 828.89688,563.355919 830.255558,558.28534 C831.612444,553.216555 828.60471,548.006124 823.53745,546.647036 C818.47019,545.289742 813.259534,548.296588 811.902648,553.367166 Z" id="Path" fill="#000000"></path>
                            <path d="M811.902648,553.367166 C810.54397,558.435952 813.551703,563.646383 818.620756,565.00547 C823.688016,566.362764 828.89688,563.355919 830.255558,558.28534 C831.612444,553.216555 828.60471,548.006124 823.53745,546.647036 C818.47019,545.289742 813.259534,548.296588 811.902648,553.367166 Z" id="Path" stroke="#FFFFFF" fill="#737579"></path>
                            <path d="M549.889275,729.957047 C546.1789,733.668539 546.1789,739.685816 549.889275,743.395514 C553.599649,747.107005 559.613324,747.107005 563.323698,743.395514 C567.034072,739.685816 567.034072,733.668539 563.323698,729.957047 C559.613324,726.245556 553.599649,726.245556 549.889275,729.957047 Z" id="Path" fill="#CFF9FF"></path>
                            <path d="M549.889275,729.957047 C546.1789,733.668539 546.1789,739.685816 549.889275,743.395514 C553.599649,747.107005 559.613324,747.107005 563.323698,743.395514 C567.034072,739.685816 567.034072,733.668539 563.323698,729.957047 C559.613324,726.245556 553.599649,726.245556 549.889275,729.957047 Z" id="Path" stroke="#FFFFFF" fill="#CFF9FF"></path>
                            <path d="M867.947226,509.359998 C866.59034,514.430576 869.598073,519.641007 874.665333,520.998302 C879.732593,522.357389 884.94325,519.34875 886.300135,514.279965 C887.658813,509.209386 884.65108,503.998955 879.58382,502.641661 C874.514767,501.282574 869.305904,504.291212 867.947226,509.359998 Z" id="Path" fill="#000000"></path>
                            <path d="M867.947226,509.359998 C866.59034,514.430576 869.598073,519.641007 874.665333,520.998302 C879.732593,522.357389 884.94325,519.34875 886.300135,514.279965 C887.658813,509.209386 884.65108,503.998955 879.58382,502.641661 C874.514767,501.282574 869.305904,504.291212 867.947226,509.359998 Z" id="Path" stroke="#FFFFFF" fill="#737579"></path>
                            <path d="M620.422237,719.878646 C616.711862,723.590137 616.711862,729.605621 620.422237,733.317112 C624.132611,737.028604 630.148078,737.028604 633.85666,733.317112 C637.567034,729.605621 637.567034,723.590137 633.85666,719.878646 C630.148078,716.167154 624.132611,716.167154 620.422237,719.878646 Z" id="Path" fill="#CFF9FF"></path>
                            <path d="M620.422237,719.878646 C616.711862,723.590137 616.711862,729.605621 620.422237,733.317112 C624.132611,737.028604 630.148078,737.028604 633.85666,733.317112 C637.567034,729.605621 637.567034,723.590137 633.85666,719.878646 C630.148078,716.167154 624.132611,716.167154 620.422237,719.878646 Z" id="Path" stroke="#FFFFFF" fill="#CFF9FF"></path>
                            <path d="M470.351037,447.501811 C503.219218,447.501811 529.862216,420.849002 529.862216,387.97272 C529.862216,355.096439 503.219218,328.443629 470.351037,328.443629 C437.484649,328.443629 410.839859,355.096439 410.839859,387.97272 C410.839859,420.849002 437.484649,447.501811 470.351037,447.501811 Z" id="Path" stroke="#FFFFFF" stroke-width="2" fill="#01454F"></path>
                        </g>
                        <g id="Text" transform="translate(202.964647, 164.853034)" fill="#FFFFFF" fill-rule="nonzero">
                            <path d="M223.832366,12.5794449 C225.585384,12.5794449 226.970949,11.9967228 227.976514,10.8276928 C228.980287,9.64073279 229.491135,8.14358539 229.491135,6.31832065 C229.491135,4.47333301 228.980287,2.9761856 227.956797,1.78940492 C226.953024,0.602624243 225.565667,0 223.832366,0 L218.958691,0 L218.958691,12.5794449 L223.832366,12.5794449 Z M220.656143,1.58858994 L223.832366,1.58858994 C225.09246,1.58858994 226.076516,2.02679692 226.75227,2.92149938 C227.445948,3.79791333 227.793684,4.93054569 227.793684,6.31832065 C227.793684,7.68637271 227.445948,8.81954296 226.75227,9.69452252 C226.076516,10.5533652 225.09246,10.9926479 223.832366,10.9926479 L220.656143,10.9926479 L220.656143,1.58858994 Z M232.934435,7.65051289 C233.135189,6.24480802 234.192735,5.36803547 235.635659,5.36803547 C237.023016,5.36803547 238.026789,6.24480802 238.227543,7.65051289 L232.934435,7.65051289 Z M239.869429,8.28881765 C239.869429,6.95662541 239.46792,5.89696778 238.664902,5.09370786 C237.879808,4.27251803 236.858111,3.87088806 235.635659,3.87088806 C234.39349,3.87088806 233.353868,4.27251803 232.513208,5.09370786 C231.692266,5.89696778 231.272832,6.95662541 231.272832,8.28881765 C231.272832,9.62280288 231.692266,10.7003904 232.513208,11.5215803 C233.353868,12.3427701 234.39349,12.76233 235.635659,12.76233 C237.33311,12.76233 238.847732,11.95907 239.559335,10.4995754 L238.865656,10.2431777 C238.537638,10.1158754 238.301034,10.0065029 238.136128,9.95092022 C237.679053,10.7721101 236.730847,11.2651826 235.689432,11.2651826 C234.230377,11.2651826 233.135189,10.3525502 232.934435,8.94684531 L239.851504,8.94684531 C239.869429,8.81954296 239.869429,8.59900508 239.869429,8.28881765 Z M251.783853,5.49533782 C253.006305,5.49533782 253.735833,6.35418047 253.735833,7.75988533 L253.735833,12.5794449 L255.397435,12.5794449 L255.397435,7.65051289 C255.397435,5.24073311 254.228757,3.87088806 252.111872,3.87088806 C250.742439,3.87088806 249.756591,4.4554031 249.154327,5.62443317 C248.752818,4.6920779 248.005366,4.12656857 246.928102,3.9621513 C246.635933,3.90746508 246.325839,3.88917657 245.99782,3.90746508 C245.139236,3.98043981 244.061973,4.47333301 243.642539,5.33217565 L243.642539,4.05341454 L241.980937,4.05341454 L241.980937,12.5794449 L243.642539,12.5794449 L243.642539,7.97863022 C243.642539,6.31832065 244.701878,5.49533782 246.015745,5.49533782 C247.128857,5.49533782 247.858385,6.35418047 247.858385,7.74195543 L247.858385,12.5794449 L249.519987,12.5794449 L249.519987,7.97863022 C249.519987,6.51913563 250.396496,5.47740791 251.783853,5.49533782 Z M257.494603,8.28881765 C257.494603,9.62280288 257.931962,10.7003904 258.790546,11.5215803 C259.647338,12.3427701 260.706676,12.76233 261.947053,12.76233 C263.189221,12.76233 264.246768,12.3427701 265.105352,11.5215803 C265.981861,10.6806675 266.419219,9.60487297 266.419219,8.28881765 C266.419219,6.97455532 265.981861,5.91669068 265.123276,5.09370786 C264.266485,4.27251803 263.207146,3.87088806 261.947053,3.87088806 C260.688752,3.87088806 259.629413,4.27251803 258.770829,5.09370786 C257.914037,5.91669068 257.494603,6.97455532 257.494603,8.28881765 Z M264.759409,8.28881765 C264.759409,9.14766029 264.485164,9.84154777 263.936674,10.3704801 C263.407901,10.9012054 262.732146,11.1558101 261.947053,11.1558101 C261.161959,11.1558101 260.487997,10.9012054 259.939507,10.3704801 C259.410734,9.84154777 259.136489,9.14766029 259.136489,8.28881765 C259.136489,7.44969791 259.410734,6.77374034 259.939507,6.26273793 C260.487997,5.75173552 261.161959,5.49533782 261.947053,5.49533782 C262.732146,5.49533782 263.407901,5.75173552 263.936674,6.26273793 C264.485164,6.77374034 264.759409,7.44969791 264.759409,8.28881765 Z M272.572704,3.87088806 C271.312611,3.87088806 270.255065,4.27251803 269.378556,5.09370786 C268.502047,5.91669068 268.064689,6.97455532 268.064689,8.28881765 C268.064689,9.60487297 268.502047,10.6806675 269.378556,11.5215803 C270.255065,12.3427701 271.312611,12.76233 272.572704,12.76233 C273.924213,12.76233 275.019401,12.3069103 275.876192,11.374555 L274.598174,10.3166904 C274.069401,10.8814825 273.393647,11.1558101 272.572704,11.1558101 C271.787611,11.1558101 271.111857,10.8814825 270.547234,10.3525502 C269.98082,9.82361787 269.706575,9.12973039 269.706575,8.28881765 C269.706575,7.46762782 269.98082,6.79167025 270.547234,6.28066784 C271.111857,5.75173552 271.787611,5.49533782 272.572704,5.49533782 C273.393647,5.49533782 274.069401,5.76966543 274.598174,6.29859775 L275.858268,5.24073311 C275.019401,4.32738355 273.924213,3.87088806 272.572704,3.87088806 Z M279.631378,9.47577763 C279.631378,7.06599785 280.416472,5.459478 281.968735,5.459478 C282.406093,5.459478 282.825526,5.55092054 283.227035,5.75173552 L283.483356,4.1995433 C283.173262,3.98043981 282.680338,3.87088806 282.004584,3.87088806 C280.835905,3.87088806 280.050812,4.56477554 279.631378,5.97048041 L279.631378,4.05341454 L277.969776,4.05341454 L277.969776,12.5794449 L279.631378,12.5794449 L279.631378,9.47577763 Z M293.354386,12.5794449 L293.354386,4.05341454 L291.7125,4.05341454 L291.7125,5.33217565 C291.181935,4.40035828 289.959483,3.87088806 288.719106,3.87088806 C287.512787,3.87088806 286.491089,4.27251803 285.652222,5.09370786 C284.811562,5.91669068 284.392129,6.97455532 284.392129,8.30854055 C284.392129,9.62280288 284.811562,10.7003904 285.652222,11.5215803 C286.491089,12.3427701 287.512787,12.76233 288.719106,12.76233 C289.959483,12.76233 291.146086,12.2154677 291.7125,11.2651826 L291.7125,12.5794449 L293.354386,12.5794449 Z M291.692783,8.28881765 C291.692783,9.1655902 291.420331,9.85947768 290.871841,10.3704801 C290.325143,10.8814825 289.649389,11.1378802 288.864295,11.1378802 C288.079201,11.1378802 287.423164,10.8635526 286.892599,10.3346203 C286.363825,9.80568796 286.08958,9.11180048 286.08958,8.28881765 C286.08958,7.46762782 286.345901,6.79167025 286.874674,6.28066784 C287.403447,5.75173552 288.079201,5.49533782 288.864295,5.49533782 C289.61354,5.49533782 290.269577,5.75173552 290.835992,6.24480802 C291.400614,6.73788052 291.692783,7.431768 291.692783,8.28881765 Z M300.077871,3.87088806 C298.817778,3.87088806 297.758439,4.27251803 296.883723,5.09370786 C296.007214,5.91669068 295.568063,6.97455532 295.568063,8.28881765 C295.568063,9.60487297 296.007214,10.6806675 296.883723,11.5215803 C297.758439,12.3427701 298.817778,12.76233 300.077871,12.76233 C301.427587,12.76233 302.522775,12.3069103 303.381359,11.374555 L302.103341,10.3166904 C301.574568,10.8814825 300.898814,11.1558101 300.077871,11.1558101 C299.292777,11.1558101 298.617023,10.8814825 298.050608,10.3525502 C297.485986,9.82361787 297.211741,9.12973039 297.211741,8.28881765 C297.211741,7.46762782 297.485986,6.79167025 298.050608,6.28066784 C298.617023,5.75173552 299.292777,5.49533782 300.077871,5.49533782 C300.898814,5.49533782 301.574568,5.76966543 302.103341,6.29859775 L303.363434,5.24073311 C302.522775,4.32738355 301.427587,3.87088806 300.077871,3.87088806 Z M312.99786,4.05341454 L311.226918,4.05341454 L308.670883,10.2252478 L306.114847,4.05341454 L304.345698,4.05341454 L307.758525,12.3248402 L305.969659,16.7248399 L307.702959,16.7248399 L312.99786,4.05341454 Z" id="Shape"></path>
                            <path d="M500.266011,87.7434166 L507.896477,87.7434166 L507.896477,86.1548266 L501.963463,86.1548266 L501.963463,82.3572719 L506.984119,82.3572719 L506.984119,80.768682 L501.963463,80.768682 L501.963463,76.7523823 L507.713647,76.7523823 L507.713647,75.1637924 L500.266011,75.1637924 L500.266011,87.7434166 Z M513.969302,79.0348598 C512.711001,79.0348598 511.651662,79.4364897 510.775154,80.2576796 C509.898645,81.0788694 509.461287,82.138527 509.461287,83.4527893 C509.461287,84.7670517 509.898645,85.8446392 510.775154,86.683759 C511.651662,87.5067418 512.711001,87.9263017 513.969302,87.9263017 C515.32081,87.9263017 516.415998,87.469089 517.27279,86.5385267 L515.996564,85.4788691 C515.465999,86.0454542 514.792037,86.3197818 513.969302,86.3197818 C513.184208,86.3197818 512.510247,86.0454542 511.943832,85.5165219 C511.377417,84.9857966 511.103172,84.2919091 511.103172,83.4527893 C511.103172,82.6315995 511.377417,81.9556419 511.943832,81.4446395 C512.510247,80.9157072 513.184208,80.6593095 513.969302,80.6593095 C514.792037,80.6593095 515.465999,80.9336371 515.996564,81.4625694 L517.254865,80.4029118 C516.415998,79.4902794 515.32081,79.0348598 513.969302,79.0348598 Z M518.588449,83.4527893 C518.588449,84.7849816 519.025807,85.8625691 519.884392,86.683759 C520.741183,87.5067418 521.800522,87.9263017 523.040898,87.9263017 C524.283067,87.9263017 525.340614,87.5067418 526.199198,86.683759 C527.075706,85.8446392 527.513065,84.7670517 527.513065,83.4527893 C527.513065,82.138527 527.075706,81.0788694 526.217122,80.2576796 C525.36033,79.4364897 524.300992,79.0348598 523.040898,79.0348598 C521.782598,79.0348598 520.723259,79.4364897 519.864675,80.2576796 C519.007883,81.0788694 518.588449,82.138527 518.588449,83.4527893 Z M525.853255,83.4527893 C525.853255,84.311632 525.57901,85.0055195 525.030519,85.5344518 C524.501746,86.0633841 523.825992,86.3197818 523.040898,86.3197818 C522.257597,86.3197818 521.581843,86.0633841 521.033353,85.5344518 C520.50458,85.0055195 520.230335,84.311632 520.230335,83.4527893 C520.230335,82.6136696 520.50458,81.937712 521.033353,81.4267096 C521.581843,80.9157072 522.257597,80.6593095 523.040898,80.6593095 C523.825992,80.6593095 524.501746,80.9157072 525.030519,81.4267096 C525.57901,81.937712 525.853255,82.6136696 525.853255,83.4527893 Z M531.38476,83.1426019 C531.38476,81.4625694 532.462023,80.6593095 533.793814,80.6593095 C534.962493,80.6593095 535.674096,81.5181522 535.674096,82.923857 L535.674096,87.7434166 L537.335698,87.7434166 L537.335698,82.8144846 C537.335698,80.4029118 536.16702,79.0348598 534.050135,79.0348598 C533.010513,79.0348598 531.877684,79.5458622 531.38476,80.4943544 L531.38476,79.2159518 L529.72495,79.2159518 L529.72495,87.7434166 L531.38476,87.7434166 L531.38476,83.1426019 Z M539.443621,83.4527893 C539.443621,84.7849816 539.880979,85.8625691 540.739563,86.683759 C541.598148,87.5067418 542.655694,87.9263017 543.897863,87.9263017 C545.138239,87.9263017 546.197578,87.5067418 547.05437,86.683759 C547.930878,85.8446392 548.370029,84.7670517 548.370029,83.4527893 C548.370029,82.138527 547.930878,81.0788694 547.074087,80.2576796 C546.215502,79.4364897 545.156164,79.0348598 543.897863,79.0348598 C542.637769,79.0348598 541.578431,79.4364897 540.721639,80.2576796 C539.863055,81.0788694 539.443621,82.138527 539.443621,83.4527893 Z M546.708426,83.4527893 C546.708426,84.311632 546.434181,85.0055195 545.887484,85.5344518 C545.356918,86.0633841 544.682956,86.3197818 543.897863,86.3197818 C543.112769,86.3197818 542.437015,86.0633841 541.888525,85.5344518 C541.359752,85.0055195 541.085506,84.311632 541.085506,83.4527893 C541.085506,82.6136696 541.359752,81.937712 541.888525,81.4267096 C542.437015,80.9157072 543.112769,80.6593095 543.897863,80.6593095 C544.682956,80.6593095 545.356918,80.9157072 545.887484,81.4267096 C546.434181,81.937712 546.708426,82.6136696 546.708426,83.4527893 Z M560.381246,80.6593095 C561.60549,80.6593095 562.335018,81.5181522 562.335018,82.923857 L562.335018,87.7434166 L563.99662,87.7434166 L563.99662,82.8144846 C563.99662,80.4029118 562.827942,79.0348598 560.711057,79.0348598 C559.341624,79.0348598 558.355776,79.6193748 557.753512,80.7866119 C557.352003,79.8560496 556.602758,79.2894645 555.525495,79.1263023 C555.235118,79.0707196 554.923231,79.0527897 554.595213,79.0707196 C553.738421,79.1442322 552.661157,79.6373047 552.239931,80.4943544 L552.239931,79.2159518 L550.580121,79.2159518 L550.580121,87.7434166 L552.239931,87.7434166 L552.239931,83.1426019 C552.239931,81.4804994 553.29927,80.6593095 554.613137,80.6593095 C555.726249,80.6593095 556.45757,81.5181522 556.45757,82.9059271 L556.45757,87.7434166 L558.119172,87.7434166 L558.119172,83.1426019 C558.119172,81.6813143 558.993888,80.6413796 560.381246,80.6593095 Z M568.300296,87.7434166 L568.300296,79.2159518 L566.65841,79.2159518 L566.65841,87.7434166 L568.300296,87.7434166 Z M566.65841,76.8438249 C567.113693,77.2633847 567.845013,77.2633847 568.282371,76.8438249 C568.739446,76.422472 568.739446,75.7285845 568.282371,75.3090247 C567.845013,74.8894648 567.113693,74.8894648 566.65841,75.3090247 C566.21926,75.7285845 566.21926,76.422472 566.65841,76.8438249 Z M575.021988,79.0348598 C573.761895,79.0348598 572.702556,79.4364897 571.82784,80.2576796 C570.951331,81.0788694 570.512181,82.138527 570.512181,83.4527893 C570.512181,84.7670517 570.951331,85.8446392 571.82784,86.683759 C572.702556,87.5067418 573.761895,87.9263017 575.021988,87.9263017 C576.371704,87.9263017 577.466892,87.469089 578.325476,86.5385267 L577.047459,85.4788691 C576.518685,86.0454542 575.842931,86.3197818 575.021988,86.3197818 C574.236895,86.3197818 573.561141,86.0454542 572.994726,85.5165219 C572.430104,84.9857966 572.155859,84.2919091 572.155859,83.4527893 C572.155859,82.6315995 572.430104,81.9556419 572.994726,81.4446395 C573.561141,80.9157072 574.236895,80.6593095 575.021988,80.6593095 C575.842931,80.6593095 576.518685,80.9336371 577.047459,81.4625694 L578.307552,80.4029118 C577.466892,79.4902794 576.371704,79.0348598 575.021988,79.0348598 Z M585.489905,87.7434166 L593.118578,87.7434166 L593.118578,86.1548266 L587.187356,86.1548266 L587.187356,82.3572719 L592.20622,82.3572719 L592.20622,80.768682 L587.187356,80.768682 L587.187356,76.7523823 L592.93754,76.7523823 L592.93754,75.1637924 L585.489905,75.1637924 L585.489905,87.7434166 Z M605.927435,74.5792774 C603.719135,74.5792774 602.659796,76.0029121 602.659796,78.3589022 L602.659796,79.2159518 L597.694706,79.2159518 L597.694706,78.3589022 C597.676782,76.8976146 598.207347,76.1678673 599.282818,76.1678673 L600.214893,76.1678673 L600.214893,74.5792774 L599.282818,74.5792774 C597.074518,74.5792774 596.016972,76.0029121 596.016972,78.3589022 L596.016972,79.2159518 L594.373294,79.2159518 L594.373294,80.6234497 L596.016972,80.6234497 L596.016972,87.7434166 L597.694706,87.7434166 L597.694706,80.6234497 L602.659796,80.6234497 L602.659796,87.7434166 L604.339323,87.7434166 L604.339323,80.6234497 L606.31102,80.6234497 L606.31102,79.2159518 L604.339323,79.2159518 L604.339323,78.3589022 C604.321399,76.8976146 604.850172,76.1678673 605.927435,76.1678673 L606.857718,76.1678673 L606.857718,74.5792774 L605.927435,74.5792774 Z M609.143093,82.8144846 C609.343848,81.4069867 610.403186,80.5320072 611.84611,80.5320072 C613.231675,80.5320072 614.23724,81.4069867 614.437994,82.8144846 L609.143093,82.8144846 Z M616.07988,83.4527893 C616.07988,82.1205971 615.678371,81.0609395 614.875353,80.2576796 C614.090259,79.4364897 613.068562,79.0348598 611.84611,79.0348598 C610.603941,79.0348598 609.564319,79.4364897 608.723659,80.2576796 C607.902717,81.0609395 607.483283,82.1205971 607.483283,83.4527893 C607.483283,84.7849816 607.902717,85.8625691 608.723659,86.683759 C609.564319,87.5067418 610.603941,87.9263017 611.84611,87.9263017 C613.543561,87.9263017 615.058183,87.1230417 615.769786,85.6617541 L615.076107,85.4071494 C614.748088,85.2780541 614.509692,85.1686816 614.346579,85.1148919 C613.889504,85.9360817 612.941297,86.4291542 611.899883,86.4291542 C610.439035,86.4291542 609.343848,85.5165219 609.143093,84.110817 L616.061955,84.110817 C616.07988,83.9817217 616.07988,83.7629768 616.07988,83.4527893 Z M622.132988,79.0348598 C620.874687,79.0348598 619.815349,79.4364897 618.93884,80.2576796 C618.064124,81.0788694 617.624973,82.138527 617.624973,83.4527893 C617.624973,84.7670517 618.064124,85.8446392 618.93884,86.683759 C619.815349,87.5067418 620.874687,87.9263017 622.132988,87.9263017 C623.484497,87.9263017 624.579684,87.469089 625.438269,86.5385267 L624.160251,85.4788691 C623.631478,86.0454542 622.955723,86.3197818 622.132988,86.3197818 C621.349687,86.3197818 620.673933,86.0454542 620.107518,85.5165219 C619.541103,84.9857966 619.268651,84.2919091 619.268651,83.4527893 C619.268651,82.6315995 619.541103,81.9556419 620.107518,81.4446395 C620.673933,80.9157072 621.349687,80.6593095 622.132988,80.6593095 C622.955723,80.6593095 623.631478,80.9336371 624.160251,81.4625694 L625.418552,80.4029118 C624.579684,79.4902794 623.484497,79.0348598 622.132988,79.0348598 Z M629.831567,76.0029121 L628.169964,76.0029121 L628.169964,79.2159518 L626.637419,79.2159518 L626.637419,80.6234497 L628.169964,80.6234497 L628.169964,87.7434166 L629.831567,87.7434166 L629.831567,80.6234497 L631.638358,80.6234497 L631.638358,79.2159518 L629.831567,79.2159518 L629.831567,76.0029121 Z M636.623165,84.2560493 C637.336561,84.4210044 637.773919,84.7491218 637.755994,85.3336368 C637.73807,85.9360817 637.245146,86.3932944 636.460052,86.4470842 C635.929486,86.482944 635.492128,86.3932944 635.108544,86.1548266 C634.724959,85.9540117 634.488356,85.6438242 634.414865,85.1866116 L632.900244,85.1866116 C632.918168,86.0095944 633.247979,86.683759 633.886092,87.1768315 C634.524205,87.669904 635.255525,87.9263017 636.076467,87.9263017 C637.00675,87.9263017 637.773919,87.6896269 638.412032,87.2324142 C639.051937,86.7572716 639.379955,86.1368967 639.379955,85.3694966 C639.379955,84.0731642 638.650428,83.2519744 637.171655,82.8862042 L635.911562,82.5760168 C635.382789,82.4128546 635.036846,82.1923167 634.907789,81.9197821 C634.816374,81.7368971 634.816374,81.5181522 634.889865,81.2438246 C635.017129,80.7866119 635.527977,80.4764244 636.167883,80.4764244 C636.843637,80.4764244 637.408259,80.8421946 637.499674,81.4446395 L639.087786,81.4446395 C638.942597,79.8201898 637.718353,79.0348598 636.132033,79.0348598 C635.364864,79.0348598 634.68911,79.2356747 634.122695,79.6552346 C633.558073,80.0747945 633.228262,80.5857969 633.174489,81.2061717 C633.027508,82.723042 633.830526,83.5442319 635.456279,83.9817217 L636.623165,84.2560493 Z" id="Shape"></path>
                            <path d="M613.911014,243.959542 C615.024126,243.8681 615.845069,243.44854 616.375634,242.718792 C616.922332,241.987252 617.196577,241.11048 617.196577,240.088475 C617.196577,238.992957 616.886483,238.062395 616.266295,237.294995 C615.644314,236.527595 614.714032,236.145688 613.473656,236.145688 L608.635829,236.145688 L608.635829,248.725312 L610.351205,248.725312 L610.351205,244.015125 L611.957242,244.015125 L615.206956,248.725312 L617.270068,248.725312 L613.911014,243.959542 Z M613.41809,237.734278 C614.787522,237.734278 615.44356,238.792142 615.44356,240.088475 C615.44356,241.402737 614.787522,242.426535 613.344599,242.426535 L610.351205,242.426535 L610.351205,237.734278 L613.41809,237.734278 Z M627.612512,248.725312 L627.612512,240.197847 L625.970627,240.197847 L625.970627,241.47625 C625.440061,240.545687 624.217609,240.014962 622.977233,240.014962 C621.770913,240.014962 620.749216,240.418385 619.910348,241.239575 C619.069689,242.060765 618.650255,243.120422 618.650255,244.452615 C618.650255,245.766877 619.069689,246.844464 619.910348,247.665654 C620.749216,248.488637 621.770913,248.908197 622.977233,248.908197 C624.217609,248.908197 625.404212,248.359542 625.970627,247.41105 L625.970627,248.725312 L627.612512,248.725312 Z M625.95091,244.434685 C625.95091,245.311457 625.678457,246.005345 625.129967,246.516347 C624.583269,247.02735 623.907515,247.281954 623.122421,247.281954 C622.337328,247.281954 621.68129,247.00942 621.150725,246.478694 C620.621952,245.949762 620.347707,245.255875 620.347707,244.434685 C620.347707,243.613495 620.604027,242.937537 621.1328,242.426535 C621.661573,241.89581 622.337328,241.641205 623.122421,241.641205 C623.871666,241.641205 624.527703,241.89581 625.094118,242.388882 C625.65874,242.881955 625.95091,243.575842 625.95091,244.434685 Z M634.335997,240.014962 C633.075904,240.014962 632.016565,240.418385 631.141849,241.239575 C630.26534,242.060765 629.82619,243.120422 629.82619,244.434685 C629.82619,245.748947 630.26534,246.826535 631.141849,247.665654 C632.016565,248.488637 633.075904,248.908197 634.335997,248.908197 C635.685713,248.908197 636.780901,248.450984 637.639485,247.520422 L636.361467,246.460764 C635.832694,247.02735 635.15694,247.301677 634.335997,247.301677 C633.550903,247.301677 632.875149,247.02735 632.308735,246.498417 C631.744113,245.967692 631.469867,245.273804 631.469867,244.434685 C631.469867,243.613495 631.744113,242.937537 632.308735,242.426535 C632.875149,241.89581 633.550903,241.641205 634.335997,241.641205 C635.15694,241.641205 635.832694,241.915532 636.361467,242.444465 L637.621561,241.384807 C636.780901,240.472175 635.685713,240.014962 634.335997,240.014962 Z M640.614954,243.794587 C640.815709,242.388882 641.873255,241.513903 643.316179,241.513903 C644.703536,241.513903 645.707309,242.388882 645.908063,243.794587 L640.614954,243.794587 Z M647.549949,244.434685 C647.549949,243.100699 647.14844,242.042835 646.345421,241.239575 C645.560328,240.418385 644.53863,240.014962 643.316179,240.014962 C642.07401,240.014962 641.034388,240.418385 640.195521,241.239575 C639.372786,242.042835 638.953352,243.100699 638.953352,244.434685 C638.953352,245.766877 639.372786,246.844464 640.195521,247.665654 C641.034388,248.488637 642.07401,248.908197 643.316179,248.908197 C645.01363,248.908197 646.528252,248.104937 647.239855,246.643649 L646.546176,246.387252 C646.218157,246.259949 645.981554,246.150577 645.816648,246.096787 C645.359573,246.917977 644.411366,247.41105 643.369952,247.41105 C641.910897,247.41105 640.815709,246.498417 640.614954,245.090919 L647.532024,245.090919 C647.549949,244.963617 647.549949,244.744872 647.549949,244.434685 Z" id="Shape"></path>
                            <path d="M438.426438,436.503456 L436.108799,428.361485 L434.812856,428.361485 L432.495217,436.503456 L429.336917,426.663522 L427.512202,426.663522 L431.763897,439.243146 L433.242669,439.243146 L435.450969,431.391639 L437.678986,439.243146 L439.157759,439.243146 L443.409453,426.663522 L441.584738,426.663522 L438.426438,436.503456 Z M443.656812,434.952519 C443.656812,436.284711 444.09417,437.362299 444.952754,438.183489 C445.809546,439.006472 446.868884,439.426032 448.109261,439.426032 C449.35143,439.426032 450.408976,439.006472 451.26756,438.183489 C452.144069,437.344369 452.581427,436.266782 452.581427,434.952519 C452.581427,433.638257 452.144069,432.578599 451.285485,431.757409 C450.428693,430.934427 449.369354,430.532797 448.109261,430.532797 C446.85096,430.532797 445.791621,430.934427 444.933037,431.757409 C444.076245,432.578599 443.656812,433.638257 443.656812,434.952519 Z M450.921617,434.952519 C450.921617,435.809569 450.647372,436.503456 450.098882,437.034182 C449.570109,437.563114 448.894354,437.819512 448.109261,437.819512 C447.324167,437.819512 446.650205,437.563114 446.101715,437.034182 C445.572942,436.503456 445.298697,435.809569 445.298697,434.952519 C445.298697,434.111606 445.572942,433.437442 446.101715,432.924646 C446.650205,432.413644 447.324167,432.159039 448.109261,432.159039 C448.894354,432.159039 449.570109,432.413644 450.098882,432.924646 C450.647372,433.437442 450.921617,434.111606 450.921617,434.952519 Z M456.453122,436.139479 C456.453122,433.729699 457.238216,432.121387 458.790479,432.121387 C459.227837,432.121387 459.64727,432.212829 460.048779,432.413644 L460.3051,430.862707 C459.995006,430.643962 459.502082,430.532797 458.826328,430.532797 C457.657649,430.532797 456.872556,431.226684 456.453122,432.634182 L456.453122,430.715682 L454.79152,430.715682 L454.79152,439.243146 L456.453122,439.243146 L456.453122,436.139479 Z M467.525094,439.243146 L469.71547,439.243146 L465.187738,434.403864 L468.838961,430.715682 L466.575095,430.715682 L463.637267,433.692047 L463.637267,426.079007 L461.993589,426.079007 L461.993589,439.243146 L463.637267,439.243146 L463.637267,435.079822 L467.525094,439.243146 Z" id="Shape"></path>
                            <path d="M131.166215,465.869061 L133.247251,471.457814 L129.085179,471.457814 L131.166215,465.869061 Z M135.054042,476.185931 L136.842908,476.185931 L132.080365,463.606307 L130.253857,463.606307 L125.471597,476.185931 L127.278388,476.185931 L128.502632,472.990821 L133.83159,472.990821 L135.054042,476.185931 Z M144.157902,472.261074 C144.157902,473.959036 143.116488,474.744366 141.747055,474.744366 C140.580169,474.744366 139.886491,473.885524 139.886491,472.479819 L139.886491,467.658466 L138.224888,467.658466 L138.224888,472.589191 C138.206964,474.998971 139.393567,476.368816 141.510452,476.368816 C142.550074,476.368816 143.664978,475.857814 144.157902,474.907529 L144.157902,476.185931 L145.817712,476.185931 L145.817712,467.658466 L144.157902,467.658466 L144.157902,472.261074 Z M150.865256,464.445427 L149.203653,464.445427 L149.203653,467.658466 L147.671107,467.658466 L147.671107,469.065964 L149.203653,469.065964 L149.203653,476.185931 L150.865256,476.185931 L150.865256,469.065964 L152.672047,469.065964 L152.672047,467.658466 L150.865256,467.658466 L150.865256,464.445427 Z M153.864027,471.895304 C153.864027,473.227496 154.303177,474.305084 155.159969,475.126273 C156.018553,475.949256 157.0761,476.368816 158.318268,476.368816 C159.558645,476.368816 160.617984,475.949256 161.476568,475.126273 C162.351284,474.287154 162.790435,473.209566 162.790435,471.895304 C162.790435,470.581041 162.351284,469.521384 161.494492,468.700194 C160.635908,467.879004 159.578362,467.477374 158.318268,467.477374 C157.058175,467.477374 156.000629,467.879004 155.142045,468.700194 C154.28346,469.521384 153.864027,470.581041 153.864027,471.895304 Z M161.128832,471.895304 C161.128832,472.754146 160.854587,473.448034 160.307889,473.976966 C159.779116,474.505899 159.103362,474.762296 158.318268,474.762296 C157.533175,474.762296 156.857421,474.505899 156.310723,473.976966 C155.780157,473.448034 155.507705,472.754146 155.507705,471.895304 C155.507705,471.054391 155.780157,470.380226 156.310723,469.869224 C156.857421,469.356429 157.533175,469.101824 158.318268,469.101824 C159.103362,469.101824 159.779116,469.356429 160.307889,469.869224 C160.854587,470.380226 161.128832,471.054391 161.128832,471.895304 Z M174.803444,469.101824 C176.025896,469.101824 176.755423,469.958874 176.755423,471.366371 L176.755423,476.185931 L178.417026,476.185931 L178.417026,471.256999 C178.417026,468.845426 177.248347,467.477374 175.131462,467.477374 C173.762029,467.477374 172.776181,468.060096 172.173918,469.229126 C171.772408,468.298564 171.024956,467.731979 169.947693,467.567024 C169.655523,467.513234 169.345429,467.495304 169.015618,467.513234 C168.158826,467.586747 167.081563,468.079819 166.66213,468.936869 L166.66213,467.658466 L165.000527,467.658466 L165.000527,476.185931 L166.66213,476.185931 L166.66213,471.585116 C166.66213,469.923014 167.719676,469.101824 169.035335,469.101824 C170.148448,469.101824 170.877975,469.958874 170.877975,471.346649 L170.877975,476.185931 L172.539578,476.185931 L172.539578,471.585116 C172.539578,470.123829 173.416086,469.083894 174.803444,469.101824 Z M189.474658,476.185931 L189.474658,467.658466 L187.832773,467.658466 L187.832773,468.936869 C187.304,468.006307 186.079755,467.477374 184.839379,467.477374 C183.634852,467.477374 182.613154,467.879004 181.772495,468.700194 C180.933627,469.521384 180.512401,470.581041 180.512401,471.913234 C180.512401,473.227496 180.933627,474.305084 181.772495,475.126273 C182.613154,475.949256 183.634852,476.368816 184.839379,476.368816 C186.079755,476.368816 187.266358,475.820161 187.832773,474.871669 L187.832773,476.185931 L189.474658,476.185931 Z M187.814848,471.895304 C187.814848,472.772076 187.540603,473.465964 186.993906,473.976966 C186.445415,474.487969 185.769661,474.744366 184.984568,474.744366 C184.199474,474.744366 183.543437,474.470039 183.014664,473.939313 C182.484098,473.410381 182.211645,472.716494 182.211645,471.895304 C182.211645,471.074114 182.466173,470.398156 182.994947,469.887154 C183.525512,469.356429 184.199474,469.101824 184.984568,469.101824 C185.733812,469.101824 186.389849,469.356429 186.956264,469.849501 C187.522679,470.342574 187.814848,471.036461 187.814848,471.895304 Z M194.556258,464.445427 L192.894656,464.445427 L192.894656,467.658466 L191.360317,467.658466 L191.360317,469.065964 L192.894656,469.065964 L192.894656,476.185931 L194.556258,476.185931 L194.556258,469.065964 L196.363049,469.065964 L196.363049,467.658466 L194.556258,467.658466 L194.556258,464.445427 Z M199.887008,476.185931 L199.887008,467.658466 L198.245123,467.658466 L198.245123,476.185931 L199.887008,476.185931 Z M198.245123,465.286339 C198.700406,465.705899 199.431726,465.705899 199.869084,465.286339 C200.326159,464.864986 200.326159,464.171099 199.869084,463.751539 C199.431726,463.331979 198.700406,463.331979 198.245123,463.751539 C197.805972,464.171099 197.805972,464.864986 198.245123,465.286339 Z M202.098893,471.895304 C202.098893,473.227496 202.538044,474.305084 203.394836,475.126273 C204.25342,475.949256 205.312759,476.368816 206.553135,476.368816 C207.795304,476.368816 208.85285,475.949256 209.711434,475.126273 C210.587943,474.287154 211.025301,473.209566 211.025301,471.895304 C211.025301,470.581041 210.587943,469.521384 209.729359,468.700194 C208.870775,467.879004 207.813228,467.477374 206.553135,467.477374 C205.294834,467.477374 204.235495,467.879004 203.376911,468.700194 C202.520119,469.521384 202.098893,470.581041 202.098893,471.895304 Z M209.363699,471.895304 C209.363699,472.754146 209.091246,473.448034 208.542756,473.976966 C208.013983,474.505899 207.338229,474.762296 206.553135,474.762296 C205.768041,474.762296 205.09408,474.505899 204.54559,473.976966 C204.016816,473.448034 203.742571,472.754146 203.742571,471.895304 C203.742571,471.054391 204.016816,470.380226 204.54559,469.869224 C205.09408,469.356429 205.768041,469.101824 206.553135,469.101824 C207.338229,469.101824 208.013983,469.356429 208.542756,469.869224 C209.091246,470.380226 209.363699,471.054391 209.363699,471.895304 Z M214.896996,471.585116 C214.896996,469.905084 215.97426,469.101824 217.306051,469.101824 C218.474729,469.101824 219.186332,469.958874 219.186332,471.366371 L219.186332,476.185931 L220.847935,476.185931 L220.847935,471.256999 C220.847935,468.845426 219.679257,467.477374 217.562371,467.477374 C216.520957,467.477374 215.38992,467.988377 214.896996,468.936869 L214.896996,467.658466 L213.235394,467.658466 L213.235394,476.185931 L214.896996,476.185931 L214.896996,471.585116 Z" id="Shape"></path>
                            <path d="M260.613469,227.270383 C260.613469,228.301353 260.253186,229.163781 259.557715,229.812844 C258.862244,230.460114 258.048471,230.795403 257.064415,230.795403 C256.082152,230.795403 255.243284,230.460114 254.547813,229.812844 C253.852342,229.163781 253.517154,228.301353 253.517154,227.270383 L253.517154,216.478371 L250.928854,216.478371 L250.928854,227.270383 C250.928854,229.020342 251.527533,230.460114 252.701588,231.586112 C253.900738,232.690594 255.363379,233.241042 257.064415,233.241042 C258.767244,233.241042 260.20479,232.690594 261.380638,231.586112 C262.577996,230.460114 263.178467,229.020342 263.178467,227.270383 L263.178467,216.478371 L260.613469,216.478371 L260.613469,227.270383 Z M278.227889,220.844303 C278.227889,218.158403 276.453362,216.478371 273.648175,216.478371 L267.319029,216.478371 L267.319029,233.000782 L274.151854,233.000782 C275.662891,233.000782 276.860248,232.545362 277.747512,231.611214 C278.659869,230.675272 279.115152,229.524172 279.115152,228.157913 C279.115152,227.293692 278.826567,226.479674 278.276285,225.687172 C277.72421,224.896463 277.005437,224.415941 276.093079,224.200782 C277.509116,223.648541 278.227889,222.522543 278.227889,220.844303 Z M269.884027,218.805673 L273.384685,218.805673 C274.750533,218.805673 275.591193,219.596382 275.591193,220.939332 C275.591193,222.258973 274.824023,223.264841 273.553175,223.264841 L269.884027,223.264841 L269.884027,218.805673 Z M273.960062,225.446911 C274.703929,225.446911 275.302608,225.735583 275.757891,226.287824 C276.213173,226.838272 276.453362,227.462233 276.453362,228.132811 C276.453362,229.475762 275.4944,230.675272 274.03176,230.675272 L269.884027,230.675272 L269.884027,225.446911 L273.960062,225.446911 Z M284.937034,233.000782 L284.937034,216.478371 L282.39713,216.478371 L282.39713,233.000782 L284.937034,233.000782 Z" id="Shape"></path>
                            <path d="M8.52669123,294.037778 L8.52669123,299.588878 L2.44848859,299.588878 L2.44848859,294.037778 L0.751037129,294.037778 L0.751037129,306.619195 L2.44848859,306.619195 L2.44848859,301.141608 L8.52669123,301.141608 L8.52669123,306.619195 L10.2420672,306.619195 L10.2420672,294.037778 L8.52669123,294.037778 Z M14.2625357,301.68847 C14.4632902,300.282765 15.522629,299.405993 16.9637599,299.405993 C18.3511173,299.405993 19.35489,300.282765 19.5556446,301.68847 L14.2625357,301.68847 Z M21.1993225,302.326775 C21.1993225,300.994583 20.7978134,299.934925 19.9947952,299.131665 C19.2097015,298.310475 18.1862117,297.908845 16.9637599,297.908845 C15.7233835,297.908845 14.6819693,298.310475 13.843102,299.131665 C13.0203668,299.934925 12.6009332,300.994583 12.6009332,302.326775 C12.6009332,303.66076 13.0203668,304.738348 13.843102,305.559538 C14.6819693,306.380727 15.7233835,306.800287 16.9637599,306.800287 C18.6612113,306.800287 20.1758328,305.997027 20.887436,304.537533 L20.1955497,304.281135 C19.8657387,304.153833 19.6291351,304.04446 19.4642296,303.988878 C19.0089469,304.810067 18.0589477,305.30314 17.0193259,305.30314 C15.558478,305.30314 14.4632902,304.390508 14.2625357,302.984803 L21.1796055,302.984803 C21.1993225,302.8575 21.1993225,302.638755 21.1993225,302.326775 Z M31.7066725,306.619195 L31.7066725,298.09173 L30.0629946,298.09173 L30.0629946,299.370133 C29.5342214,298.437778 28.3117696,297.908845 27.0696008,297.908845 C25.8650735,297.908845 24.8433762,298.310475 24.0027165,299.131665 C23.1638492,299.954648 22.7444156,301.012513 22.7444156,302.346498 C22.7444156,303.66076 23.1638492,304.738348 24.0027165,305.559538 C24.8433762,306.380727 25.8650735,306.800287 27.0696008,306.800287 C28.3117696,306.800287 29.4983724,306.253425 30.0629946,305.30314 L30.0629946,306.619195 L31.7066725,306.619195 Z M30.0450701,302.326775 C30.0450701,303.203548 29.770825,303.897435 29.2241273,304.408437 C28.6756372,304.91944 28.0016755,305.175838 27.2165818,305.175838 C26.4314881,305.175838 25.7736584,304.90151 25.2448853,304.372578 C24.7161121,303.843645 24.4418671,303.149758 24.4418671,302.326775 C24.4418671,301.505585 24.6963952,300.829628 25.2269608,300.318625 C25.7557339,299.789693 26.4314881,299.533295 27.2165818,299.533295 C27.964034,299.533295 28.6218637,299.789693 29.1864859,300.282765 C29.7529005,300.775838 30.0450701,301.469725 30.0450701,302.326775 Z M34.4867646,306.619195 L36.1465746,306.619195 L36.1465746,293.453263 L34.4867646,293.453263 L34.4867646,306.619195 Z M41.2245894,294.878691 L39.5629869,294.878691 L39.5629869,298.09173 L38.030441,298.09173 L38.030441,299.497435 L39.5629869,299.497435 L39.5629869,306.619195 L41.2245894,306.619195 L41.2245894,299.497435 L43.0313803,299.497435 L43.0313803,298.09173 L41.2245894,298.09173 L41.2245894,294.878691 Z M46.5750567,302.016588 C46.5750567,301.177468 46.8313773,300.557093 47.3601504,300.155463 C47.8889236,299.73411 48.4911873,299.533295 49.1669414,299.533295 C50.3535442,299.533295 51.174487,300.410068 51.174487,301.797843 L51.174487,306.619195 L52.8360894,306.619195 L52.8360894,301.68847 C52.8540139,299.29662 51.5222225,297.908845 49.3856205,297.908845 C48.8568473,297.908845 48.3083572,298.036148 47.743735,298.292545 C47.1952449,298.52922 46.8116603,298.89499 46.5750567,299.370133 L46.5750567,293.453263 L44.9134543,293.453263 L44.9134543,306.619195 L46.5750567,306.619195 L46.5750567,302.016588 Z" id="Shape"></path>
                            <path d="M37.5841206,55.6327425 C36.3993102,54.5192951 34.9743114,53.9724329 33.3324259,53.9724329 C31.5614839,53.9724329 30.0468625,54.5928078 28.8226182,55.8514874 C27.6001664,57.11196 26.9799782,58.6270373 26.9799782,60.4343721 C26.9799782,62.223777 27.6001664,63.7406473 28.8226182,64.999327 C30.0468625,66.2597996 31.5614839,66.8801744 33.3324259,66.8801744 C37.0374229,66.8801744 39.2833645,64.6891395 39.2833645,60.3805824 L33.7697841,60.3805824 L33.7697841,61.8597999 L37.347517,61.8597999 C37.2937435,62.8997346 36.9101589,63.7209244 36.1609142,64.3430923 C35.413462,64.9455372 34.4813873,65.2557247 33.3324259,65.2557247 C32.0364836,65.2557247 30.9233713,64.7805821 30.028938,63.8500198 C29.1345048,62.9176645 28.6774297,61.7683574 28.6774297,60.4343721 C28.6774297,59.1021799 29.1345048,57.9528727 30.028938,57.0205174 C30.9233713,56.0720252 32.0364836,55.5968827 33.3324259,55.5968827 C34.4813873,55.5968827 35.48516,55.9805827 36.3616688,56.7659127 L37.5841206,55.6327425 Z M42.3645884,61.7683574 C42.565343,60.3626525 43.6246818,59.4858799 45.0658127,59.4858799 C46.45317,59.4858799 47.4569428,60.3626525 47.6576974,61.7683574 L42.3645884,61.7683574 Z M49.3013753,62.4066621 C49.3013753,61.0744699 48.8998662,60.0148122 48.096848,59.2115523 C47.3117542,58.3903625 46.2882645,57.9887325 45.0658127,57.9887325 C43.8254363,57.9887325 42.7840221,58.3903625 41.9451548,59.2115523 C41.1242121,60.0148122 40.702986,61.0744699 40.702986,62.4066621 C40.702986,63.7406473 41.1242121,64.8164419 41.9451548,65.6394247 C42.7840221,66.4606145 43.8254363,66.8801744 45.0658127,66.8801744 C46.7632641,66.8801744 48.2778855,66.0769145 48.9912812,64.6156269 L48.2976025,64.3610222 C47.9677915,64.2337198 47.7311879,64.1225544 47.5662823,64.0687647 C47.1109997,64.8899545 46.1610005,65.383027 45.1213787,65.383027 C43.6605308,65.383027 42.565343,64.4703946 42.3645884,63.0646898 L49.2834508,63.0646898 C49.3013753,62.9373874 49.3013753,62.7168495 49.3013753,62.4066621 Z M53.072693,62.0964747 C53.072693,60.4164422 54.1499563,59.6131823 55.4817477,59.6131823 C56.650426,59.6131823 57.3620292,60.4720249 57.3620292,61.8777298 L57.3620292,66.6972893 L59.0236316,66.6972893 L59.0236316,61.7683574 C59.0236316,59.3585776 57.8549533,57.9887325 55.7380682,57.9887325 C54.6984464,57.9887325 53.5656171,58.4997349 53.072693,59.4500201 L53.072693,58.1716176 L51.412883,58.1716176 L51.412883,66.6972893 L53.072693,66.6972893 L53.072693,62.0964747 Z M70.0938113,66.6972893 L70.0938113,53.5331501 L68.4322089,53.5331501 L68.4322089,59.4500201 C67.8675867,58.4997349 66.7168329,57.9887325 65.4208906,57.9887325 C64.2163632,57.9887325 63.194666,58.3903625 62.3719308,59.2115523 C61.550988,60.0327422 61.1315544,61.0923998 61.1315544,62.424592 C61.1315544,63.7406473 61.550988,64.8164419 62.3719308,65.6394247 C63.2125905,66.4606145 64.2342878,66.8801744 65.4388151,66.8801744 C66.6809839,66.8801744 67.8675867,66.3333122 68.4322089,65.383027 L68.4322089,66.6972893 L70.0938113,66.6972893 Z M65.5857961,59.6131823 C66.3332483,59.6131823 66.991078,59.86958 67.5557002,60.3626525 C68.1221148,60.855725 68.4142844,61.5496125 68.4142844,62.4066621 C68.4142844,63.2655048 68.1400393,63.9593922 67.5754171,64.4883246 C67.026927,64.999327 66.3708898,65.2557247 65.5857961,65.2557247 C64.8007024,65.2557247 64.1428727,64.9813971 63.6140996,64.4524647 C63.0853264,63.9217394 62.8290059,63.2278519 62.8290059,62.4066621 C62.8290059,61.5854723 63.0853264,60.9095147 63.6140996,60.3985123 C64.1428727,59.86958 64.8007024,59.6131823 65.5857961,59.6131823 Z M73.9690912,61.7683574 C74.1698458,60.3626525 75.2291845,59.4858799 76.6703154,59.4858799 C78.0576728,59.4858799 79.0614456,60.3626525 79.2622001,61.7683574 L73.9690912,61.7683574 Z M80.9058781,62.4066621 C80.9058781,61.0744699 80.504369,60.0148122 79.7013507,59.2115523 C78.916257,58.3903625 77.8927673,57.9887325 76.6703154,57.9887325 C75.4299391,57.9887325 74.3885248,58.3903625 73.5496576,59.2115523 C72.7269224,60.0148122 72.3074888,61.0744699 72.3074888,62.4066621 C72.3074888,63.7406473 72.7269224,64.8164419 73.5496576,65.6394247 C74.3885248,66.4606145 75.4299391,66.8801744 76.6703154,66.8801744 C78.3677669,66.8801744 79.8823883,66.0769145 80.5939915,64.6156269 L79.9021053,64.3610222 C79.5722942,64.2337198 79.3356907,64.1225544 79.1707851,64.0687647 C78.7155025,64.8899545 77.7655032,65.383027 76.7258814,65.383027 C75.2650336,65.383027 74.1698458,64.4703946 73.9690912,63.0646898 L80.8861611,63.0646898 C80.9058781,62.9373874 80.9058781,62.7168495 80.9058781,62.4066621 Z M84.6771958,63.5936221 C84.6771958,61.1838423 85.4622895,59.5773225 87.0145524,59.5773225 C87.4519105,59.5773225 87.8713441,59.668765 88.2728532,59.86958 L88.5291738,58.3168499 C88.2190797,58.098105 87.7261556,57.9887325 87.0504014,57.9887325 C85.8817231,57.9887325 85.0966294,58.68262 84.6771958,60.0883249 L84.6771958,58.1716176 L83.0155933,58.1716176 L83.0155933,66.6972893 L84.6771958,66.6972893 L84.6771958,63.5936221 Z" id="Shape"></path>
                        </g>
                    </g>
                </g>
            </g>
        </g>
    </g>
</svg>