<?xml version="1.0" standalone="no"?>
<!DOCTYPE svg PUBLIC "-//W3C//DTD SVG 20010904//EN"
 "http://www.w3.org/TR/2001/REC-SVG-20010904/DTD/svg10.dtd">
<svg version="1.0" xmlns="http://www.w3.org/2000/svg"
 width="520.000000pt" height="520.000000pt" viewBox="0 0 520.000000 520.000000"
 preserveAspectRatio="xMidYMid meet">
<metadata>
Created by potrace 1.11, written by Peter Selinger 2001-2013
</metadata>
<g transform="translate(0.000000,520.000000) scale(0.100000,-0.100000)"
fill="#000000" stroke="none">
<path d="M2557 5145 c-90 -33 -149 -114 -153 -209 -4 -103 30 -167 116 -222
39 -25 55 -29 115 -29 78 0 123 18 173 66 92 90 92 246 1 337 -68 66 -165 88
-252 57z"/>
<path d="M1358 4832 c-21 -8 -38 -19 -38 -23 0 -5 -6 -9 -12 -9 -7 -1 -25 -17
-41 -37 -101 -134 -20 -331 143 -350 201 -24 325 203 194 355 -18 22 -50 47
-71 57 -48 23 -128 26 -175 7z"/>
<path d="M3738 4841 c-150 -30 -218 -228 -119 -351 46 -57 104 -81 182 -77 67
4 103 21 151 69 77 77 71 227 -13 303 -60 54 -121 71 -201 56z"/>
<path d="M2793 4620 c-75 -17 -133 -91 -133 -170 0 -169 223 -234 320 -93 37
54 35 144 -3 195 -44 57 -114 83 -184 68z"/>
<path d="M1795 4481 c-111 -51 -139 -185 -58 -277 44 -50 141 -68 202 -36 19
9 48 34 64 54 25 31 31 48 32 96 2 49 -2 65 -24 97 -51 76 -139 102 -216 66z"/>
<path d="M3648 4238 c-164 -114 -40 -368 149 -308 79 26 129 105 118 187 -12
89 -75 145 -165 149 -50 2 -63 -1 -102 -28z"/>
<path d="M2192 4186 c-36 -10 -92 -67 -93 -94 0 -9 -2 -26 -4 -37 -7 -37 33
-102 76 -123 145 -72 275 117 153 224 -38 35 -82 45 -132 30z"/>
<path d="M2975 4172 c-60 -13 -109 -87 -101 -154 10 -90 133 -150 207 -100 49
32 60 51 66 107 5 48 3 58 -21 90 -15 19 -35 39 -45 45 -23 12 -78 18 -106 12z"/>
<path d="M542 3989 c-213 -39 -245 -334 -45 -416 193 -78 375 130 270 309 -32
54 -98 103 -137 101 -3 0 -14 3 -25 6 -11 4 -39 4 -63 0z"/>
<path d="M4608 3985 c-191 -39 -242 -281 -83 -392 86 -59 221 -41 291 39 76
89 63 237 -28 310 -53 44 -111 58 -180 43z"/>
<path d="M1086 3918 c-82 -18 -136 -87 -136 -174 0 -45 21 -97 50 -122 33 -29
96 -50 139 -47 149 13 210 199 98 303 -35 33 -103 51 -151 40z"/>
<path d="M1512 3823 c-122 -59 -93 -238 41 -258 111 -17 190 90 147 196 -27
63 -121 94 -188 62z"/>
<path d="M3626 3767 c-81 -47 -93 -153 -25 -219 56 -55 141 -51 195 7 19 21
35 47 35 59 6 79 -12 120 -66 152 -49 28 -90 29 -139 1z"/>
<path d="M4303 3519 c-75 -22 -134 -125 -113 -198 5 -17 8 -34 8 -37 -1 -4 11
-21 25 -39 76 -95 227 -83 285 23 77 140 -50 295 -205 251z"/>
<path d="M1130 3153 c-49 -17 -94 -89 -87 -138 15 -108 107 -161 200 -116 92
45 103 174 20 235 -26 19 -102 30 -133 19z"/>
<path d="M4046 3119 c-61 -17 -107 -90 -97 -154 10 -68 69 -115 143 -115 41 0
52 5 88 38 22 22 40 47 41 58 0 10 2 27 4 37 4 24 -14 77 -34 98 -36 38 -93
53 -145 38z"/>
<path d="M705 3008 c-68 -24 -115 -93 -115 -168 0 -95 77 -167 177 -167 126 0
209 140 150 253 -38 74 -131 110 -212 82z"/>
<path d="M165 2827 c-32 -10 -92 -51 -112 -77 -73 -92 -65 -236 16 -316 71
-69 162 -90 252 -59 54 19 88 48 125 106 24 37 28 55 28 114 1 82 -15 123 -70
177 -59 59 -157 82 -239 55z"/>
<path d="M4877 2825 c-51 -19 -96 -58 -127 -109 -31 -51 -35 -160 -8 -217 51
-105 183 -164 289 -127 204 69 225 343 34 444 -42 23 -141 27 -188 9z"/>
<path d="M4429 2555 c-75 -32 -111 -82 -114 -157 -6 -149 156 -233 279 -145
35 25 65 89 66 140 0 47 -31 109 -68 135 -46 34 -120 46 -163 27z"/>
<path d="M1101 2368 c-96 -47 -100 -180 -8 -241 29 -19 62 -23 106 -13 116 27
142 190 40 250 -45 27 -90 28 -138 4z"/>
<path d="M4039 2350 c-71 -20 -115 -83 -106 -152 7 -52 29 -84 75 -106 79 -40
182 5 198 88 9 42 -3 91 -30 123 -26 32 -99 57 -137 47z"/>
<path d="M836 2045 c-65 -23 -109 -78 -121 -153 -4 -31 24 -104 51 -133 15
-16 43 -34 63 -40 43 -15 109 -13 127 2 8 6 14 9 14 5 0 -3 14 6 31 21 93 82
82 224 -21 282 -48 26 -98 32 -144 16z"/>
<path d="M1447 1677 c-91 -52 -93 -181 -4 -236 119 -73 261 60 195 182 -36 69
-123 93 -191 54z"/>
<path d="M3617 1656 c-74 -37 -99 -130 -54 -197 65 -96 210 -78 245 31 14 44
10 78 -13 117 -37 63 -110 83 -178 49z"/>
<path d="M494 1641 c-101 -46 -153 -154 -124 -261 22 -80 88 -140 172 -155 99
-18 222 59 248 154 28 107 -27 226 -125 266 -40 16 -130 14 -171 -4z"/>
<path d="M4055 1644 c-38 -20 -75 -54 -75 -70 0 -7 -5 -14 -11 -16 -21 -7 -17
-109 5 -152 53 -98 190 -123 268 -49 63 60 77 142 37 214 -43 76 -151 111
-224 73z"/>
<path d="M4589 1651 c-166 -54 -213 -248 -89 -368 63 -61 172 -78 248 -39 29
15 96 79 98 94 0 4 5 16 10 27 5 11 9 48 8 83 -1 53 -6 70 -30 105 -45 63
-100 97 -165 102 -29 3 -66 1 -80 -4z"/>
<path d="M2156 1300 c-108 -33 -129 -181 -34 -247 40 -28 120 -27 160 2 35 26
63 94 54 136 -16 83 -99 133 -180 109z"/>
<path d="M1420 1274 c-77 -24 -117 -72 -125 -147 -3 -27 1 -59 9 -79 68 -163
296 -142 335 31 17 76 -40 172 -116 195 -42 13 -59 13 -103 0z"/>
<path d="M2910 1272 c-38 -21 -71 -75 -72 -119 -2 -75 76 -150 146 -140 54 7
89 30 113 72 68 122 -63 253 -187 187z"/>
<path d="M3282 1040 c-74 -33 -118 -105 -110 -178 8 -73 84 -149 155 -156 137
-12 235 132 173 254 -40 78 -140 115 -218 80z"/>
<path d="M2300 908 c-103 -51 -129 -179 -54 -267 55 -64 139 -79 216 -38 94
51 117 188 45 265 -53 57 -139 74 -207 40z"/>
<path d="M1363 788 c-164 -61 -190 -287 -45 -382 142 -94 324 -6 337 163 10
122 -79 226 -205 236 -19 1 -59 -6 -87 -17z"/>
<path d="M3691 779 c-94 -47 -139 -146 -112 -249 50 -190 314 -220 403 -46 57
111 6 256 -105 301 -69 28 -121 26 -186 -6z"/>
<path d="M2545 500 c-54 -23 -111 -84 -129 -137 -18 -52 -14 -146 8 -187 90
-171 326 -179 424 -15 30 51 37 141 15 205 -15 45 -68 104 -118 130 -44 24
-151 26 -200 4z"/>
</g>
</svg>
