<svg width="52px" height="52px" viewBox="0 0 52 52" version="1.1" xmlns="http://www.w3.org/2000/svg" xmlns:xlink="http://www.w3.org/1999/xlink">
    <g id="Page-1" stroke="none" stroke-width="1" fill="none" fill-rule="evenodd">
        <g id="HP-V6-Copy" transform="translate(-707.000000, -1395.000000)">
            <g id="cash-payment" transform="translate(706.000000, 1392.000000)">
                <path d="M20.7226006,0.0868785569 L37.7696361,2.32974283e-05 C38.6361521,-0.00439131392 39.3785227,0.619050733 39.5239433,1.47328862 C40.6684361,8.19633237 41.2253463,14.5888045 41.1946737,20.6507049 C41.1641762,26.6780134 40.5513338,32.6648899 39.3561466,38.6113345 L39.3561539,38.6113359 C39.1906524,39.4347599 38.4693685,40.0285726 37.6294878,40.0328515 L20.5934344,40.1196724 C19.6156724,40.1246538 18.8190014,39.3360592 18.81402,38.3582972 C18.8135659,38.2691632 18.8198439,38.1801222 18.8328004,38.0919338 C19.6404203,32.5948584 20.059618,26.8052091 20.0903934,20.7229861 C20.1216949,14.5367908 19.7497997,8.32089479 18.9747079,2.07529796 L18.9746921,2.07529992 C18.8542727,1.10497538 19.543257,0.220752747 20.5135816,0.100333407 C20.582928,0.0917273698 20.6527231,0.0872345594 20.7226006,0.0868785569 Z" id="Rectangle-Copy-3" fill="#E98300" opacity="0.746326265" transform="translate(30.004936, 20.059848) rotate(-118.000000) translate(-30.004936, -20.059848) "></path>
                <path d="M17.2014738,8.43470464 L34.2485093,8.34784938 C35.1150253,8.34343477 35.857396,8.96687682 36.0028166,9.82111471 C37.1473094,16.5441585 37.7042195,22.9366306 37.6735469,28.998531 C37.6430494,35.0258394 37.0302071,41.012716 35.8350199,46.9591605 L35.8350271,46.959162 C35.6695256,47.782586 34.9482417,48.3763987 34.1083611,48.3806776 L17.0723076,48.4674985 C16.0945456,48.4724799 15.2978747,47.6838853 15.2928933,46.7061233 C15.2924392,46.6169893 15.2987171,46.5279483 15.3116736,46.4397598 C16.1192936,40.9426845 16.5384913,35.1530352 16.5692667,29.0708122 C16.6005681,22.8846169 16.228673,16.6687209 15.4535811,10.423124 L15.4535653,10.423126 C15.333146,9.45280146 16.0221303,8.56857883 16.9924548,8.44815949 C17.0618012,8.43955346 17.1315963,8.43506065 17.2014738,8.43470464 Z" id="Rectangle-Copy-4" fill="#E98300" opacity="0.588960193" transform="translate(26.483809, 28.407674) rotate(-118.000000) translate(-26.483809, -28.407674) "></path>
                <path d="M13.9086035,16.5328034 L30.955639,16.4459481 C31.822155,16.4415335 32.5645257,17.0649755 32.7099463,17.9192134 C33.8544391,24.6422572 34.4113492,31.0347293 34.3806766,37.0966297 C34.3501791,43.1239381 33.7373367,49.1108147 32.5421496,55.0572593 L32.5421568,55.0572607 C32.3766553,55.8806847 31.6553714,56.4744974 30.8154908,56.4787763 L13.7794373,56.5655972 C12.8016753,56.5705786 12.0050043,55.781984 12.000023,54.804222 C11.9995689,54.715088 12.0058468,54.626047 12.0188033,54.5378585 C12.8264233,49.0407832 13.245621,43.2511339 13.2763963,37.1689109 C13.3076978,30.9827156 12.9358026,24.7668196 12.1607108,18.5212228 L12.160695,18.5212247 C12.0402756,17.5509002 12.7292599,16.6666775 13.6995845,16.5462582 C13.7689309,16.5376522 13.838726,16.5331594 13.9086035,16.5328034 Z" id="Rectangle-Copy-5" fill="#FFCA86" opacity="0.398111979" transform="translate(23.190939, 36.505773) rotate(-118.000000) translate(-23.190939, -36.505773) "></path>
            </g>
        </g>
    </g>
</svg>