<svg width="49px" height="43px" viewBox="0 0 49 43" version="1.1" xmlns="http://www.w3.org/2000/svg" xmlns:xlink="http://www.w3.org/1999/xlink">
    <defs>
        <path d="M7.73985976,30.1368237 C6.59595023,23.6839434 5.43073765,17.1055682 4.28602665,10.6534894 C14.9197702,6.53848883 28.7245786,20.9876832 39.3560284,16.870389 C40.5007394,23.3224678 41.6670989,29.9019898 42.8121553,36.356017 C32.1788678,40.4682677 18.3724564,26.0206763 7.73985976,30.1368237 Z" id="path-1"></path>
    </defs>
    <g id="Page-1" stroke="none" stroke-width="1" fill="none" fill-rule="evenodd" opacity="0.905250186">
        <g id="HP-V6-Copy" transform="translate(-285.000000, -2738.000000)">
            <g id="Group-3" transform="translate(285.000000, 2731.000000)">
                <path d="M20.1849032,49.3506494 C14.8835144,45.5495017 9.47968334,41.6737542 4.17829457,37.8737542 C8.72737274,27.3138629 28.4443132,27.7752341 32.9901901,17.2153428 C38.2915788,21.0153428 43.6970106,24.8910903 49,28.692238 C44.4493212,39.2498339 24.7323807,38.7907581 20.1849032,49.3506494 Z" id="Shape" fill="#24A0B2" fill-rule="nonzero" transform="translate(26.589147, 33.282996) rotate(-360.000000) translate(-26.589147, -33.282996) "></path>
                <mask id="mask-2" fill="white">
                    <use xlink:href="#path-1"></use>
                </mask>
                <use id="Mask" fill="#4AC9DC" fill-rule="nonzero" opacity="0.962402344" transform="translate(23.548421, 23.503971) rotate(-225.000000) translate(-23.548421, -23.503971) " xlink:href="#path-1"></use>
                <path d="M10.9017172,40.0262705 C9.75780765,33.5733902 8.59259507,26.995015 7.44788407,20.5429362 C18.0816276,16.4279356 31.886436,30.87713 42.5178859,26.7598358 C43.6625969,33.2119146 44.8289563,39.7914366 45.9740127,46.2454638 C35.3407252,50.3577146 21.5343138,35.9101231 10.9017172,40.0262705 Z" id="Combined-Shape-Copy" fill="#0A5763" fill-rule="nonzero" mask="url(#mask-2)" transform="translate(26.710278, 33.393418) rotate(-45.000000) translate(-26.710278, -33.393418) "></path>
            </g>
        </g>
    </g>
</svg>