<svg width="72" height="77" viewBox="0 0 72 77" fill="none" xmlns="http://www.w3.org/2000/svg">
<path fill-rule="evenodd" clip-rule="evenodd" d="M19.8848 8.50289H65.1419L58.2848 15.36V63.2228H11.6562V15.36L11.6576 15.3587C11.6567 15.3135 11.6562 15.2682 11.6562 15.2229C11.6562 11.4358 14.7263 8.36572 18.5134 8.36572C18.983 8.36572 19.4417 8.41294 19.8848 8.50289Z" fill="#FFE0B8"/>
<path fill-rule="evenodd" clip-rule="evenodd" d="M65.1408 22.08H65.1406V8.36572H65.1408C68.9279 8.36572 71.9979 11.4358 71.998 15.2228H71.998V22.08H65.1595C65.1532 22.08 65.147 22.08 65.1408 22.08Z" fill="#FFB85B"/>
<path fill-rule="evenodd" clip-rule="evenodd" d="M4.7992 70.08C4.7993 73.8671 7.8693 76.937 11.6563 76.937L11.6565 76.937L11.6565 76.9369L24.0675 76.9369L44.5703 76.9369L44.5703 63.2226L4.79893 63.2226L4.79893 70.0798L4.7992 70.08Z" fill="#FFC477"/>
<path fill-rule="evenodd" clip-rule="evenodd" d="M65.1404 22.08H65.1406V8.36572H65.1404C61.3533 8.36572 58.2833 11.4358 58.2833 15.2229C58.2833 15.2229 58.2833 15.2229 58.2833 15.2229H58.2833V22.08H65.1404V22.08C65.1404 22.08 65.1404 22.08 65.1404 22.08Z" fill="#FFB85B"/>
<path fill-rule="evenodd" clip-rule="evenodd" d="M58.287 70.0799C58.287 70.0627 58.287 70.0455 58.2868 70.0284L58.2868 63.2227L51.4297 63.2227L51.4297 63.2227L51.4297 70.0799L51.4297 76.937L51.4299 76.937C55.217 76.937 58.287 73.867 58.287 70.0799Z" fill="#FFE0B8"/>
<path fill-rule="evenodd" clip-rule="evenodd" d="M51.4295 63.2227L51.4297 63.2227L51.4297 76.937L51.4295 76.937C47.6424 76.937 44.5724 73.867 44.5724 70.0799L44.5724 70.0799L44.5724 63.2228L51.412 63.2228C51.4178 63.2227 51.4237 63.2227 51.4295 63.2227Z" fill="#FFE0B8"/>
<path fill-rule="evenodd" clip-rule="evenodd" d="M44.5703 70.1679C44.6174 73.9145 47.6691 76.9372 51.4269 76.9372H51.4271L51.4271 70.0801H51.4274V76.9372H44.5703V70.1679Z" fill="#FFC477"/>
<path d="M43.2891 12.4827L48.0697 17.2633L21.1123 44.2207L16.3316 39.4401L43.2891 12.4827Z" fill="#FFA52F"/>
<path d="M13.8495 47.2281L4.77778 50.9933L8.54297 41.9216L13.8495 47.2281Z" fill="#FFA52F"/>
<path d="M21.112 44.2209L13.8499 47.2283L8.54341 41.9218L9.85764 38.7431L11.5508 34.6597L21.112 44.2209Z" fill="#FFEACF"/>
<path d="M38.5078 7.70215L43.2884 12.4828L16.331 39.4402L11.5504 34.6596L38.5078 7.70215Z" fill="#FFB85B"/>
<path d="M46.2109 0.000244141L55.7722 9.5615L48.0701 17.2636L38.5088 7.70237L46.2109 0.000244141Z" fill="#FFEACF"/>
</svg>
