<svg width="48px" height="48px" viewBox="0 0 48 48" version="1.1" xmlns="http://www.w3.org/2000/svg" xmlns:xlink="http://www.w3.org/1999/xlink">
    <g id="Page-1" stroke="none" stroke-width="1" fill="none" fill-rule="evenodd">
        <g id="HP-V6-Copy" transform="translate(-892.000000, -1685.000000)">
            <g id="icon5" transform="translate(892.000000, 1685.000000)">
                <circle id="Oval" fill="#FFD9A7" cx="24" cy="24" r="24"></circle>
                <path d="M18.416441,31.4711819 L35.1606503,14.6594923 C36.0340445,13.7825782 37.4529498,13.7797249 38.3298639,14.6531191 C38.3319925,14.6552392 38.334117,14.6573636 38.3362371,14.6594923 C39.2162031,15.5430047 39.2218579,16.9699522 38.348922,17.8604111 L20.3440389,36.2267157 C20.01634,36.5609927 19.6162399,36.7832145 19.1923055,36.8918616 C18.4189713,37.1411574 17.5367596,36.9597491 16.9214215,36.3468809 C16.9192928,36.3447608 16.9171684,36.3426364 16.9150483,36.3405077 L8.65852262,28.0507077 C7.78057743,27.1692243 7.78057743,25.7438064 8.65852262,24.8623231 C9.53191687,23.985409 10.9508221,23.9825556 11.8277362,24.8559499 C11.8298649,24.85807 11.8319893,24.8601944 11.8341094,24.8623231 L18.416441,31.4711819 Z" id="Combined-Shape" fill="#E98300"></path>
            </g>
        </g>
    </g>
</svg>