<svg width="42px" height="42px" viewBox="0 0 42 42" version="1.1" xmlns="http://www.w3.org/2000/svg" xmlns:xlink="http://www.w3.org/1999/xlink">
    <g id="Page-1" stroke="none" stroke-width="1" fill="none" fill-rule="evenodd">
        <g id="HP-V6-Copy" transform="translate(-1099.000000, -1402.000000)">
            <g id="universal" transform="translate(1099.000000, 1402.000000)">
                <circle id="Oval" fill="#E98300" cx="21" cy="21" r="21"></circle>
                <path d="M25.1370408,7.24366117 L28.0101967,6.51929874 L30.165084,7.24366117 L33.7565087,7.9680236 L35.911396,6.51929874 C37.1145041,7.78914842 38.1524462,9.20817016 39,10.7423941 L38.7845519,10.8655554 L34.4748587,12.3142802 L30.1651654,11.5899178 L28.7286281,9.41674847 L24.4189348,9.41674847 L22.2640475,11.5899178 L22.9823162,16.6605369 L28.0102781,18.8337062 L30.8834341,18.1093438 L33.0383214,19.5580687 L33.0383214,22.4556005 L34.4748587,25.3531322 L35.911396,28.250664 L35.911396,31.1481958 L37.8507539,33.1040072 C31.2174273,42.5832431 18.220003,44.8440449 8.8212445,38.1543592 C0.838926773,32.4722824 -2.15562213,21.9593449 1.62041413,12.8720754 L2.87022437,16.6605369 L5.02511169,18.1092618 L7.179999,19.5579866 L5.74338034,21.0067935 L5.74338034,23.1799629 L7.17991764,26.0774947 L10.7713423,26.8018571 L10.7713423,34.0456455 L12.2078796,37.6675398 L14.3627669,38.3919022 L14.3627669,34.770008 L17.2359229,32.5968386 L17.2359229,30.4236693 L20.1090788,27.5261375 L20.8273475,23.9042433 L17.9541915,23.9042433 L15.7993042,20.2823491 L10.7713423,20.2823491 L9.33480496,17.3848173 L7.17991764,19.5579866 L7.17991764,16.6604548 L5.74338034,15.211812 L5.74338034,13.0386427 L10.7713423,12.3142802 L14.3627669,10.1411109 L16.5176542,6.51921668 L18.6725415,5.79485425 L19.3908102,3.6216849 L15.0811169,2.89732247 L13.0411949,1.5209682 C18.5648175,-0.722438374 24.7765233,-0.474720863 30.1076421,2.20192469 L27.2919281,3.6216849 L24.4187721,3.6216849 L22.9822348,6.51921668 L25.1370408,7.24366117 Z" id="Path" fill="#FFD39A" fill-rule="nonzero"></path>
            </g>
        </g>
    </g>
</svg>