<svg width="70" height="69" viewBox="0 0 70 69" fill="none" xmlns="http://www.w3.org/2000/svg">
<rect y="3.64258" width="60.7108" height="52.2113" fill="#FFEACF"/>
<rect width="7.28529" height="8.49951" transform="matrix(-1 0 0 1 19.4258 0)" fill="#FFA52F"/>
<rect width="7.28529" height="8.49951" transform="matrix(-1 0 0 1 48.5703 0)" fill="#FFA52F"/>
<rect width="60.7108" height="1.21422" transform="matrix(-1 0 0 1 60.7109 13.3564)" fill="#FFB85B"/>
<circle cx="10.3207" cy="22.463" r="3.03554" fill="#FFB85B"/>
<circle cx="10.3207" cy="34.6051" r="3.03554" fill="#FFB85B"/>
<circle cx="10.3207" cy="46.7473" r="3.03554" fill="#FFB85B"/>
<circle cx="23.6762" cy="22.463" r="3.03554" fill="#FFB85B"/>
<circle cx="23.6762" cy="34.6051" r="3.03554" fill="#FFB85B"/>
<circle cx="23.6762" cy="46.7473" r="3.03554" fill="#FFB85B"/>
<circle cx="37.0355" cy="22.463" r="3.03554" fill="#FFB85B"/>
<circle cx="37.0355" cy="34.6051" r="3.03554" fill="#FFB85B"/>
<circle cx="37.0355" cy="46.7473" r="3.03554" fill="#FFB85B"/>
<circle cx="50.391" cy="22.463" r="3.03554" fill="#FFB85B"/>
<circle cx="50.391" cy="34.6051" r="3.03554" fill="#FFB85B"/>
<circle cx="50.391" cy="46.7473" r="3.03554" fill="#FFB85B"/>
<circle cx="55.454" cy="54.4063" r="13.9423" fill="#FFB85B"/>
<path d="M58.0918 50.7309L62.3658 50.0175L61.6523 45.7435" stroke="#FFEED8" stroke-width="2.09658"/>
<path fill-rule="evenodd" clip-rule="evenodd" d="M51.2094 49.9236C53.7529 47.419 57.8452 47.431 60.3738 49.9597L61.8563 48.4772C58.4968 45.1177 53.05 45.1177 49.6906 48.4772L49.6909 48.4775C46.3676 51.8398 46.3796 57.2596 49.727 60.607C53.0865 63.9665 58.5332 63.9665 61.8927 60.607L60.4102 59.1245C57.8695 61.6652 53.7502 61.6652 51.2095 59.1245C48.6688 56.5838 48.6688 52.4645 51.2095 49.9238L51.2094 49.9236Z" fill="#FFEED8"/>
</svg>
